G04 FAB 3000 Version 8.1.7 - Gerber/CAM Software*
G04 RS274-X Output*
%FSLAX24Y24*%
%MIA0B0*%
%MOIN*%
%SFA1.000000B1.000000*%

%IPPOS*%
%ADD16C,0.029560*%
%ADD17C,0.029570*%
%ADD18C,0.029510*%
%ADD19C,0.029550*%
%ADD20C,0.029520*%
%ADD21C,0.029600*%
%ADD22C,0.029500*%
%ADD23C,0.033900*%
%ADD24C,0.033910*%
%ADD25C,0.033970*%
%ADD26C,0.033960*%
%ADD27C,0.033980*%
%ADD28C,0.033920*%
%ADD29C,0.041070*%
%ADD30C,0.041020*%
%ADD31C,0.041030*%
%ADD32C,0.041010*%
%ADD33C,0.041090*%
%ADD34C,0.041000*%
%ADD35C,0.054800*%
%ADD36C,0.054750*%
%ADD37C,0.054730*%
%ADD38C,0.054740*%
%ADD39C,0.068400*%
%ADD40C,0.068410*%
%ADD41C,0.068420*%
%ADD42R,0.038600X0.038600*%
%ADD43R,0.038640X0.038640*%
%ADD44R,0.038630X0.038640*%
%ADD45R,0.038680X0.038640*%
%ADD46C,0.032820*%
%ADD47C,0.032800*%
%ADD48C,0.032900*%
%ADD49C,0.082101*%
%ADD62C,0.008200*%
%ADD63C,0.008250*%
%ADD64C,0.008190*%
%ADD65R,0.034800X0.034780*%
%ADD66R,0.034780X0.034780*%
%ADD67R,0.034770X0.034780*%
%ADD68R,0.034770X0.034770*%
%ADD69R,0.034770X0.034800*%
%ADD70R,0.034760X0.034800*%
%ADD71R,0.034780X0.034800*%
%ADD72R,0.034780X0.034770*%
%ADD73R,0.034780X0.034700*%
%ADD74R,0.034780X0.034900*%
%ADD75R,0.034780X0.034760*%
%ADD76R,0.034770X0.034700*%
%ADD77R,0.034770X0.034760*%
%ADD78R,0.080500X0.080510*%
%ADD79R,0.080500X0.080500*%
%ADD80C,0.164200*%
%ADD81C,0.164220*%
%ADD82C,0.164230*%
%ADD83C,0.164240*%
%ADD84R,0.048300X0.032170*%
%ADD85R,0.048290X0.032230*%
%ADD86R,0.048290X0.032180*%
%ADD87R,0.048280X0.032180*%
%ADD89R,0.048280X0.032170*%
%ADD92R,0.048290X0.032240*%
%ADD93R,0.048280X0.032240*%
%ADD94R,0.048330X0.032200*%
%ADD95R,0.048290X0.032200*%
%ADD97R,0.048290X0.032300*%
%ADD104R,0.048350X0.032170*%
%ADD105R,0.048350X0.032180*%
%ADD107R,0.048290X0.032170*%
%ADD108R,0.048290X0.032220*%
%ADD109R,0.048350X0.032200*%
%ADD110R,0.048270X0.032200*%
%ADD111R,0.048280X0.032200*%
%ADD116R,0.048280X0.032220*%
%ADD117R,0.048300X0.032200*%
%ADD118R,0.048350X0.032240*%
%ADD119R,0.048350X0.032220*%
%ADD125R,0.048290X0.032400*%
%ADD126R,0.048280X0.032400*%
%ADD129R,0.048270X0.032100*%
%ADD130R,0.048300X0.032300*%
%ADD131R,0.048270X0.032300*%
%ADD134R,0.048300X0.032100*%
%ADD135R,0.048300X0.032180*%
%ADD136R,0.048300X0.032230*%
%ADD142R,0.048300X0.032240*%
%ADD143R,0.048200X0.032240*%
%ADD144R,0.048300X0.032220*%
%ADD146R,0.048200X0.032170*%
%ADD147R,0.048200X0.032220*%
%ADD148R,0.048200X0.032230*%
%ADD149R,0.048200X0.032180*%
%ADD150R,0.048200X0.032190*%
%ADD151R,0.048300X0.032190*%
%ADD152R,0.048300X0.032210*%
%ADD153R,0.048200X0.032210*%
%ADD154R,0.048200X0.032300*%
%ADD155R,0.048200X0.032200*%
%ADD156R,0.048200X0.032100*%
%ADD158R,0.032170X0.048400*%
%ADD159R,0.032180X0.048400*%
%ADD160R,0.032230X0.048400*%
%ADD161R,0.032230X0.048300*%
%ADD162R,0.032240X0.048300*%
%ADD163R,0.032180X0.048300*%
%ADD164R,0.032170X0.048300*%
%ADD165R,0.032220X0.048400*%
%ADD166R,0.032170X0.048200*%
%ADD167R,0.032180X0.048200*%
%ADD169R,0.032230X0.048200*%
%ADD170R,0.032160X0.048200*%
%ADD171R,0.032220X0.048200*%
%ADD172R,0.032220X0.048300*%
%ADD173R,0.032160X0.048300*%
%ADD174R,0.032240X0.048400*%
%ADD175R,0.032160X0.048400*%
%ADD176R,0.032190X0.048300*%
%ADD177R,0.032190X0.048200*%
%ADD180R,0.032100X0.048300*%
%ADD181R,0.032100X0.048200*%
%ADD184R,0.048290X0.058000*%
%ADD188C,0.008240*%
%ADD189C,0.008180*%
%ADD191R,0.051540X0.016100*%
%ADD192R,0.051540X0.016000*%
%ADD193R,0.051540X0.016200*%
%ADD194R,0.051480X0.016100*%
%ADD195R,0.051480X0.015900*%
%ADD196R,0.051540X0.015900*%
%ADD197R,0.051480X0.016000*%
%ADD198R,0.051480X0.016200*%
%ADD199R,0.051540X0.016060*%
%ADD200R,0.051540X0.016110*%
%ADD201R,0.051540X0.016120*%
%ADD202R,0.051540X0.016130*%
%ADD203R,0.051540X0.016070*%
%ADD204R,0.051480X0.016110*%
%ADD205R,0.051480X0.016070*%
%ADD206R,0.051480X0.016050*%
%ADD207R,0.051480X0.016130*%
%ADD208R,0.051480X0.016120*%
%ADD209R,0.051480X0.016060*%
%ADD210R,0.051490X0.016060*%
%ADD211R,0.051490X0.016110*%
%ADD212R,0.051490X0.016120*%
%ADD213R,0.051490X0.016130*%
%ADD214R,0.051490X0.016070*%
%ADD215R,0.051490X0.016000*%
%ADD216R,0.051490X0.016100*%
%ADD217R,0.051490X0.016200*%
%ADD218R,0.051550X0.016100*%
%ADD219R,0.051550X0.016200*%
%ADD220R,0.051550X0.016060*%
%ADD221R,0.051540X0.016050*%
%ADD222R,0.051550X0.016050*%
%ADD223R,0.051550X0.016110*%
%ADD224R,0.051550X0.016120*%
%ADD225R,0.051600X0.016110*%
%ADD226R,0.051600X0.016070*%
%ADD227R,0.051600X0.016050*%
%ADD228R,0.051600X0.016130*%
%ADD229R,0.051600X0.016120*%
%ADD230R,0.051600X0.016060*%
%ADD231R,0.051500X0.016060*%
%ADD232R,0.051500X0.016110*%
%ADD233R,0.051500X0.016120*%
%ADD234R,0.016200X0.051540*%
%ADD235R,0.016110X0.051500*%
%ADD236R,0.016050X0.051500*%
%ADD237R,0.016070X0.051500*%
%ADD238R,0.016120X0.051500*%
%ADD239R,0.016130X0.051500*%
%ADD240R,0.016110X0.051600*%
%ADD241R,0.016060X0.051600*%
%ADD242R,0.016120X0.051600*%
%ADD243R,0.016060X0.051500*%
%ADD244R,0.016070X0.051600*%
%ADD245R,0.016110X0.051540*%
%ADD246R,0.016120X0.051540*%
%ADD247R,0.016060X0.051540*%
%ADD248R,0.016070X0.051540*%
%ADD249R,0.016050X0.051540*%
%ADD250R,0.016070X0.051550*%
%ADD251R,0.016110X0.051550*%
%ADD252R,0.016120X0.051550*%
%ADD253R,0.016050X0.051600*%
%ADD254R,0.016130X0.051540*%
%ADD255R,0.016110X0.051480*%
%ADD256R,0.016110X0.051490*%
%ADD257R,0.016120X0.051490*%
%ADD258R,0.016120X0.051480*%
%ADD259R,0.016130X0.051600*%
%ADD260R,0.016060X0.051530*%
%ADD261R,0.016110X0.051530*%
%ADD262R,0.016120X0.051530*%
%ADD263R,0.016070X0.051530*%
%ADD264R,0.016110X0.051400*%
%ADD265R,0.016120X0.051400*%
%ADD266R,0.016060X0.051400*%
%ADD267R,0.016050X0.051400*%
%ADD268R,0.016060X0.051480*%
%ADD269R,0.016100X0.051540*%
%ADD270R,0.016100X0.051480*%
%ADD271R,0.016200X0.051480*%
%ADD273R,0.009660X0.019300*%
%ADD274R,0.009670X0.019300*%
%ADD275R,0.009600X0.019300*%
%ADD276R,0.009700X0.019300*%
%ADD277R,0.009600X0.019400*%
%ADD278R,0.025800X0.032200*%
%ADD279R,0.025780X0.032180*%
%ADD280R,0.025760X0.032180*%
%ADD281R,0.025780X0.032220*%
%ADD282R,0.025760X0.032170*%
%ADD283R,0.025780X0.032170*%
%ADD284R,0.025730X0.032180*%
%ADD285R,0.025760X0.032220*%
%ADD286R,0.025780X0.032240*%
%ADD287R,0.025760X0.032240*%
%ADD288R,0.025730X0.032240*%
%ADD289R,0.025760X0.032230*%
%ADD290R,0.025780X0.032230*%
%ADD291R,0.025770X0.032230*%
%ADD292R,0.025780X0.032300*%
%ADD293R,0.025760X0.032200*%
%ADD294R,0.025780X0.032200*%
%ADD295R,0.025770X0.032200*%
%ADD296R,0.025760X0.032300*%
%ADD297R,0.025800X0.032240*%
%ADD298R,0.025800X0.032230*%
%ADD299R,0.025700X0.032230*%
%ADD301R,0.031570X0.045100*%
%ADD302R,0.031570X0.045000*%
%ADD303R,0.031500X0.045100*%
%ADD304R,0.031600X0.045100*%
%ADD305R,0.031600X0.045000*%
%ADD306R,0.031500X0.045000*%
%ADD307R,0.067590X0.016100*%
%ADD308R,0.067660X0.016100*%
%ADD309R,0.067600X0.016100*%
%ADD310R,0.067600X0.016200*%
%ADD311R,0.067660X0.016200*%
%ADD312R,0.067660X0.016000*%
%ADD313R,0.067600X0.016000*%
%ADD314R,0.016110X0.067600*%
%ADD315R,0.016060X0.067600*%
%ADD316R,0.016120X0.067600*%
%ADD317R,0.016130X0.067600*%
%ADD318R,0.016050X0.067600*%
%ADD319R,0.016070X0.067600*%
%ADD320R,0.016110X0.067500*%
%ADD321R,0.016120X0.067500*%
%ADD322R,0.016070X0.067500*%
%ADD323R,0.016060X0.067500*%
%ADD324R,0.016110X0.067590*%
%ADD325R,0.016050X0.067590*%
%ADD326R,0.016130X0.067590*%
%ADD327R,0.016110X0.067620*%
%ADD328R,0.016130X0.067620*%
%ADD329R,0.016050X0.067620*%
%ADD330R,0.016070X0.067670*%
%ADD331R,0.016050X0.067670*%
%ADD332R,0.016110X0.067670*%
%ADD333R,0.016120X0.067670*%
%ADD334R,0.016110X0.067700*%
%ADD335R,0.016120X0.067700*%
%ADD336R,0.016130X0.067700*%
%ADD337R,0.016050X0.067700*%
%ADD338R,0.016110X0.067650*%
%ADD339R,0.016120X0.067650*%
%ADD340R,0.016060X0.067650*%
%ADD341R,0.016070X0.067650*%
%ADD342R,0.016060X0.067700*%
%ADD343R,0.016070X0.067700*%
%ADD344R,0.016100X0.067590*%
%ADD345R,0.016200X0.067590*%
%ADD346R,0.016100X0.067650*%
%ADD347R,0.016200X0.067650*%
%ADD348R,0.016100X0.067620*%
%ADD349R,0.016200X0.067620*%
%ADD350R,0.016000X0.067650*%
%ADD351R,0.016000X0.067590*%
%ADD352R,0.093400X0.032220*%
%ADD353R,0.093360X0.032200*%
%ADD354R,0.093380X0.032200*%
%ADD355R,0.093360X0.032100*%
%ADD356R,0.093430X0.032100*%
%ADD358R,0.093370X0.032180*%
%ADD359R,0.093360X0.032230*%
%ADD360R,0.093370X0.032230*%
%ADD361R,0.032180X0.093380*%
%ADD362R,0.032230X0.093400*%
%ADD363R,0.032170X0.093400*%
%ADD364R,0.032220X0.093400*%
%ADD365R,0.032170X0.093300*%
%ADD366R,0.032180X0.093400*%
%ADD367R,0.032230X0.093370*%
%ADD368R,0.032230X0.093360*%
%ADD369R,0.032230X0.093300*%
%ADD370R,0.032180X0.093300*%
%ADD371R,0.032300X0.093370*%
%ADD372R,0.032300X0.093360*%
%ADD373R,0.032200X0.093400*%
%ADD374R,0.032300X0.093300*%
%ADD375R,0.032300X0.093500*%
%ADD377R,0.060560X0.080400*%
%ADD378R,0.060550X0.080400*%
%ADD379R,0.060550X0.080600*%
%ADD381R,0.060490X0.080600*%
%ADD382R,0.060560X0.080500*%
%ADD383R,0.080500X0.060500*%
%ADD384R,0.080500X0.060400*%
%ADD386R,0.038630X0.077400*%
%ADD387R,0.038630X0.077200*%
%ADD388R,0.038630X0.077300*%
%ADD389R,0.038640X0.077200*%
%ADD390R,0.077310X0.038600*%
%ADD391R,0.077260X0.038630*%
%ADD392R,0.077250X0.038630*%
%ADD393R,0.077260X0.038600*%
%ADD394R,0.077250X0.038600*%
%ADD395R,0.077320X0.038600*%
%ADD396R,0.048350X0.032400*%
%ADD397R,0.048270X0.032170*%
%ADD398R,0.032180X0.048290*%
%ADD399R,0.032170X0.048290*%
%ADD400R,0.032230X0.048350*%
%ADD401R,0.032220X0.048350*%
%ADD402R,0.032160X0.048350*%
%ADD403R,0.032170X0.048350*%
%ADD404R,0.032170X0.048280*%
%ADD405R,0.032160X0.048280*%
%ADD406R,0.032220X0.048280*%
%ADD407R,0.032230X0.048280*%
%ADD408R,0.032230X0.048290*%
%ADD409R,0.032180X0.048280*%
%ADD410R,0.032220X0.048290*%
%ADD411R,0.032240X0.048100*%
%ADD412R,0.032160X0.048290*%
%ADD413R,0.032100X0.048290*%
%ADD414R,0.048290X0.057940*%
%ADD415R,0.048340X0.057950*%
%ADD416R,0.048290X0.057950*%
%ADD417R,0.048280X0.058000*%
%ADD418R,0.048280X0.058100*%
%ADD419R,0.048340X0.058100*%
%ADD420R,0.048290X0.057900*%
%ADD421R,0.048340X0.058000*%
%ADD422R,0.048290X0.058010*%
%ADD423R,0.048330X0.058010*%
%ADD424R,0.048350X0.057950*%
%ADD425R,0.048280X0.057950*%
%ADD426R,0.048280X0.057900*%
%ADD427R,0.048350X0.057900*%
%ADD428R,0.048330X0.057950*%
%ADD429R,0.048270X0.057940*%
%ADD430R,0.048300X0.057940*%
%ADD431R,0.048340X0.057900*%
%ADD432R,0.058000X0.048300*%
%ADD433R,0.057940X0.048300*%
%ADD434R,0.057940X0.048200*%
%ADD435R,0.058000X0.048200*%
%ADD436R,0.057950X0.048200*%
%ADD437R,0.057950X0.048300*%
%ADD438R,0.057950X0.048400*%
%ADD439R,0.058000X0.048400*%
%ADD440R,0.057950X0.048290*%
%ADD441R,0.057950X0.048330*%
%ADD442R,0.057940X0.048290*%
%ADD443R,0.057940X0.048270*%
%ADD444R,0.057940X0.048330*%
%ADD445R,0.057940X0.048400*%
%ADD446R,0.057940X0.048280*%
%ADD447R,0.057940X0.048350*%
%ADD448R,0.057990X0.048290*%
%ADD449R,0.041820X0.080520*%
%ADD450R,0.041820X0.080600*%
%ADD451R,0.041830X0.080600*%
%ADD452R,0.041890X0.080600*%
%ADD453R,0.080510X0.041900*%
%ADD454R,0.080520X0.042000*%
%ADD455R,0.080520X0.041900*%
%ADD456R,0.080510X0.041800*%
%ADD457R,0.080510X0.042000*%
%ADD458R,0.080520X0.041800*%
%ADD460R,0.094230X0.094350*%
%ADD461R,0.086210X0.086320*%
%ADD462R,0.100700X0.100800*%
%ADD463R,0.092670X0.092800*%
%ADD464R,0.097450X0.091200*%
%ADD465R,0.089410X0.083200*%
%ADD466R,0.092720X0.089620*%
%ADD467R,0.084690X0.081540*%
%ADD468R,0.094300X0.095800*%
%ADD469R,0.086220X0.087700*%
%ADD470R,0.092730X0.091080*%
%ADD471R,0.084690X0.083060*%
%ADD472R,0.103030X0.101600*%
%ADD473R,0.094990X0.093600*%
%ADD474R,0.005630X0.028300*%
%ADD475R,0.005640X0.028200*%
%ADD476R,0.005630X0.028200*%
%ADD477R,0.005640X0.028000*%
%ADD478R,0.005640X0.028300*%
%ADD479R,0.005600X0.028200*%
%ADD480R,0.005630X0.028100*%
%ADD481R,0.005600X0.028100*%
%ADD482R,0.092300X0.092350*%
%ADD483R,0.084300X0.084320*%
%ADD484R,0.092290X0.092220*%
%ADD485R,0.084250X0.084200*%
%ADD486R,0.090980X0.090800*%
%ADD487R,0.082900X0.082900*%
%ADD488R,0.099940X0.100500*%
%ADD489R,0.091920X0.092500*%
%ADD490R,0.097480X0.097500*%
%ADD491R,0.089460X0.089400*%
%ADD492R,0.005600X0.028300*%
%ADD493R,0.098410X0.097000*%
%ADD494R,0.090390X0.089000*%
%ADD495R,0.097500X0.097590*%
%ADD496R,0.096680X0.096730*%
%ADD497R,0.089470X0.089510*%
%ADD498R,0.079810X0.079860*%
%ADD499R,0.103960X0.104000*%
%ADD500R,0.103140X0.103200*%
%ADD501R,0.095870X0.096000*%
%ADD502R,0.086210X0.086300*%
%ADD503R,0.100590X0.094400*%
%ADD504R,0.099830X0.093600*%
%ADD505R,0.092550X0.086400*%
%ADD506R,0.082900X0.076700*%
%ADD507R,0.095970X0.092830*%
%ADD508R,0.095150X0.092020*%
%ADD509R,0.087890X0.084750*%
%ADD510R,0.078240X0.075090*%
%ADD511R,0.097500X0.099000*%
%ADD512R,0.096660X0.098200*%
%ADD513R,0.089420X0.091000*%
%ADD514R,0.079750X0.081400*%
%ADD515R,0.095970X0.094350*%
%ADD516R,0.095170X0.093520*%
%ADD517R,0.087950X0.086310*%
%ADD518R,0.078270X0.076670*%
%ADD519R,0.106240X0.104900*%
%ADD520R,0.105460X0.104100*%
%ADD521R,0.098210X0.096900*%
%ADD522R,0.088540X0.087100*%
%ADD523R,0.008830X0.031300*%
%ADD524R,0.008030X0.030600*%
%ADD525R,0.008840X0.031400*%
%ADD526R,0.008080X0.030500*%
%ADD527R,0.008830X0.031400*%
%ADD528R,0.008080X0.030600*%
%ADD529R,0.008020X0.030600*%
%ADD530R,0.008020X0.030500*%
%ADD531R,0.008800X0.031300*%
%ADD532R,0.008000X0.030600*%
%ADD533R,0.008800X0.031400*%
%ADD534R,0.095500X0.095550*%
%ADD535R,0.094700X0.094730*%
%ADD536R,0.087500X0.087510*%
%ADD537R,0.077900X0.077850*%
%ADD538R,0.008900X0.031300*%
%ADD539R,0.008100X0.030600*%
%ADD540R,0.008900X0.031400*%
%ADD541R,0.095540X0.095490*%
%ADD542R,0.094780X0.094670*%
%ADD543R,0.087510X0.087400*%
%ADD544R,0.077850X0.077750*%
%ADD545R,0.094190X0.094200*%
%ADD546R,0.093370X0.093400*%
%ADD547R,0.086150X0.086200*%
%ADD548R,0.076490X0.076400*%
%ADD549R,0.103080X0.103800*%
%ADD550R,0.102340X0.103000*%
%ADD551R,0.095060X0.095800*%
%ADD552R,0.085390X0.086000*%
%ADD553R,0.100740X0.100700*%
%ADD554R,0.099880X0.099900*%
%ADD555R,0.092660X0.092700*%
%ADD556R,0.082960X0.083000*%
%ADD557R,0.009000X0.031400*%
%ADD558R,0.008000X0.030500*%
%ADD559R,0.008000X0.030700*%
%ADD560R,0.101670X0.100200*%
%ADD561R,0.100910X0.099400*%
%ADD562R,0.093640X0.092200*%
%ADD563R,0.083980X0.082600*%
%ADD564R,0.009700X0.019310*%
%ADD565R,0.093410X0.032180*%
%ADD566R,0.060540X0.080500*%
%ADD567R,0.038700X0.077400*%
%ADD568R,0.032200X0.048280*%
%ADD569C,0.005490*%
%LNA4000T Rev4 top soldermask_0*%
%LPD*%
G54D454*
X57716Y157161D03*
G54D455*
Y155759D03*
G54D390*
X83403Y151097D03*
G54D235*
X83644Y143836D03*
Y134611D03*
G54D440*
X62472Y68360D03*
G54D441*
Y67281D03*
G54D314*
X62512Y157477D03*
Y154780D03*
G54D108*
X66312Y74743D03*
G54D92*
Y73938D03*
G54D86*
Y73134D03*
Y72328D03*
G54D565*
X66561Y63312D03*
G54D353*
X66191Y117650D03*
G54D320*
X66336Y150316D03*
G54D314*
Y152281D03*
D03*
G54D245*
Y81884D03*
Y91109D03*
G54D235*
Y137026D03*
G54D240*
Y146252D03*
G54D444*
X69556Y60439D03*
G54D442*
Y61517D03*
G54D427*
X69371Y102516D03*
G54D163*
X69315Y150759D03*
G54D167*
Y151838D03*
G54D17*
X69306Y156249D03*
G54D434*
X74306Y143708D03*
G54D445*
Y142629D03*
G54D107*
X74249Y62669D03*
G54D71*
X74306Y140673D03*
G54D17*
Y139866D03*
Y139062D03*
G54D569*
X86536Y151042D03*
G54D454*
D03*
G54D458*
Y149642D03*
G54D295*
X86611Y146118D03*
G54D261*
X86461Y81481D03*
G54D245*
Y90706D03*
G54D29*
Y133991D03*
G54D17*
Y152506D03*
Y153312D03*
Y156934D03*
Y157740D03*
G54D80*
X105219Y107266D03*
G36*
X8355Y54280D02*
G01X9159D01*
Y54273D01*
X8355D01*
G37*
G36*
X8358Y159070D02*
G01Y158266D01*
X8351D01*
Y159070D01*
G37*
G36*
Y54276D02*
G01Y55081D01*
X8358D01*
Y54276D01*
G37*
G36*
X8355Y159074D02*
G01X9159D01*
Y159067D01*
X8355D01*
G37*
G54D66*
X10226Y64963D03*
Y57798D03*
G54D16*
Y67378D03*
Y66573D03*
Y65768D03*
Y60213D03*
D03*
Y59408D03*
Y58603D03*
G54D81*
X15217Y107266D03*
D03*
G54D71*
X23589Y106863D03*
G54D70*
X17149D03*
G54D17*
X25199D03*
X18759D03*
G54D438*
X46210Y111315D03*
G54D388*
X34135Y110928D03*
G54D83*
X39690Y111210D03*
G54D418*
X50179Y141477D03*
G36*
X50096Y126111D02*
G01X50174D01*
Y125531D01*
X50096D01*
Y126111D01*
G37*
G36*
Y123373D02*
G01X50174D01*
Y122794D01*
X50096D01*
Y123373D01*
G37*
G54D80*
X103559Y152171D03*
G54D17*
X99744Y138032D03*
G36*
X47279Y95228D02*
G01X47548D01*
X47608Y95167D01*
X47218D01*
G37*
G36*
X47256Y95219D02*
G01X47556D01*
X47586Y95189D01*
X47256D01*
G37*
G36*
X47095Y95051D02*
G01X47724D01*
X47739Y95035D01*
X47095D01*
G37*
G36*
X47279Y95228D02*
G01X47548D01*
X47608Y95167D01*
X47218D01*
G37*
G36*
X47311Y95260D02*
G01X47516D01*
X47577Y95199D01*
X47251D01*
G37*
G36*
X47063Y95018D02*
G01X47757D01*
X47772Y95003D01*
X47063D01*
G37*
G36*
X47224Y95187D02*
G01X47588D01*
X47618Y95156D01*
X47224D01*
G37*
G36*
X47095Y95051D02*
G01X47724D01*
X47739Y95035D01*
X47095D01*
G37*
G36*
X47256Y95219D02*
G01X47556D01*
X47586Y95189D01*
X47256D01*
G37*
G54D64*
X47418Y95351D03*
G54D498*
X47414Y95362D03*
G54D497*
D03*
G54D460*
X47413D03*
G54D496*
X47414D03*
G54D495*
D03*
G54D460*
X47413D03*
G54D496*
X47414D03*
G54D495*
D03*
G54D460*
X47413D03*
G54D461*
D03*
G54D497*
X47414D03*
G54D498*
D03*
G54D314*
X47418Y104432D03*
Y106396D03*
G36*
X47578Y95496D02*
G01X47279D01*
X47218Y95556D01*
X47578D01*
G37*
G36*
X47556Y95504D02*
G01X47271D01*
X47241Y95534D01*
X47586D01*
G37*
G36*
X47724Y95673D02*
G01X47103D01*
X47088Y95688D01*
X47739D01*
G37*
G36*
X47578Y95496D02*
G01X47279D01*
X47218Y95556D01*
X47578D01*
G37*
G36*
X47546Y95464D02*
G01X47311D01*
X47251Y95524D01*
X47546D01*
G37*
G36*
X47757Y95705D02*
G01X47070D01*
X47055Y95721D01*
X47772D01*
G37*
G36*
X47588Y95537D02*
G01X47239D01*
X47209Y95567D01*
X47618D01*
G37*
G36*
X47724Y95673D02*
G01X47103D01*
X47088Y95688D01*
X47739D01*
G37*
G36*
X47556Y95504D02*
G01X47271D01*
X47241Y95534D01*
X47586D01*
G37*
G36*
X60401Y101528D02*
G01X60478D01*
Y100949D01*
X60401D01*
Y101528D01*
G37*
G36*
Y98791D02*
G01X60478D01*
Y98211D01*
X60401D01*
Y98791D01*
G37*
G36*
X60357Y108850D02*
G01X60561D01*
X60622Y108789D01*
X60296D01*
G37*
G36*
X60269Y108777D02*
G01X60633D01*
X60664Y108746D01*
X60269D01*
G37*
G36*
X60109Y108608D02*
G01X60802D01*
X60817Y108593D01*
X60109D01*
G37*
G36*
X60357Y108850D02*
G01X60561D01*
X60622Y108789D01*
X60296D01*
G37*
G36*
X60389Y108882D02*
G01X60529D01*
X60590Y108821D01*
X60328D01*
G37*
G36*
X60237Y108745D02*
G01X60666D01*
X60696Y108714D01*
X60237D01*
G37*
G36*
X60076Y108576D02*
G01X60834D01*
X60849Y108561D01*
X60076D01*
G37*
G36*
X60109Y108608D02*
G01X60802D01*
X60817Y108593D01*
X60109D01*
G37*
G36*
X60269Y108777D02*
G01X60633D01*
X60664Y108746D01*
X60269D01*
G37*
G54D189*
X60459Y108956D03*
G54D502*
Y108952D03*
G54D501*
D03*
G54D462*
D03*
G54D500*
D03*
G54D499*
D03*
G54D462*
D03*
G54D500*
D03*
G54D499*
D03*
G54D463*
D03*
G54D462*
D03*
G54D501*
D03*
G54D502*
D03*
G54D433*
X60701Y116949D03*
Y118028D03*
G54D316*
X60499Y154780D03*
Y157477D03*
G36*
X60591Y109053D02*
G01X60357D01*
X60296Y109114D01*
X60591D01*
G37*
G36*
X60633Y109126D02*
G01X60284D01*
X60254Y109157D01*
X60664D01*
G37*
G36*
X60802Y109295D02*
G01X60116D01*
X60101Y109310D01*
X60817D01*
G37*
G36*
X60591Y109053D02*
G01X60357D01*
X60296Y109114D01*
X60591D01*
G37*
G36*
X60559Y109021D02*
G01X60389D01*
X60328Y109082D01*
X60559D01*
G37*
G36*
X60666Y109158D02*
G01X60252D01*
X60222Y109189D01*
X60696D01*
G37*
G36*
X60834Y109327D02*
G01X60084D01*
X60068Y109342D01*
X60849D01*
G37*
G36*
X60802Y109295D02*
G01X60116D01*
X60101Y109310D01*
X60817D01*
G37*
G36*
X60633Y109126D02*
G01X60284D01*
X60254Y109157D01*
X60664D01*
G37*
G54D64*
X64726Y114268D03*
G54D506*
X64715Y114284D03*
G54D505*
Y114285D03*
G54D464*
D03*
G54D504*
D03*
G54D503*
D03*
G54D464*
D03*
G54D504*
D03*
G54D503*
D03*
G54D465*
D03*
G54D464*
D03*
G54D505*
D03*
G54D506*
Y114284D03*
G54D314*
X64726Y152281D03*
G54D320*
Y150316D03*
G54D240*
Y146252D03*
G54D235*
Y137026D03*
G36*
X64873Y114411D02*
G01X64557D01*
X64526Y114442D01*
X64903D01*
G37*
G36*
X65041Y114580D02*
G01X64388D01*
X64373Y114595D01*
X65056D01*
G37*
G36*
X65073Y114612D02*
G01X64356D01*
X64341Y114627D01*
X65088D01*
G37*
G36*
X64905Y114443D02*
G01X64525D01*
X64494Y114474D01*
X64935D01*
G37*
G36*
X64831Y114402D02*
G01X64628D01*
X64568Y114463D01*
X64831D01*
G37*
G36*
X65041Y114580D02*
G01X64388D01*
X64373Y114595D01*
X65056D01*
G37*
G36*
X64873Y114411D02*
G01X64557D01*
X64526Y114442D01*
X64903D01*
G37*
G54D245*
X70764Y81884D03*
Y91109D03*
G36*
X70617Y103698D02*
G01X70886D01*
X70947Y103637D01*
X70557D01*
G37*
G36*
X70595Y103675D02*
G01X70894D01*
X70925Y103644D01*
X70595D01*
G37*
G36*
X70434Y103506D02*
G01X71063D01*
X71078Y103491D01*
X70434D01*
G37*
G36*
X70617Y103698D02*
G01X70886D01*
X70947Y103637D01*
X70557D01*
G37*
G36*
X70402Y103474D02*
G01X71095D01*
X71110Y103459D01*
X70402D01*
G37*
G36*
X70562Y103643D02*
G01X70926D01*
X70956Y103612D01*
X70562D01*
G37*
G36*
X70650Y103730D02*
G01X70854D01*
X70915Y103669D01*
X70589D01*
G37*
G36*
X70434Y103506D02*
G01X71063D01*
X71078Y103491D01*
X70434D01*
G37*
G36*
X70595Y103675D02*
G01X70894D01*
X70925Y103644D01*
X70595D01*
G37*
G54D64*
X70764Y103804D03*
G54D514*
X70752Y103824D03*
G54D513*
Y103825D03*
G54D468*
D03*
G54D512*
Y103824D03*
G54D511*
Y103825D03*
G54D468*
D03*
G54D512*
Y103824D03*
G54D511*
Y103825D03*
G54D469*
D03*
G54D468*
D03*
G54D513*
D03*
G54D514*
Y103824D03*
G54D164*
X70764Y133854D03*
Y134933D03*
G54D235*
Y137026D03*
G54D240*
Y146252D03*
G54D17*
X70796Y155460D03*
Y156249D03*
G36*
X70916Y103951D02*
G01X70617D01*
X70557Y104012D01*
X70916D01*
G37*
G36*
X70894Y103974D02*
G01X70610D01*
X70579Y104005D01*
X70925D01*
G37*
G36*
X71063Y104143D02*
G01X70441D01*
X70426Y104158D01*
X71078D01*
G37*
G36*
X70916Y103951D02*
G01X70617D01*
X70557Y104012D01*
X70916D01*
G37*
G36*
X71095Y104175D02*
G01X70409D01*
X70394Y104190D01*
X71110D01*
G37*
G36*
X70926Y104006D02*
G01X70577D01*
X70547Y104037D01*
X70956D01*
G37*
G36*
X70884Y103919D02*
G01X70650D01*
X70589Y103980D01*
X70884D01*
G37*
G36*
X71063Y104143D02*
G01X70441D01*
X70426Y104158D01*
X71078D01*
G37*
G36*
X70894Y103974D02*
G01X70610D01*
X70579Y104005D01*
X70925D01*
G37*
G36*
X77443Y60214D02*
G01X77727D01*
X77758Y60184D01*
X77443D01*
G37*
G36*
X77282Y60046D02*
G01X77896D01*
X77911Y60030D01*
X77282D01*
G37*
G36*
X77483Y60222D02*
G01X77702D01*
X77763Y60162D01*
X77422D01*
G37*
G36*
X77411Y60182D02*
G01X77759D01*
X77790Y60151D01*
X77411D01*
G37*
G36*
X77250Y60013D02*
G01X77928D01*
X77943Y59998D01*
X77250D01*
G37*
G36*
X77282Y60046D02*
G01X77896D01*
X77911Y60030D01*
X77282D01*
G37*
G36*
X77443Y60214D02*
G01X77727D01*
X77758Y60184D01*
X77443D01*
G37*
G54D188*
X77606Y60334D03*
D03*
G54D518*
X77593Y60340D03*
G54D517*
D03*
G54D470*
D03*
G54D516*
D03*
G54D515*
Y60341D03*
G54D470*
Y60340D03*
G54D516*
D03*
G54D515*
Y60341D03*
G54D470*
Y60340D03*
G54D471*
D03*
G54D517*
D03*
G54D518*
D03*
G54D188*
X85657Y119099D03*
G54D522*
X85650Y119098D03*
G54D521*
D03*
G54D472*
D03*
G54D520*
D03*
G54D519*
D03*
G54D472*
D03*
G54D520*
D03*
G54D519*
D03*
G54D473*
Y119099D03*
G54D472*
Y119098D03*
G54D521*
D03*
G54D522*
D03*
G54D314*
X88716Y144681D03*
G54D334*
Y146646D03*
G36*
X88688Y108018D02*
G01X88766D01*
Y107439D01*
X88688D01*
Y108018D01*
G37*
G36*
D02*
G01X88766D01*
Y107439D01*
X88688D01*
Y108018D01*
G37*
G36*
X88685Y117879D02*
G01X88763D01*
Y117300D01*
X88685D01*
Y117879D01*
G37*
G36*
X102017Y55767D02*
G01X102296D01*
X102327Y55737D01*
X102017D01*
G37*
G36*
X101855Y55598D02*
G01X102465D01*
X102480Y55583D01*
X101855D01*
G37*
G36*
X101823Y55566D02*
G01X102497D01*
X102512Y55551D01*
X101823D01*
G37*
G36*
X101984Y55735D02*
G01X102328D01*
X102359Y55705D01*
X101984D01*
G37*
G36*
X102053Y55788D02*
G01X102275D01*
X102336Y55727D01*
X101992D01*
G37*
G36*
X101855Y55598D02*
G01X102465D01*
X102480Y55583D01*
X101855D01*
G37*
G36*
X102017Y55767D02*
G01X102296D01*
X102327Y55737D01*
X102017D01*
G37*
G54D65*
X102160Y55906D03*
G54D62*
D03*
G54D537*
X102164Y55900D03*
G54D536*
D03*
G54D482*
D03*
G54D535*
D03*
G54D534*
D03*
G54D482*
D03*
G54D535*
D03*
G54D483*
D03*
G54D482*
D03*
G54D534*
D03*
G54D536*
D03*
G54D537*
D03*
G36*
X11469Y56045D02*
G01Y55766D01*
X11438D01*
Y56075D01*
G37*
G36*
X11300Y56214D02*
G01Y55604D01*
X11285D01*
Y56229D01*
G37*
G36*
X11469Y56045D02*
G01Y55766D01*
X11438D01*
Y56075D01*
G37*
G36*
X11300Y56214D02*
G01Y55604D01*
X11285D01*
Y56229D01*
G37*
G36*
X11268Y56246D02*
G01Y55572D01*
X11253D01*
Y56261D01*
G37*
G36*
X11437Y56078D02*
G01Y55734D01*
X11406D01*
Y56108D01*
G37*
G36*
X11490Y56025D02*
G01Y55801D01*
X11429Y55740D01*
Y56086D01*
G37*
G36*
X11454Y55781D02*
G01X11734D01*
X11764Y55750D01*
X11454D01*
G37*
G36*
X11292Y55612D02*
G01X11903D01*
X11918Y55597D01*
X11292D01*
G37*
G36*
X11490Y55801D02*
G01X11713D01*
X11774Y55740D01*
X11429D01*
G37*
G36*
X11422Y55749D02*
G01X11766D01*
X11796Y55718D01*
X11422D01*
G37*
G36*
X11260Y55580D02*
G01X11935D01*
X11950Y55565D01*
X11260D01*
G37*
G36*
X11292Y55612D02*
G01X11903D01*
X11918Y55597D01*
X11292D01*
G37*
G36*
X11454Y55781D02*
G01X11734D01*
X11764Y55750D01*
X11454D01*
G37*
G54D63*
X11595Y55906D03*
G54D544*
X11601Y55913D03*
G54D543*
D03*
G54D484*
D03*
G54D542*
D03*
G54D541*
D03*
G54D484*
D03*
G54D542*
D03*
G54D541*
D03*
G54D485*
D03*
G54D484*
D03*
G54D543*
D03*
G54D544*
D03*
G36*
X11734Y56045D02*
G01X11469D01*
X11438Y56075D01*
X11764D01*
G37*
G36*
X11903Y56214D02*
G01X11300D01*
X11285Y56229D01*
X11918D01*
G37*
G36*
X11743Y56025D02*
G01X11490D01*
X11429Y56086D01*
X11743D01*
G37*
G36*
X11766Y56078D02*
G01X11437D01*
X11406Y56108D01*
X11796D01*
G37*
G36*
X11935Y56246D02*
G01X11268D01*
X11253Y56261D01*
X11950D01*
G37*
G36*
X11903Y56214D02*
G01X11300D01*
X11285Y56229D01*
X11918D01*
G37*
G36*
X11734Y56045D02*
G01X11469D01*
X11438Y56075D01*
X11764D01*
G37*
G36*
X11862Y157625D02*
G01X12128D01*
X12159Y157594D01*
X11862D01*
G37*
G36*
X11701Y157456D02*
G01X12297D01*
X12312Y157441D01*
X11701D01*
G37*
G36*
X11884Y157631D02*
G01X12121D01*
X12182Y157570D01*
X11824D01*
G37*
G36*
X11830Y157591D02*
G01X12160D01*
X12191Y157560D01*
X11830D01*
G37*
G36*
X11668Y157422D02*
G01X12329D01*
X12344Y157407D01*
X11668D01*
G37*
G36*
X11701Y157456D02*
G01X12297D01*
X12312Y157441D01*
X11701D01*
G37*
G36*
X11862Y157625D02*
G01X12128D01*
X12159Y157594D01*
X11862D01*
G37*
G54D64*
X11997Y157738D03*
G54D548*
X12003Y157750D03*
G54D547*
D03*
G54D486*
D03*
G54D546*
D03*
G54D545*
D03*
G54D486*
D03*
G54D546*
D03*
G54D545*
D03*
G54D486*
D03*
G54D487*
D03*
G54D547*
D03*
G54D548*
D03*
G36*
X12128Y157876D02*
G01X11877D01*
X11847Y157907D01*
X12159D01*
G37*
G36*
X12297Y158043D02*
G01X11708D01*
X11693Y158058D01*
X12312D01*
G37*
G36*
X12152Y157868D02*
G01X11884D01*
X11824Y157929D01*
X12152D01*
G37*
G36*
X12160Y157908D02*
G01X11845D01*
X11814Y157939D01*
X12191D01*
G37*
G36*
X12329Y158077D02*
G01X11676D01*
X11661Y158092D01*
X12344D01*
G37*
G36*
X12297Y158043D02*
G01X11708D01*
X11693Y158058D01*
X12312D01*
G37*
G36*
X12128Y157876D02*
G01X11877D01*
X11847Y157907D01*
X12159D01*
G37*
G36*
X46739Y126970D02*
G01X46952D01*
X47012Y126909D01*
X46678D01*
G37*
G36*
X46660Y126899D02*
G01X47016D01*
X47046Y126868D01*
X46660D01*
G37*
G36*
X46499Y126730D02*
G01X47184D01*
X47199Y126715D01*
X46499D01*
G37*
G36*
X46739Y126970D02*
G01X46952D01*
X47012Y126909D01*
X46678D01*
G37*
G36*
X46467Y126698D02*
G01X47216D01*
X47231Y126683D01*
X46467D01*
G37*
G36*
X46628Y126867D02*
G01X47048D01*
X47078Y126836D01*
X46628D01*
G37*
G36*
X46771Y127002D02*
G01X46919D01*
X46980Y126941D01*
X46711D01*
G37*
G36*
X46499Y126730D02*
G01X47184D01*
X47199Y126715D01*
X46499D01*
G37*
G36*
X46660Y126899D02*
G01X47016D01*
X47046Y126868D01*
X46660D01*
G37*
G54D188*
X46854Y127068D03*
G54D552*
X46845Y127073D03*
G54D551*
D03*
G54D488*
Y127072D03*
G54D550*
Y127073D03*
G54D549*
D03*
G54D488*
Y127072D03*
G54D550*
Y127073D03*
G54D549*
D03*
G54D489*
Y127072D03*
G54D488*
D03*
G54D551*
Y127073D03*
G54D552*
D03*
G54D439*
X53456Y118753D03*
G54D432*
Y117674D03*
Y115855D03*
D03*
G54D439*
Y114776D03*
G54D432*
Y113198D03*
Y112119D03*
G36*
X53322Y119801D02*
G01X53558D01*
X53619Y119740D01*
X53261D01*
G37*
G36*
X53267Y119761D02*
G01X53598D01*
X53629Y119730D01*
X53267D01*
G37*
G36*
X53106Y119591D02*
G01X53767D01*
X53782Y119576D01*
X53106D01*
G37*
G36*
X53322Y119801D02*
G01X53558D01*
X53619Y119740D01*
X53261D01*
G37*
G36*
X53354Y119833D02*
G01X53526D01*
X53587Y119772D01*
X53293D01*
G37*
G36*
X53234Y119729D02*
G01X53631D01*
X53661Y119698D01*
X53234D01*
G37*
G36*
X53074Y119559D02*
G01X53799D01*
X53814Y119544D01*
X53074D01*
G37*
G36*
X53106Y119591D02*
G01X53767D01*
X53782Y119576D01*
X53106D01*
G37*
G36*
X53267Y119761D02*
G01X53598D01*
X53629Y119730D01*
X53267D01*
G37*
G54D64*
X53456Y119904D03*
G54D556*
X53440Y119919D03*
G54D555*
D03*
G54D490*
Y119918D03*
G54D554*
D03*
G54D553*
Y119919D03*
G54D490*
Y119918D03*
G54D554*
D03*
G54D553*
Y119919D03*
G54D490*
Y119918D03*
G54D491*
Y119919D03*
G54D555*
D03*
G54D556*
D03*
G54D95*
X53480Y131496D03*
G36*
X53588Y120036D02*
G01X53322D01*
X53261Y120097D01*
X53588D01*
G37*
G36*
X53598Y120076D02*
G01X53282D01*
X53251Y120107D01*
X53629D01*
G37*
G36*
X53767Y120245D02*
G01X53113D01*
X53098Y120260D01*
X53782D01*
G37*
G36*
X53588Y120036D02*
G01X53322D01*
X53261Y120097D01*
X53588D01*
G37*
G36*
X53556Y120004D02*
G01X53354D01*
X53293Y120065D01*
X53556D01*
G37*
G36*
X53631Y120109D02*
G01X53249D01*
X53219Y120140D01*
X53661D01*
G37*
G36*
X53799Y120277D02*
G01X53081D01*
X53066Y120292D01*
X53814D01*
G37*
G36*
X53767Y120245D02*
G01X53113D01*
X53098Y120260D01*
X53782D01*
G37*
G36*
X53598Y120076D02*
G01X53282D01*
X53251Y120107D01*
X53629D01*
G37*
G36*
X96008Y107789D02*
G01X96235D01*
X96296Y107728D01*
X95947D01*
G37*
G36*
X95943Y107754D02*
G01X96285D01*
X96315Y107723D01*
X95943D01*
G37*
G36*
X95782Y107585D02*
G01X96453D01*
X96468Y107570D01*
X95782D01*
G37*
G36*
X95750Y107553D02*
G01X96486D01*
X96501Y107538D01*
X95750D01*
G37*
G36*
X95911Y107722D02*
G01X96317D01*
X96347Y107691D01*
X95911D01*
G37*
G36*
X95782Y107585D02*
G01X96453D01*
X96468Y107570D01*
X95782D01*
G37*
G36*
X95943Y107754D02*
G01X96285D01*
X96315Y107723D01*
X95943D01*
G37*
G36*
X96008Y107789D02*
G01X96235D01*
X96296Y107728D01*
X95947D01*
G37*
G36*
X96235Y107789D02*
G01Y108061D01*
X96296D01*
Y107728D01*
G37*
G54D563*
X96122Y107910D03*
G54D562*
X96121D03*
G54D493*
D03*
G54D561*
D03*
G54D560*
D03*
G54D493*
D03*
G54D494*
D03*
G54D560*
D03*
G54D561*
D03*
G54D493*
D03*
G54D562*
D03*
G54D563*
X96122D03*
G36*
X96235Y107789D02*
G01Y108061D01*
X96296D01*
Y107728D01*
G37*
G54D164*
X96122Y154623D03*
G54D166*
Y155702D03*
D03*
G36*
X96285Y108065D02*
G01X95958D01*
X95928Y108096D01*
X96315D01*
G37*
G36*
X96453Y108234D02*
G01X95789D01*
X95774Y108249D01*
X96468D01*
G37*
G36*
X96486Y108266D02*
G01X95757D01*
X95742Y108281D01*
X96501D01*
G37*
G36*
X96317Y108097D02*
G01X95926D01*
X95896Y108128D01*
X96347D01*
G37*
G36*
X96453Y108234D02*
G01X95789D01*
X95774Y108249D01*
X96468D01*
G37*
G36*
X96285Y108065D02*
G01X95958D01*
X95928Y108096D01*
X96315D01*
G37*
G36*
X67801Y72931D02*
G01Y72679D01*
X67771D01*
Y72962D01*
G37*
G36*
X67632Y73100D02*
G01Y72517D01*
X67617D01*
Y73115D01*
G37*
G36*
X67600Y73132D02*
G01Y72485D01*
X67585D01*
Y73147D01*
G37*
G36*
X67769Y72964D02*
G01Y72647D01*
X67738D01*
Y72994D01*
G37*
G36*
X67632Y73100D02*
G01Y72517D01*
X67617D01*
Y73115D01*
G37*
G36*
X67801Y72931D02*
G01Y72679D01*
X67771D01*
Y72962D01*
G37*
G54D63*
X67946Y72811D03*
G54D510*
X67936Y72813D03*
G54D509*
D03*
G54D466*
Y72812D03*
G54D508*
D03*
G54D510*
Y72813D03*
G54D509*
D03*
G54D466*
Y72812D03*
G54D508*
D03*
G54D507*
X67935Y72813D03*
G54D467*
D03*
G54D466*
X67936Y72812D03*
G36*
X67753Y72822D02*
G01X68117D01*
Y72792D01*
X67753D01*
G37*
G54D507*
X67935Y72813D03*
G36*
X68070Y72694D02*
G01Y72931D01*
X68101Y72962D01*
Y72663D01*
G37*
G36*
X68239Y72525D02*
G01Y73100D01*
X68254Y73115D01*
Y72510D01*
G37*
G36*
X68271Y72493D02*
G01Y73132D01*
X68286Y73147D01*
Y72478D01*
G37*
G36*
X68102Y72662D02*
G01Y72964D01*
X68133Y72994D01*
Y72631D01*
G37*
G36*
X68239Y72525D02*
G01Y73100D01*
X68254Y73115D01*
Y72510D01*
G37*
G36*
X68070Y72694D02*
G01Y72931D01*
X68101Y72962D01*
Y72663D01*
G37*
G54D301*
X87665Y139892D03*
X88156D03*
G54D274*
X87911Y140053D03*
G36*
X87906Y139654D02*
G01X87914D01*
Y139889D01*
X87906D01*
Y139654D01*
G37*
G54D476*
X87911Y139772D03*
G54D524*
Y139770D03*
G54D527*
X87910D03*
G36*
X87899Y139630D02*
G01Y139913D01*
X87906D01*
Y139630D01*
G37*
G54D476*
X87911Y139772D03*
G54D524*
Y139770D03*
G54D476*
Y139772D03*
G36*
X87906Y139654D02*
G01X87914D01*
Y139889D01*
X87906D01*
Y139654D01*
G37*
G54D527*
X87910Y139770D03*
G54D302*
X88076Y141212D03*
X87585D03*
G54D273*
X87830Y141052D03*
G36*
X87826Y141217D02*
G01X87834D01*
Y141450D01*
X87826D01*
Y141217D01*
G37*
G54D475*
X87830Y141333D03*
G54D526*
D03*
G54D525*
D03*
G36*
X87818Y141192D02*
G01Y141474D01*
X87825D01*
Y141192D01*
G37*
G54D475*
X87830Y141333D03*
G54D525*
D03*
G54D526*
D03*
G54D475*
D03*
G36*
X87826Y141217D02*
G01X87834D01*
Y141450D01*
X87826D01*
Y141217D01*
G37*
G54D302*
X89847Y141212D03*
X89356D03*
G54D273*
X89601Y141052D03*
G54D192*
X91513Y140834D03*
G54D191*
Y141236D03*
Y141638D03*
G36*
X89597Y141217D02*
G01X89605D01*
Y141450D01*
X89597D01*
Y141217D01*
G37*
G54D475*
X89601Y141333D03*
G54D530*
D03*
G54D527*
D03*
G36*
X89589Y141192D02*
G01Y141474D01*
X89597D01*
Y141192D01*
G37*
G54D475*
X89601Y141333D03*
G54D527*
D03*
G54D530*
D03*
G54D475*
D03*
G36*
X89597Y141217D02*
G01X89605D01*
Y141450D01*
X89597D01*
Y141217D01*
G37*
G54D191*
X91513Y142041D03*
G54D420*
X97434Y107829D03*
G54D301*
X98533Y136511D03*
X99024D03*
G54D274*
X98778Y136672D03*
G36*
X98775Y136274D02*
G01X98783D01*
Y136506D01*
X98775D01*
Y136274D01*
G37*
G54D476*
X98778Y136390D03*
G54D524*
D03*
G36*
X98775Y136274D02*
G01X98783D01*
Y136506D01*
X98775D01*
Y136274D01*
G37*
G54D476*
X98778Y136390D03*
G54D524*
D03*
G54D527*
X98779D03*
G36*
X98766Y136249D02*
G01Y136530D01*
X98774D01*
Y136249D01*
G37*
G54D476*
X98778Y136390D03*
G54D527*
X98779D03*
G54D373*
X100872Y134570D03*
Y136310D03*
G54D305*
X101118Y132808D03*
G54D306*
X100626D03*
G54D275*
X100872Y132969D03*
G36*
X100868Y132570D02*
G01X100876D01*
Y132804D01*
X100868D01*
Y132570D01*
G37*
G54D481*
X100872Y132687D03*
G54D532*
Y132686D03*
G54D533*
D03*
G36*
X100860Y132546D02*
G01Y132828D01*
X100867D01*
Y132546D01*
G37*
G54D481*
X100872Y132687D03*
G54D533*
Y132686D03*
G54D532*
D03*
G54D481*
Y132687D03*
G36*
X100868Y132570D02*
G01X100876D01*
Y132804D01*
X100868D01*
Y132570D01*
G37*
G54D305*
X102647Y132808D03*
X102156D03*
G54D276*
X102401Y132969D03*
G36*
X102398Y132570D02*
G01X102406D01*
Y132804D01*
X102398D01*
Y132570D01*
G37*
G54D481*
X102401Y132687D03*
G54D539*
Y132686D03*
G54D481*
Y132687D03*
G36*
X102390Y132546D02*
G01Y132828D01*
X102397D01*
Y132546D01*
G37*
G54D540*
X102401Y132686D03*
G54D539*
D03*
G54D481*
Y132687D03*
G36*
X102398Y132570D02*
G01X102406D01*
Y132804D01*
X102398D01*
Y132570D01*
G37*
G54D540*
X102401Y132686D03*
G54D370*
X99020Y142991D03*
G54D306*
X101278Y142950D03*
X100787D03*
G54D275*
X101033Y143111D03*
G54D29*
X97329Y143248D03*
G36*
X101029Y142714D02*
G01X101037D01*
Y142946D01*
X101029D01*
Y142714D01*
G37*
G54D479*
X101033Y142830D03*
G54D558*
D03*
G54D557*
X101032D03*
G36*
X101021Y142689D02*
G01Y142970D01*
X101028D01*
Y142689D01*
G37*
G54D479*
X101033Y142830D03*
G54D557*
X101032D03*
G54D558*
X101033D03*
G54D479*
D03*
G36*
X101029Y142714D02*
G01X101037D01*
Y142946D01*
X101029D01*
Y142714D01*
G37*
G54D66*
X15217Y85933D03*
X13607D03*
G54D17*
X25199D03*
X23589D03*
X18759D03*
X17149D03*
G54D72*
X13607Y95593D03*
X15217D03*
G54D68*
X11997D03*
G54D17*
X25199D03*
X23589D03*
X18759D03*
X17149D03*
G36*
X11884Y157868D02*
G01Y157631D01*
X11824Y157570D01*
Y157929D01*
G37*
G36*
X11845Y157908D02*
G01Y157576D01*
X11814D01*
Y157939D01*
G37*
G36*
X11676Y158077D02*
G01Y157414D01*
X11661D01*
Y158092D01*
G37*
G36*
X11708Y158043D02*
G01Y157449D01*
X11693D01*
Y158058D01*
G37*
G36*
X11877Y157876D02*
G01Y157610D01*
X11847D01*
Y157907D01*
G37*
G36*
X11708Y158043D02*
G01Y157449D01*
X11693D01*
Y158058D01*
G37*
G36*
X11877Y157876D02*
G01Y157610D01*
X11847D01*
Y157907D01*
G37*
G54D17*
X10709Y116523D03*
Y115718D03*
Y114913D03*
Y114108D03*
Y113303D03*
Y112498D03*
Y111693D03*
Y110888D03*
X23589Y117328D03*
X25199D03*
X18759D03*
X14090D03*
X17149D03*
G54D16*
X12319D03*
G54D17*
X10709Y122963D03*
Y122158D03*
Y121353D03*
Y120548D03*
Y119743D03*
Y118938D03*
Y118132D03*
Y117328D03*
D03*
Y123768D03*
G54D69*
Y124573D03*
G54D17*
Y131818D03*
Y131012D03*
Y130208D03*
D03*
Y129403D03*
Y128598D03*
Y127793D03*
Y132622D03*
Y133428D03*
Y139062D03*
D03*
Y138258D03*
Y137453D03*
Y136648D03*
Y135842D03*
Y135038D03*
Y134233D03*
Y139866D03*
G54D69*
Y151942D03*
G54D17*
Y151138D03*
Y150333D03*
Y149528D03*
Y148722D03*
Y147918D03*
Y147113D03*
Y140673D03*
Y141478D03*
Y142282D03*
Y143088D03*
Y143892D03*
Y144698D03*
Y145502D03*
Y146308D03*
G54D81*
X15217Y156370D03*
G36*
X12121Y157631D02*
G01Y157898D01*
X12182D01*
Y157570D01*
G37*
G36*
X12160Y157591D02*
G01Y157908D01*
X12191Y157939D01*
Y157560D01*
G37*
G36*
X12329Y157422D02*
G01Y158077D01*
X12344Y158092D01*
Y157407D01*
G37*
G36*
X12297Y157456D02*
G01Y158043D01*
X12312Y158058D01*
Y157441D01*
G37*
G36*
X12128Y157625D02*
G01Y157876D01*
X12159Y157907D01*
Y157594D01*
G37*
G36*
X12297Y157456D02*
G01Y158043D01*
X12312Y158058D01*
Y157441D01*
G37*
G36*
X12128Y157625D02*
G01Y157876D01*
X12159Y157907D01*
Y157594D01*
G37*
G54D17*
X27534Y149528D03*
X25199D03*
X23589D03*
X18759D03*
G54D16*
X12319D03*
G54D17*
X14090D03*
X17149D03*
X23589Y140673D03*
X25199D03*
X18759D03*
G54D18*
X15217D03*
G54D17*
X17149D03*
G54D16*
X12319D03*
G54D71*
X14090Y143893D03*
G54D17*
Y146308D03*
G54D16*
X12319D03*
Y145502D03*
Y144698D03*
Y143892D03*
Y143088D03*
Y141478D03*
Y142282D03*
G54D17*
X14090Y145502D03*
Y144698D03*
Y135038D03*
G54D16*
X12319D03*
Y135842D03*
Y136648D03*
Y137453D03*
Y138258D03*
Y139062D03*
Y139866D03*
Y134233D03*
Y127793D03*
Y128598D03*
Y129403D03*
Y130208D03*
Y131012D03*
Y131818D03*
Y132622D03*
Y133428D03*
G54D71*
X14090Y127793D03*
G54D17*
Y131818D03*
Y132622D03*
Y133428D03*
Y134233D03*
Y131012D03*
Y130208D03*
Y129403D03*
Y128598D03*
G54D16*
X12319Y124573D03*
Y118132D03*
Y118938D03*
Y119743D03*
Y120548D03*
Y121353D03*
Y122158D03*
Y122963D03*
Y123768D03*
G54D71*
X15217Y118133D03*
G54D18*
Y122158D03*
Y122963D03*
Y123768D03*
Y124573D03*
Y125378D03*
Y121353D03*
Y120548D03*
Y119743D03*
Y118938D03*
G54D69*
X11997Y105253D03*
G54D17*
Y102838D03*
Y102033D03*
Y101228D03*
Y100423D03*
Y99618D03*
Y98008D03*
Y98813D03*
Y99618D03*
Y103643D03*
Y104448D03*
G54D362*
X14412Y102532D03*
Y104271D03*
G54D17*
X11997Y94788D03*
Y93983D03*
Y93178D03*
Y92373D03*
Y91568D03*
Y90763D03*
Y89958D03*
Y89153D03*
Y88348D03*
G54D16*
X13607D03*
D03*
Y89153D03*
Y93983D03*
Y94788D03*
D03*
Y93178D03*
Y92373D03*
Y91568D03*
Y90763D03*
Y89958D03*
G54D18*
X15217Y88348D03*
Y93983D03*
Y94788D03*
Y93178D03*
Y92373D03*
Y91568D03*
Y90763D03*
Y89958D03*
Y89153D03*
G54D66*
Y76273D03*
D03*
G54D18*
Y72248D03*
Y73053D03*
Y73858D03*
Y74663D03*
Y75468D03*
Y78688D03*
Y82713D03*
Y83518D03*
Y84323D03*
Y85128D03*
Y81908D03*
Y81103D03*
Y80298D03*
Y79493D03*
G54D66*
X13607Y76273D03*
G54D67*
X11997D03*
G54D16*
X13607Y72248D03*
D03*
Y73053D03*
Y73858D03*
G54D17*
X11997Y75468D03*
Y74663D03*
Y73858D03*
Y73053D03*
Y72248D03*
G54D16*
X13607Y75468D03*
Y74663D03*
Y78688D03*
Y82713D03*
Y83518D03*
Y84323D03*
Y85128D03*
Y81908D03*
Y81103D03*
Y80298D03*
D03*
Y79493D03*
G54D17*
X23589Y78688D03*
X25199D03*
X18759D03*
X17149D03*
G54D279*
X25348Y58833D03*
X25670Y58132D03*
G54D280*
X25026D03*
G54D281*
X25348Y57303D03*
G54D282*
X25026Y56603D03*
G54D283*
X25670D03*
G54D82*
X13527Y57355D03*
G54D29*
X27695Y59666D03*
Y60197D03*
G36*
X11734Y55781D02*
G01Y56045D01*
X11764Y56075D01*
Y55750D01*
G37*
G36*
X11903Y55612D02*
G01Y56214D01*
X11918Y56229D01*
Y55597D01*
G37*
G36*
X11734Y55781D02*
G01Y56045D01*
X11764Y56075D01*
Y55750D01*
G37*
G36*
X11903Y55612D02*
G01Y56214D01*
X11918Y56229D01*
Y55597D01*
G37*
G36*
X11713Y55801D02*
G01Y56055D01*
X11774D01*
Y55740D01*
G37*
G36*
X11935Y55580D02*
G01Y56246D01*
X11950Y56261D01*
Y55565D01*
G37*
G36*
X11766Y55749D02*
G01Y56078D01*
X11796Y56108D01*
Y55718D01*
G37*
G54D16*
X13607Y70638D03*
Y71443D03*
G54D17*
X11997Y69028D03*
Y69833D03*
Y70638D03*
Y71443D03*
G54D16*
X13607Y69833D03*
Y69028D03*
G54D17*
X17149Y72248D03*
Y73053D03*
Y73858D03*
Y74663D03*
Y75468D03*
Y76273D03*
Y77078D03*
Y77883D03*
Y88348D03*
Y89153D03*
Y89958D03*
Y90763D03*
Y91568D03*
Y92373D03*
Y94788D03*
Y93983D03*
Y93178D03*
Y87543D03*
Y86738D03*
X23589Y101228D03*
X25199D03*
X18759D03*
X17149D03*
G54D71*
X14090Y110083D03*
G54D17*
Y113303D03*
G54D16*
X12319D03*
Y112498D03*
Y111693D03*
Y110888D03*
G54D17*
X14090Y113303D03*
Y112498D03*
Y111693D03*
Y110888D03*
Y114108D03*
Y114913D03*
Y115718D03*
Y116523D03*
G54D16*
X12319D03*
Y115718D03*
Y114913D03*
Y114108D03*
G54D70*
X17149Y124573D03*
G54D17*
Y118938D03*
Y119743D03*
Y120548D03*
Y121353D03*
Y122158D03*
Y123768D03*
D03*
Y122963D03*
Y118132D03*
Y131818D03*
Y132622D03*
Y133428D03*
Y134233D03*
Y131012D03*
Y130208D03*
Y129403D03*
Y128598D03*
Y127793D03*
G54D71*
X15217Y135038D03*
G54D18*
Y136648D03*
Y137453D03*
Y138258D03*
Y139062D03*
Y139866D03*
Y135842D03*
D03*
G54D17*
X25199Y141478D03*
X23589D03*
Y142282D03*
X25199D03*
Y143088D03*
X23589D03*
X17149Y142282D03*
Y143088D03*
G54D18*
X15217Y142282D03*
Y141478D03*
G54D17*
X17149D03*
X18759D03*
Y142282D03*
Y143088D03*
G54D69*
X27534Y143893D03*
G54D17*
X23589Y143892D03*
X25199D03*
X17149D03*
X18759D03*
G54D70*
X17149Y151942D03*
G54D17*
X14090Y150333D03*
X17149D03*
G54D16*
X12319D03*
Y151138D03*
Y151942D03*
G54D17*
X14090Y151138D03*
X17149D03*
X18759Y150333D03*
Y151138D03*
Y151942D03*
G54D71*
X23589D03*
G54D17*
Y150333D03*
X25199Y151942D03*
X23589Y151138D03*
X25199D03*
X27534D03*
Y150333D03*
D03*
X25199D03*
X14090Y147918D03*
Y148722D03*
X17149D03*
G54D16*
X12319Y147113D03*
Y147918D03*
Y148722D03*
D03*
G54D17*
X17149Y147918D03*
Y147113D03*
X14090D03*
X18759D03*
Y147918D03*
Y148722D03*
X23589Y147113D03*
X25199D03*
X27534D03*
Y147918D03*
X25199D03*
X27534Y148722D03*
X25199D03*
X23589D03*
Y147918D03*
X18759Y146308D03*
Y145502D03*
Y144698D03*
X17149Y146308D03*
Y145502D03*
D03*
Y144698D03*
X23589Y146308D03*
X25199D03*
X27534D03*
Y145502D03*
X25199D03*
X23589D03*
Y144698D03*
X25199D03*
X27534D03*
D03*
X25199Y135038D03*
X23589D03*
D03*
Y135842D03*
X25199D03*
Y136648D03*
X23589D03*
X18759D03*
Y135842D03*
Y135038D03*
X17149D03*
Y135842D03*
Y136648D03*
X23589Y137453D03*
X25199D03*
X17149D03*
X18759D03*
D03*
X25199Y138258D03*
X23589D03*
Y139062D03*
X25199D03*
X17149Y139866D03*
Y139062D03*
Y138258D03*
X18759D03*
Y139062D03*
Y139866D03*
X23589D03*
X25199D03*
X18759Y133428D03*
Y132622D03*
Y131818D03*
Y131012D03*
Y130208D03*
Y129403D03*
Y128598D03*
Y127793D03*
Y134233D03*
X23589Y127793D03*
Y131818D03*
Y132622D03*
Y133428D03*
Y134233D03*
Y131012D03*
Y130208D03*
Y129403D03*
Y128598D03*
X25199Y131818D03*
Y132622D03*
Y133428D03*
Y134233D03*
Y131012D03*
Y130208D03*
Y129403D03*
Y128598D03*
Y127793D03*
X18759Y123768D03*
Y122963D03*
Y122158D03*
Y121353D03*
Y120548D03*
Y119743D03*
Y118938D03*
Y118132D03*
Y124573D03*
G54D71*
X23589D03*
G54D17*
Y122158D03*
Y122963D03*
D03*
Y123768D03*
Y121353D03*
Y120548D03*
Y119743D03*
Y118938D03*
Y118132D03*
X25199D03*
Y122158D03*
Y122963D03*
Y123768D03*
Y124573D03*
Y121353D03*
Y120548D03*
Y119743D03*
Y118938D03*
X18759Y116523D03*
D03*
Y115718D03*
Y114913D03*
Y114108D03*
X17149Y116523D03*
Y115718D03*
Y114913D03*
Y114108D03*
X23589Y116523D03*
X25199D03*
Y115718D03*
X23589D03*
Y114913D03*
X25199D03*
Y114108D03*
X23589D03*
X18759Y113303D03*
Y112498D03*
Y111693D03*
Y110888D03*
X17149D03*
Y111693D03*
Y112498D03*
Y113303D03*
X23589D03*
D03*
X25199D03*
Y112498D03*
X23589D03*
Y111693D03*
X25199D03*
Y110888D03*
X23589D03*
X25199Y102033D03*
X23589D03*
Y102838D03*
X25199D03*
Y103643D03*
X23589D03*
X17149D03*
Y102838D03*
Y102033D03*
X18759D03*
Y102838D03*
Y103643D03*
G54D364*
X27695Y103740D03*
G54D363*
X21255D03*
G54D364*
X27695Y105479D03*
G54D363*
X21255D03*
G54D17*
X23589Y104448D03*
X17149Y106058D03*
Y105253D03*
Y104448D03*
X18759D03*
Y105253D03*
Y106058D03*
X25199D03*
X23589D03*
Y105253D03*
X25199D03*
Y104448D03*
X23589Y96398D03*
X25199D03*
Y97203D03*
X23589D03*
Y98008D03*
X25199D03*
X18759D03*
Y97203D03*
Y96398D03*
X17149D03*
Y97203D03*
Y98008D03*
X25199Y98813D03*
X23589D03*
X18759D03*
X17149D03*
Y99618D03*
Y100423D03*
X18759Y99618D03*
Y100423D03*
X23589D03*
X25199D03*
D03*
Y99618D03*
X23589D03*
X18759Y90763D03*
Y89958D03*
Y89153D03*
Y88348D03*
Y87543D03*
Y86738D03*
Y91568D03*
Y92373D03*
Y93178D03*
Y93983D03*
D03*
Y94788D03*
X23589Y86738D03*
Y87543D03*
Y88348D03*
Y93983D03*
Y94788D03*
Y93178D03*
Y92373D03*
Y91568D03*
Y90763D03*
Y89958D03*
Y89153D03*
X25199Y86738D03*
Y87543D03*
Y88348D03*
Y93178D03*
Y93983D03*
Y94788D03*
Y92373D03*
Y91568D03*
Y90763D03*
D03*
Y89958D03*
Y89153D03*
Y82713D03*
X23589D03*
Y83518D03*
X25199D03*
Y84323D03*
X23589D03*
Y85128D03*
X17149Y82713D03*
Y83518D03*
Y84323D03*
Y85128D03*
X18759Y82713D03*
Y83518D03*
Y84323D03*
Y85128D03*
X25199D03*
X18759Y81908D03*
Y81103D03*
Y80298D03*
Y79493D03*
X17149D03*
Y80298D03*
Y81103D03*
Y81908D03*
X25199D03*
X23589D03*
Y81103D03*
X25199D03*
D03*
Y80298D03*
X23589D03*
Y79493D03*
X25199D03*
X18759Y77883D03*
Y77078D03*
Y76273D03*
Y75468D03*
Y74663D03*
D03*
Y73858D03*
Y73053D03*
Y72248D03*
X23589D03*
X25199D03*
Y73053D03*
X23589D03*
Y73858D03*
X25199D03*
Y74663D03*
X23589D03*
Y77883D03*
X25199D03*
Y77078D03*
X23589D03*
Y76273D03*
X25199D03*
Y75468D03*
X23589D03*
G54D81*
X15539Y64922D03*
G54D30*
X26109Y65832D03*
G54D29*
X27695D03*
G54D17*
X25199Y67418D03*
X23589D03*
X25199Y68223D03*
X23589D03*
Y69028D03*
X25199D03*
X17149Y68223D03*
G54D18*
X15217Y69028D03*
G54D17*
X17149D03*
Y67418D03*
X18759D03*
Y68223D03*
Y69028D03*
X25199Y69833D03*
X23589D03*
Y70638D03*
X25199D03*
Y71443D03*
D03*
X17149Y69833D03*
G54D18*
X15217D03*
Y71443D03*
G54D17*
X17149D03*
Y70638D03*
G54D18*
X15217D03*
G54D17*
X18759Y69833D03*
Y70638D03*
Y71443D03*
X23589D03*
G54D29*
X29281Y65832D03*
G54D17*
X30030Y73053D03*
Y72248D03*
Y71443D03*
Y70638D03*
Y67418D03*
Y68223D03*
Y69028D03*
Y69833D03*
Y73858D03*
Y80298D03*
Y79493D03*
Y78688D03*
Y77883D03*
Y77078D03*
Y76273D03*
Y75468D03*
Y74663D03*
Y81103D03*
X38080Y85933D03*
G54D16*
X36469D03*
G54D17*
X31639D03*
X30030Y87543D03*
Y86738D03*
Y85933D03*
Y85128D03*
Y84323D03*
Y83518D03*
Y82713D03*
Y81908D03*
Y88348D03*
Y94788D03*
Y93983D03*
Y93178D03*
Y92373D03*
Y91568D03*
Y90763D03*
Y89958D03*
Y89153D03*
Y95593D03*
G54D71*
Y106863D03*
G54D17*
Y110888D03*
Y106058D03*
Y105253D03*
Y104448D03*
Y103643D03*
Y102838D03*
Y96398D03*
Y97203D03*
Y98008D03*
Y98813D03*
Y99618D03*
Y100423D03*
Y101228D03*
Y102033D03*
Y117328D03*
Y116523D03*
Y115718D03*
Y114913D03*
D03*
Y111693D03*
Y112498D03*
Y113303D03*
Y114108D03*
X38080Y118132D03*
D03*
G54D16*
X36469D03*
G54D17*
X31639D03*
X38080Y126183D03*
G54D16*
X36469D03*
G54D71*
X30030Y124573D03*
G54D17*
Y123768D03*
Y122963D03*
Y122158D03*
Y121353D03*
Y120548D03*
Y119743D03*
Y118938D03*
Y118132D03*
Y133428D03*
Y132622D03*
Y131818D03*
Y131012D03*
Y130208D03*
Y129403D03*
Y128598D03*
Y127793D03*
X31639Y134233D03*
X30030Y139062D03*
Y138258D03*
Y137453D03*
Y136648D03*
D03*
Y135842D03*
Y135038D03*
Y134233D03*
Y139866D03*
G54D71*
Y151942D03*
G54D17*
Y151138D03*
Y150333D03*
Y149528D03*
Y148722D03*
Y147918D03*
Y147113D03*
Y146308D03*
Y140673D03*
Y141478D03*
Y142282D03*
Y143088D03*
Y143892D03*
Y144698D03*
Y145502D03*
D03*
X38080Y141478D03*
G54D16*
X36469D03*
G54D17*
X31639D03*
X38080Y147113D03*
X31639D03*
G54D16*
X36469D03*
G54D17*
X31639Y124573D03*
Y118938D03*
Y119743D03*
Y120548D03*
Y121353D03*
Y122158D03*
Y122963D03*
Y123768D03*
Y124573D03*
Y105253D03*
Y104448D03*
Y103643D03*
Y102838D03*
Y102033D03*
Y101228D03*
D03*
Y100423D03*
Y99618D03*
Y106058D03*
Y106863D03*
Y110888D03*
G54D387*
X34135Y109560D03*
G54D362*
Y105479D03*
Y103740D03*
G54D17*
X31639Y93178D03*
Y93983D03*
Y94788D03*
Y95593D03*
Y96398D03*
Y97203D03*
Y98008D03*
Y98813D03*
Y92373D03*
Y86738D03*
Y87543D03*
Y88348D03*
Y89153D03*
Y89958D03*
Y90763D03*
Y91568D03*
D03*
X38080Y92373D03*
Y91568D03*
Y90763D03*
Y89958D03*
Y89153D03*
Y88348D03*
Y87543D03*
Y86738D03*
G54D16*
X36469Y92373D03*
Y91568D03*
Y90763D03*
Y89958D03*
Y89153D03*
Y88348D03*
Y87543D03*
Y86738D03*
G54D17*
X31639Y73858D03*
Y74663D03*
Y75468D03*
Y76273D03*
Y77078D03*
Y77883D03*
Y78688D03*
Y79493D03*
G54D284*
X34848Y59018D03*
G54D280*
X34203D03*
G54D279*
X34526Y59718D03*
G54D287*
X34203Y60789D03*
G54D288*
X34848D03*
G54D279*
X34526Y61489D03*
G54D17*
X34457Y57919D03*
Y57114D03*
Y56309D03*
Y55504D03*
G54D16*
X36469Y73858D03*
Y74663D03*
Y75468D03*
Y76273D03*
Y77078D03*
Y77883D03*
Y78688D03*
D03*
Y79493D03*
G54D17*
X38080Y73858D03*
Y74663D03*
Y75468D03*
Y76273D03*
Y77078D03*
Y77883D03*
Y78688D03*
Y79493D03*
X31639Y80298D03*
Y81103D03*
Y81908D03*
D03*
Y82713D03*
Y83518D03*
Y84323D03*
Y85128D03*
X38080D03*
Y84323D03*
Y83518D03*
D03*
Y82713D03*
Y81908D03*
G54D16*
X36469Y85128D03*
Y84323D03*
Y83518D03*
Y82713D03*
Y81908D03*
Y81103D03*
Y80298D03*
G54D17*
X38080D03*
Y81103D03*
G54D16*
X36469Y93178D03*
Y93983D03*
Y94788D03*
Y95593D03*
Y96398D03*
Y97203D03*
Y98008D03*
D03*
Y98813D03*
G54D17*
X38080Y93178D03*
Y93983D03*
Y94788D03*
Y95593D03*
Y96398D03*
Y97203D03*
Y98008D03*
Y98813D03*
G54D71*
X36469Y106863D03*
G54D16*
Y103643D03*
Y104448D03*
Y105253D03*
Y106058D03*
Y110888D03*
Y102838D03*
Y102033D03*
Y101228D03*
Y100423D03*
Y99618D03*
G54D17*
X38080Y110888D03*
Y106863D03*
Y106058D03*
Y105253D03*
Y104448D03*
Y99618D03*
Y100423D03*
Y101228D03*
Y102033D03*
Y102838D03*
D03*
Y103643D03*
X31639Y114108D03*
Y113303D03*
Y112498D03*
Y111693D03*
Y114913D03*
Y115718D03*
Y116523D03*
Y117328D03*
X38080D03*
Y116523D03*
Y115718D03*
Y114913D03*
Y114108D03*
Y113303D03*
Y112498D03*
G54D16*
X36469Y117328D03*
Y116523D03*
Y115718D03*
Y114913D03*
Y114108D03*
Y113303D03*
Y112498D03*
Y111693D03*
G54D17*
X38080D03*
G54D16*
X36469Y120548D03*
Y121353D03*
D03*
Y122158D03*
Y122963D03*
Y123768D03*
Y124573D03*
Y125378D03*
Y119743D03*
Y118938D03*
G54D17*
X38080Y125378D03*
Y124573D03*
Y118938D03*
Y119743D03*
Y120548D03*
Y121353D03*
Y122158D03*
Y122963D03*
Y123768D03*
X31639Y127793D03*
Y128598D03*
Y129403D03*
Y130208D03*
Y131012D03*
Y131818D03*
Y132622D03*
Y133428D03*
X38080Y131818D03*
Y131012D03*
Y130208D03*
D03*
Y129403D03*
Y128598D03*
G54D16*
X36469Y131818D03*
Y131012D03*
Y130208D03*
Y129403D03*
Y128598D03*
Y127793D03*
Y126988D03*
G54D17*
X38080D03*
Y127793D03*
X31639Y135038D03*
Y135842D03*
Y136648D03*
Y137453D03*
Y138258D03*
Y139062D03*
Y139866D03*
Y140673D03*
X38080D03*
Y139866D03*
Y139062D03*
Y138258D03*
Y137453D03*
Y136648D03*
Y135842D03*
G54D16*
X36469Y140673D03*
Y139866D03*
Y139062D03*
Y138258D03*
Y137453D03*
Y136648D03*
Y135842D03*
Y135038D03*
G54D17*
X38080D03*
G54D71*
X40494Y127793D03*
G54D17*
X40495Y126988D03*
Y126183D03*
Y125378D03*
Y124573D03*
Y123768D03*
Y122963D03*
Y122158D03*
Y121353D03*
Y120548D03*
G54D83*
X39690Y156370D03*
G54D71*
X40494Y137453D03*
G54D17*
X40495Y136648D03*
Y130208D03*
Y131012D03*
Y131818D03*
Y132622D03*
Y133428D03*
Y134233D03*
Y135038D03*
Y135842D03*
X31639Y142282D03*
Y143088D03*
Y143892D03*
Y144698D03*
Y145502D03*
Y146308D03*
X38080D03*
Y145502D03*
Y144698D03*
G54D16*
X36469Y145502D03*
Y146308D03*
Y144698D03*
Y143892D03*
Y143088D03*
Y142282D03*
D03*
G54D17*
X38080D03*
Y143088D03*
Y143892D03*
D03*
G54D69*
X41300Y118133D03*
G54D17*
Y111693D03*
Y112498D03*
Y113303D03*
Y114108D03*
Y114913D03*
Y115718D03*
Y116523D03*
Y117328D03*
G54D18*
X44520Y143088D03*
Y143892D03*
Y144698D03*
Y145502D03*
Y146308D03*
Y147113D03*
Y147918D03*
Y148722D03*
G54D17*
X42910Y141478D03*
G54D73*
Y148722D03*
G54D17*
Y142282D03*
Y143088D03*
Y143892D03*
Y144698D03*
Y145502D03*
Y146308D03*
Y147113D03*
Y147918D03*
G54D18*
X44520Y135038D03*
Y136648D03*
Y137453D03*
Y138258D03*
Y139062D03*
Y139866D03*
Y140673D03*
Y141478D03*
Y142282D03*
D03*
Y135842D03*
G54D17*
X42910Y135038D03*
Y135842D03*
Y136648D03*
Y137453D03*
Y138258D03*
Y139062D03*
Y139866D03*
Y140673D03*
Y126183D03*
Y126988D03*
Y127793D03*
Y128598D03*
Y129403D03*
Y130208D03*
D03*
Y131012D03*
Y131818D03*
G54D18*
X44520Y125378D03*
Y127793D03*
Y128598D03*
Y129403D03*
Y130208D03*
Y131012D03*
Y131818D03*
Y126988D03*
Y126183D03*
G54D17*
X42910Y111693D03*
Y118132D03*
Y117328D03*
Y116523D03*
Y115718D03*
Y114913D03*
Y114108D03*
Y113303D03*
Y112498D03*
Y118938D03*
Y119743D03*
Y120548D03*
Y121353D03*
Y122158D03*
Y122963D03*
Y123768D03*
Y124573D03*
Y125378D03*
G54D18*
X44520Y117328D03*
Y116523D03*
Y115718D03*
Y114913D03*
Y114108D03*
Y113303D03*
Y112498D03*
Y111693D03*
Y118132D03*
Y118938D03*
Y119743D03*
Y120548D03*
Y121353D03*
Y122158D03*
Y122963D03*
Y123768D03*
Y124573D03*
G54D17*
X42910Y84323D03*
G54D436*
X45728Y101977D03*
G54D437*
Y103055D03*
G54D436*
Y104553D03*
G54D437*
Y105631D03*
G54D17*
X45808Y57517D03*
Y59126D03*
Y61542D03*
G54D366*
X40575Y103740D03*
D03*
G54D17*
X42910Y103643D03*
G54D366*
X40575Y105479D03*
G54D71*
X42910Y106863D03*
G54D17*
Y104448D03*
Y105253D03*
Y106058D03*
Y110888D03*
D03*
X41300D03*
G54D18*
X44520Y102838D03*
Y103643D03*
Y104448D03*
Y105253D03*
Y106058D03*
Y106863D03*
Y110888D03*
G54D17*
X42910Y85128D03*
Y85933D03*
Y86738D03*
Y87543D03*
Y88348D03*
D03*
Y89153D03*
Y89958D03*
Y96398D03*
Y95593D03*
Y94788D03*
Y93983D03*
Y93178D03*
Y92373D03*
Y91568D03*
Y90763D03*
G54D416*
X40036Y99618D03*
G54D415*
X41115D03*
G54D17*
X42910Y97203D03*
Y98008D03*
D03*
Y98813D03*
Y99618D03*
Y100423D03*
Y101228D03*
Y102033D03*
Y102838D03*
G54D18*
X44520Y95593D03*
Y96398D03*
Y97203D03*
Y98008D03*
Y98813D03*
Y99618D03*
Y100423D03*
Y101228D03*
Y102033D03*
Y88348D03*
Y89153D03*
Y89958D03*
Y90763D03*
Y91568D03*
Y92373D03*
Y93178D03*
Y93983D03*
Y94788D03*
G54D17*
X42910Y70638D03*
G54D18*
X44520Y81103D03*
Y81908D03*
Y82713D03*
Y83518D03*
Y84323D03*
Y85128D03*
Y85933D03*
Y86738D03*
Y87543D03*
G54D17*
X42910Y77078D03*
Y76273D03*
Y75468D03*
Y74663D03*
Y73858D03*
Y73053D03*
Y72248D03*
Y71443D03*
Y78688D03*
Y79493D03*
Y80298D03*
Y81103D03*
Y81908D03*
Y82713D03*
Y83518D03*
Y78688D03*
Y77883D03*
G54D29*
X44198Y64359D03*
Y62749D03*
G54D17*
X45003Y57517D03*
X44198D03*
Y59126D03*
X45003D03*
Y61542D03*
X44198D03*
G54D18*
X44520Y73053D03*
Y72248D03*
Y71443D03*
Y70638D03*
Y69833D03*
Y69028D03*
Y68223D03*
Y67418D03*
Y73858D03*
Y74663D03*
Y75468D03*
Y76273D03*
Y77078D03*
Y77883D03*
Y78688D03*
Y79493D03*
Y80298D03*
G54D83*
X39690Y64922D03*
G54D18*
X41783Y65164D03*
G54D17*
X42910Y69833D03*
Y69028D03*
D03*
Y68223D03*
Y67418D03*
G54D81*
X54502Y156370D03*
G54D17*
X53777Y138500D03*
Y139304D03*
Y140109D03*
Y146549D03*
Y145744D03*
Y144940D03*
D03*
Y144134D03*
Y143330D03*
Y142524D03*
Y141720D03*
Y140914D03*
G54D73*
Y153794D03*
G54D17*
Y147354D03*
Y148158D03*
Y148964D03*
Y149769D03*
Y152989D03*
Y152184D03*
Y151380D03*
Y150574D03*
G54D19*
X54583Y138500D03*
Y139304D03*
Y140109D03*
Y146549D03*
Y145744D03*
Y144940D03*
Y144134D03*
Y143330D03*
Y142524D03*
Y141720D03*
Y140914D03*
Y147354D03*
Y148158D03*
Y148964D03*
Y149769D03*
Y150574D03*
Y153794D03*
Y152989D03*
Y152184D03*
Y151380D03*
G54D97*
X58552Y120950D03*
G54D235*
X58487Y110163D03*
D03*
Y113544D03*
Y115798D03*
Y119179D03*
G54D17*
Y57517D03*
X58930Y138097D03*
X58125Y138902D03*
X58930Y143730D03*
Y142926D03*
Y142121D03*
Y141317D03*
D03*
Y140512D03*
Y139706D03*
Y138902D03*
Y144537D03*
Y154196D03*
Y153391D03*
Y152586D03*
Y151782D03*
Y145342D03*
Y146146D03*
Y146952D03*
Y147757D03*
Y148562D03*
Y149366D03*
Y150171D03*
Y150977D03*
X58125Y145342D03*
Y144537D03*
Y143730D03*
Y142926D03*
Y142121D03*
Y141317D03*
Y140512D03*
Y139706D03*
G54D74*
Y154196D03*
G54D17*
Y153391D03*
Y152586D03*
Y146146D03*
Y146952D03*
Y147757D03*
Y148562D03*
Y149366D03*
Y150171D03*
Y150977D03*
D03*
Y151782D03*
G54D16*
X85254Y67982D03*
Y67176D03*
Y66371D03*
Y65566D03*
Y62346D03*
Y63151D03*
Y63957D03*
Y64762D03*
G54D75*
Y77641D03*
G54D16*
Y76836D03*
Y76031D03*
Y75227D03*
Y68786D03*
Y69591D03*
Y70396D03*
Y71202D03*
Y72007D03*
Y72811D03*
D03*
Y73616D03*
Y74421D03*
G36*
X83746Y60342D02*
G01X83823D01*
Y59762D01*
X83746D01*
Y60342D01*
G37*
G36*
Y57605D02*
G01X83823D01*
Y57025D01*
X83746D01*
Y57605D01*
G37*
G54D17*
X84449Y67982D03*
Y67176D03*
Y66371D03*
Y65566D03*
Y64762D03*
Y62346D03*
Y63151D03*
D03*
Y63957D03*
G54D429*
X84473Y79010D03*
G54D75*
X84449Y77641D03*
G54D17*
Y76836D03*
Y76031D03*
Y75227D03*
Y68786D03*
Y69591D03*
Y70396D03*
Y71202D03*
Y72007D03*
Y72811D03*
Y73616D03*
Y74421D03*
G54D236*
X85254Y134611D03*
D03*
G54D239*
X84852D03*
G54D235*
X84449D03*
X84047D03*
G36*
X85560Y119195D02*
G01Y119001D01*
X85499Y118940D01*
Y119256D01*
G37*
G36*
X85464Y119277D02*
G01Y118904D01*
X85434D01*
Y119308D01*
G37*
G36*
X85295Y119446D02*
G01Y118743D01*
X85280D01*
Y119461D01*
G37*
G36*
X85560Y119195D02*
G01Y119001D01*
X85499Y118940D01*
Y119256D01*
G37*
G36*
X85464Y119277D02*
G01Y118904D01*
X85434D01*
Y119308D01*
G37*
G36*
X85295Y119446D02*
G01Y118743D01*
X85280D01*
Y119461D01*
G37*
G36*
X85263Y119478D02*
G01Y118711D01*
X85248D01*
Y119493D01*
G37*
G36*
X85432Y119309D02*
G01Y118872D01*
X85402D01*
Y119340D01*
G37*
G36*
X85592Y119163D02*
G01Y119033D01*
X85531Y118972D01*
Y119224D01*
G37*
G54D163*
X88474Y150872D03*
D03*
G54D164*
X87669D03*
G54D163*
X87266Y154623D03*
G54D173*
X88072D03*
G54D170*
Y155702D03*
G54D167*
X87266D03*
G54D17*
X87267Y152506D03*
X88072D03*
X87267Y157740D03*
D03*
X88072D03*
Y156934D03*
X87267D03*
Y153312D03*
X88072D03*
G54D340*
X89682Y96382D03*
G54D315*
Y98346D03*
G54D260*
Y81481D03*
G54D247*
Y90706D03*
D03*
G54D17*
X89360Y58322D03*
Y59126D03*
X89279Y62346D03*
Y63151D03*
Y63957D03*
Y70396D03*
Y69591D03*
Y68786D03*
Y67982D03*
Y67176D03*
Y66371D03*
Y65566D03*
Y64762D03*
Y71202D03*
G54D339*
Y96382D03*
G54D338*
X88877D03*
G54D316*
X89279Y98346D03*
G54D314*
X88877D03*
G54D262*
X89279Y81481D03*
G54D261*
X88877D03*
G54D246*
X89279Y90706D03*
G54D245*
X88877D03*
G54D17*
X89279Y72007D03*
Y72811D03*
Y73616D03*
Y77641D03*
Y76836D03*
Y76031D03*
Y75227D03*
Y74421D03*
G54D406*
X94270Y94120D03*
G54D410*
Y93041D03*
G54D334*
Y146646D03*
G54D314*
Y144681D03*
G54D17*
X90889Y63957D03*
Y63151D03*
Y62346D03*
G54D18*
X90084Y63957D03*
Y63151D03*
Y62346D03*
G54D17*
X90165Y59126D03*
Y58322D03*
X90970D03*
Y59126D03*
X90889Y64762D03*
G54D18*
X90084D03*
D03*
G54D17*
X90889Y71202D03*
Y70396D03*
Y69591D03*
Y68786D03*
Y67982D03*
Y67176D03*
Y66371D03*
Y65566D03*
G54D18*
X90084D03*
Y66371D03*
Y67176D03*
Y67982D03*
Y68786D03*
Y69591D03*
Y70396D03*
Y71202D03*
G54D20*
X91775Y58322D03*
Y59126D03*
G54D17*
X91694Y62346D03*
Y63151D03*
Y63957D03*
Y64762D03*
Y65566D03*
G54D172*
X95317Y154623D03*
G54D171*
Y155702D03*
G54D315*
X95357Y120327D03*
Y123024D03*
G54D235*
X95317Y129382D03*
Y134575D03*
Y137432D03*
G54D264*
Y142625D03*
G54D29*
Y80861D03*
D03*
Y91326D03*
G54D17*
Y152506D03*
Y153312D03*
Y156934D03*
Y157740D03*
G54D426*
X93280Y119018D03*
G54D334*
X93063Y146646D03*
G54D314*
Y144681D03*
G54D162*
X89279Y150872D03*
G54D164*
X88877Y154623D03*
G54D172*
X89682D03*
G54D171*
Y155702D03*
G54D166*
X88877D03*
G54D17*
X89682Y152506D03*
Y153312D03*
X88877D03*
Y156934D03*
X89682D03*
Y157740D03*
X88877D03*
Y152506D03*
G54D161*
X90084Y150872D03*
G54D171*
X91292Y155702D03*
X90487D03*
G54D172*
X91292Y154623D03*
X90487D03*
X90889Y150872D03*
G54D17*
X91292Y152506D03*
X90486D03*
Y153312D03*
X91292D03*
Y156934D03*
X90486D03*
Y157740D03*
X91292D03*
D03*
G54D174*
X95558Y145125D03*
D03*
G54D411*
Y146203D03*
G54D160*
X95719Y149793D03*
G54D161*
Y150872D03*
G54D235*
Y134575D03*
X96122D03*
Y137432D03*
X95719D03*
G54D264*
Y142625D03*
X96122D03*
G54D17*
Y152506D03*
Y157740D03*
Y156934D03*
Y153312D03*
G54D314*
X96162Y120327D03*
Y123024D03*
G54D235*
X96122Y129382D03*
G54D62*
Y107909D03*
G36*
X96008Y108030D02*
G01Y107789D01*
X95947Y107728D01*
Y108091D01*
G37*
G36*
X96265Y108030D02*
G01X96008D01*
X95947Y108091D01*
X96265D01*
G37*
G36*
X95958Y108065D02*
G01Y107739D01*
X95928D01*
Y108096D01*
G37*
G36*
X96008Y108030D02*
G01Y107789D01*
X95947Y107728D01*
Y108091D01*
G37*
G36*
X96265Y108030D02*
G01X96008D01*
X95947Y108091D01*
X96265D01*
G37*
G36*
X95958Y108065D02*
G01Y107739D01*
X95928D01*
Y108096D01*
G37*
G36*
X96202Y107821D02*
G01Y108029D01*
X96263D01*
Y107760D01*
G37*
G36*
X96040Y107821D02*
G01X96202D01*
X96263Y107760D01*
X95979D01*
G37*
G36*
X96040Y107998D02*
G01Y107821D01*
X95979Y107760D01*
Y108059D01*
G37*
G36*
X96233Y107998D02*
G01X96040D01*
X95979Y108059D01*
X96233D01*
G37*
G54D410*
X99342Y61807D03*
Y62886D03*
G54D17*
X98456Y72409D03*
X96524Y72811D03*
Y73616D03*
Y74421D03*
Y75227D03*
Y76031D03*
Y76836D03*
X98456Y77239D03*
X96524Y77641D03*
G54D318*
X95760Y120327D03*
Y123024D03*
G54D235*
X95719Y129382D03*
G36*
X95757Y108266D02*
G01Y107546D01*
X95742D01*
Y108281D01*
G37*
G36*
X95789Y108234D02*
G01Y107578D01*
X95774D01*
Y108249D01*
G37*
G36*
X95789Y108234D02*
G01Y107578D01*
X95774D01*
Y108249D01*
G37*
G54D17*
X95719Y62346D03*
Y63151D03*
Y63957D03*
Y67176D03*
Y67982D03*
Y68786D03*
Y69591D03*
Y70396D03*
Y66371D03*
Y65566D03*
Y64762D03*
Y71202D03*
Y72007D03*
Y72811D03*
Y73616D03*
Y74421D03*
Y75227D03*
Y77641D03*
Y76836D03*
Y76031D03*
G54D449*
X98376Y61807D03*
G54D448*
D03*
Y62886D03*
G54D17*
X96605Y58322D03*
X97410D03*
X98215D03*
X99020D03*
Y59126D03*
X98215D03*
X96524Y64762D03*
Y63957D03*
Y63151D03*
D03*
Y62346D03*
X96605Y59126D03*
X97410D03*
X96524Y65566D03*
G54D202*
X98758Y69591D03*
G54D221*
Y69189D03*
G54D203*
Y68786D03*
G54D200*
Y68384D03*
Y67982D03*
Y67579D03*
Y67176D03*
G54D17*
X96524D03*
Y67982D03*
Y68786D03*
Y69591D03*
Y70396D03*
Y71202D03*
Y72007D03*
D03*
Y66371D03*
G54D78*
X100871Y72409D03*
G54D564*
X102240Y83055D03*
G36*
X102497Y55566D02*
G01Y56233D01*
X102512Y56248D01*
Y55551D01*
G37*
G36*
X102328Y55735D02*
G01Y56064D01*
X102359Y56095D01*
Y55705D01*
G37*
G36*
X102275Y55788D02*
G01Y56042D01*
X102336D01*
Y55727D01*
G37*
G36*
X102465Y55598D02*
G01Y56201D01*
X102480Y56216D01*
Y55583D01*
G37*
G36*
X102296Y55767D02*
G01Y56032D01*
X102327Y56062D01*
Y55737D01*
G37*
G36*
X102465Y55598D02*
G01Y56201D01*
X102480Y56216D01*
Y55583D01*
G37*
G36*
X102296Y55767D02*
G01Y56032D01*
X102327Y56062D01*
Y55737D01*
G37*
G54D344*
X102642Y76933D03*
G54D346*
Y74969D03*
G54D269*
Y83055D03*
Y79473D03*
G54D65*
X100872Y72409D03*
G54D21*
Y77239D03*
X100912Y86899D03*
Y87704D03*
G54D225*
X101657Y80056D03*
G54D229*
Y80459D03*
G54D225*
Y80861D03*
G54D229*
Y81264D03*
G54D225*
Y81666D03*
Y82069D03*
G54D230*
Y82471D03*
G54D21*
X101516Y92131D03*
Y91326D03*
D03*
Y90521D03*
Y89716D03*
Y88911D03*
Y88106D03*
Y86496D03*
Y87301D03*
G54D84*
X103633Y92614D03*
G54D269*
X102240Y83055D03*
Y79473D03*
G54D49*
X101817Y85490D03*
G54D22*
X102119Y92534D03*
Y91729D03*
Y90924D03*
Y90119D03*
Y89314D03*
Y88509D03*
Y87704D03*
Y86899D03*
Y93338D03*
G54D21*
X100912Y94144D03*
Y93338D03*
Y92534D03*
Y88509D03*
Y89314D03*
Y90119D03*
Y90924D03*
Y91729D03*
Y106219D03*
Y105414D03*
Y104609D03*
Y103804D03*
Y102999D03*
Y102194D03*
Y101389D03*
Y98169D03*
Y97364D03*
Y96559D03*
Y95754D03*
D03*
Y94949D03*
Y98974D03*
Y99779D03*
Y100584D03*
G54D84*
X103633Y93419D03*
G54D144*
Y94224D03*
G54D136*
Y95029D03*
G54D84*
Y95834D03*
G54D135*
Y96639D03*
G54D136*
Y97444D03*
G54D142*
Y98249D03*
G54D18*
X102723Y98571D03*
Y97766D03*
Y96961D03*
Y96157D03*
Y95351D03*
Y94546D03*
Y93741D03*
Y92936D03*
G54D151*
X103633Y99054D03*
G54D21*
X101516Y98571D03*
Y97766D03*
Y96961D03*
Y96157D03*
Y95351D03*
Y94546D03*
Y93741D03*
Y92936D03*
Y99376D03*
Y100181D03*
Y100986D03*
Y101792D03*
Y102597D03*
Y103401D03*
Y104206D03*
Y105011D03*
Y105817D03*
G54D22*
X102119Y99779D03*
Y98974D03*
Y98169D03*
Y97364D03*
Y96559D03*
Y95754D03*
Y94949D03*
Y94144D03*
Y100584D03*
D03*
Y101389D03*
Y102194D03*
Y102999D03*
Y103804D03*
Y104609D03*
Y105414D03*
Y106219D03*
G54D21*
X100912Y119099D03*
Y118294D03*
Y117489D03*
Y116684D03*
Y115879D03*
Y115074D03*
D03*
Y114269D03*
Y113464D03*
Y107829D03*
Y108634D03*
Y109439D03*
Y110244D03*
Y111049D03*
Y111854D03*
Y112658D03*
G54D22*
X102119Y119099D03*
Y118294D03*
Y117489D03*
Y116684D03*
Y115879D03*
Y115074D03*
Y114269D03*
Y109439D03*
Y108634D03*
Y107829D03*
Y110244D03*
Y111049D03*
Y111854D03*
Y112658D03*
Y113464D03*
G54D18*
X102723Y118696D03*
Y117891D03*
Y117086D03*
Y116282D03*
Y115476D03*
Y114671D03*
Y109842D03*
Y109037D03*
Y108231D03*
Y107426D03*
Y110646D03*
Y111451D03*
Y112257D03*
Y113062D03*
Y113866D03*
G54D21*
X101516Y107426D03*
Y108231D03*
Y109037D03*
Y109842D03*
Y110646D03*
D03*
Y111451D03*
Y112257D03*
Y113062D03*
X100912Y119904D03*
Y120709D03*
Y121514D03*
Y122319D03*
Y123124D03*
Y123929D03*
Y124734D03*
Y125539D03*
G54D22*
X102119Y121514D03*
Y120709D03*
Y119904D03*
D03*
Y122319D03*
Y123124D03*
Y123929D03*
Y124734D03*
G54D18*
X102723Y121111D03*
Y120306D03*
Y119502D03*
Y121916D03*
Y122721D03*
Y123527D03*
Y124331D03*
D03*
Y125136D03*
G54D21*
X101516Y119502D03*
Y118696D03*
Y117891D03*
Y117086D03*
Y116282D03*
Y115476D03*
Y114671D03*
Y113866D03*
Y120306D03*
G54D49*
X101817Y128155D03*
G54D21*
X101516Y121111D03*
Y121916D03*
Y122721D03*
Y123527D03*
Y124331D03*
Y125136D03*
Y125941D03*
Y126747D03*
G54D314*
X49028Y104432D03*
Y106396D03*
G36*
X49855Y101528D02*
G01X49932D01*
Y100949D01*
X49855D01*
Y101528D01*
G37*
G36*
Y98791D02*
G01X49932D01*
Y98211D01*
X49855D01*
Y98791D01*
G37*
G54D36*
X49914Y77360D03*
Y95070D03*
G54D24*
X49511Y75951D03*
Y78366D03*
Y79171D03*
D03*
Y85611D03*
Y84806D03*
Y84001D03*
Y83196D03*
Y82391D03*
Y81586D03*
Y80781D03*
Y79976D03*
G54D26*
X56756Y85208D03*
G54D27*
X53536D03*
G54D23*
X50316D03*
G54D26*
X56756Y65888D03*
G54D27*
X53536D03*
G54D23*
X50316D03*
G54D24*
X49511Y66291D03*
Y67096D03*
Y67901D03*
D03*
Y68706D03*
Y70316D03*
Y71121D03*
Y71926D03*
Y72731D03*
Y73536D03*
Y74341D03*
Y75146D03*
Y69511D03*
G54D81*
X54502Y57355D03*
G54D66*
X56877Y57517D03*
X52489D03*
G54D31*
X56354Y59650D03*
G54D29*
X53133D03*
X49913D03*
G54D17*
X52489Y56712D03*
Y55906D03*
X57682Y57517D03*
G54D24*
X49511Y62266D03*
G54D23*
X50316Y62668D03*
G54D24*
X49511Y63071D03*
G54D23*
X50316Y63473D03*
G54D24*
X49511Y63876D03*
G54D23*
X50316Y64278D03*
G54D24*
X49511Y64681D03*
G54D23*
X50316Y65084D03*
G54D24*
X49511Y65486D03*
G54D25*
X52731D03*
Y64681D03*
D03*
Y63071D03*
Y62266D03*
Y63876D03*
G54D26*
X56756Y62668D03*
Y63473D03*
Y64278D03*
Y65084D03*
X55951Y65486D03*
G54D27*
X53536Y65084D03*
G54D26*
X55951Y64681D03*
G54D27*
X53536Y64278D03*
G54D26*
X55951Y63071D03*
G54D27*
X53536Y62668D03*
G54D26*
X55951Y62266D03*
G54D27*
X53536Y63473D03*
G54D26*
X55951Y63876D03*
G54D25*
X52731Y70316D03*
Y69511D03*
Y67096D03*
Y66291D03*
G54D23*
X50316Y66694D03*
Y67498D03*
Y68304D03*
Y70718D03*
Y69914D03*
Y69108D03*
G54D25*
X52731Y67901D03*
Y68706D03*
Y75146D03*
Y74341D03*
G54D23*
X50316Y71524D03*
Y72328D03*
Y73133D03*
Y73938D03*
Y74744D03*
Y75548D03*
G54D25*
X52731Y71121D03*
D03*
Y71926D03*
Y72731D03*
Y73536D03*
Y84806D03*
Y84001D03*
G54D23*
X50316Y84403D03*
Y83598D03*
Y82793D03*
Y81988D03*
Y81183D03*
Y80378D03*
G54D25*
X52731Y80781D03*
Y81586D03*
Y82391D03*
Y83196D03*
G54D37*
X53133Y95070D03*
G54D161*
X51685Y108851D03*
G54D169*
Y107772D03*
G36*
X51465Y101528D02*
G01X51542D01*
Y100949D01*
X51465D01*
Y101528D01*
G37*
G36*
Y98791D02*
G01X51542D01*
Y98211D01*
X51465D01*
Y98791D01*
G37*
G54D432*
X53456Y110300D03*
Y109221D03*
G54D437*
X54180Y102170D03*
Y101091D03*
G54D417*
X53963Y104448D03*
G54D422*
X54204Y96881D03*
G54D235*
X54462Y110163D03*
G54D44*
X53536Y92453D03*
G54D27*
Y86818D03*
Y86013D03*
Y87623D03*
Y88428D03*
Y89233D03*
Y90038D03*
Y90843D03*
Y91648D03*
G54D81*
X54502Y107266D03*
G54D424*
X59759Y96398D03*
G54D43*
X59976Y92453D03*
G54D38*
X59574Y95070D03*
G54D25*
X59976Y83598D03*
Y84403D03*
Y85208D03*
Y86013D03*
Y86818D03*
Y87623D03*
Y88428D03*
Y89233D03*
Y90038D03*
Y90843D03*
Y91648D03*
Y86013D03*
G54D184*
X56217Y108956D03*
G36*
X56335Y104698D02*
G01X56412D01*
Y104118D01*
X56335D01*
Y104698D01*
G37*
G36*
Y107434D02*
G01X56412D01*
Y106855D01*
X56335D01*
Y107434D01*
G37*
G54D36*
X56354Y95070D03*
G54D26*
X56756Y80378D03*
X55951Y82391D03*
G54D27*
X53536Y81988D03*
G54D26*
X55951Y81586D03*
G54D27*
X53536Y81183D03*
G54D26*
X55951Y80781D03*
G54D27*
X53536Y80378D03*
G54D26*
X56756Y81988D03*
Y81183D03*
G54D27*
X53536Y82793D03*
G54D26*
X55951Y83196D03*
G54D27*
X53536Y83598D03*
G54D26*
X55951Y84001D03*
G54D27*
X53536Y84403D03*
G54D26*
X55951Y84806D03*
X56756Y84403D03*
Y83598D03*
Y82793D03*
G54D28*
X59171Y75146D03*
Y75951D03*
Y78366D03*
Y79976D03*
Y80781D03*
Y81586D03*
Y82391D03*
Y83196D03*
Y84001D03*
Y84806D03*
Y79171D03*
Y85611D03*
G54D184*
X59308Y108956D03*
G36*
X59153Y107434D02*
G01X59230D01*
Y106855D01*
X59153D01*
Y107434D01*
G37*
G36*
Y104698D02*
G01X59230D01*
Y104118D01*
X59153D01*
Y104698D01*
G37*
G54D28*
X59171Y86416D03*
Y87221D03*
Y88026D03*
Y88831D03*
Y89636D03*
Y90441D03*
Y91246D03*
Y92051D03*
G54D36*
X56354Y77360D03*
G54D37*
X53133D03*
G54D26*
X56756Y76353D03*
G54D27*
X53536D03*
G54D26*
X55951Y75951D03*
G54D25*
X52731D03*
G54D23*
X50316Y76353D03*
G54D25*
X52731Y79171D03*
D03*
G54D27*
X53536Y78768D03*
G54D26*
X55951Y78366D03*
G54D25*
X52731D03*
G54D23*
X50316Y79573D03*
Y78768D03*
G54D26*
X55951Y79171D03*
G54D27*
X53536Y79573D03*
G54D25*
X52731Y79976D03*
G54D26*
X55951D03*
X56756Y79573D03*
Y78768D03*
Y71524D03*
G54D27*
X53536Y73133D03*
G54D26*
X55951Y72731D03*
G54D27*
X53536Y72328D03*
G54D26*
X55951Y71926D03*
G54D27*
X53536Y71524D03*
G54D26*
X55951Y71121D03*
X56756Y73133D03*
Y72328D03*
X55951Y73536D03*
G54D27*
X53536Y73938D03*
G54D26*
X55951Y74341D03*
G54D27*
X53536Y74744D03*
G54D26*
X55951Y75146D03*
G54D27*
X53536Y75548D03*
G54D26*
X56756D03*
Y74744D03*
Y73938D03*
G54D29*
X59574Y59650D03*
G54D25*
X59976Y62668D03*
Y63473D03*
Y64278D03*
Y65084D03*
D03*
Y65888D03*
Y66694D03*
Y67498D03*
Y68304D03*
Y69108D03*
Y69914D03*
G54D17*
X60097Y57517D03*
G54D26*
X56756Y66694D03*
G54D27*
X53536Y68304D03*
G54D26*
X55951Y67901D03*
G54D27*
X53536Y67498D03*
G54D26*
X55951Y66291D03*
G54D27*
X53536Y66694D03*
G54D26*
X55951Y67096D03*
X56756Y68304D03*
Y67498D03*
X55951Y68706D03*
G54D27*
X53536Y69108D03*
G54D26*
X55951Y69511D03*
G54D27*
X53536Y69914D03*
G54D26*
X55951Y70316D03*
G54D27*
X53536Y70718D03*
G54D26*
X56756D03*
Y69914D03*
Y69108D03*
G54D29*
X59171Y62266D03*
G54D18*
X59292Y57517D03*
G54D28*
X59171Y65486D03*
Y64681D03*
Y63876D03*
Y63071D03*
Y62266D03*
Y74341D03*
Y73536D03*
Y72731D03*
Y71926D03*
Y71121D03*
Y70316D03*
Y69511D03*
Y68706D03*
Y67901D03*
Y67096D03*
Y66291D03*
G54D25*
X59976Y70718D03*
Y71524D03*
D03*
Y72328D03*
Y73133D03*
Y73938D03*
Y74744D03*
Y75548D03*
Y76353D03*
G54D39*
X59574Y77360D03*
G54D25*
X59976Y78768D03*
Y79573D03*
D03*
Y80378D03*
Y81183D03*
Y81988D03*
Y82793D03*
G54D38*
X59574Y77360D03*
G54D39*
X103559Y148404D03*
D03*
G54D80*
X105219Y156370D03*
G54D79*
X103559Y152171D03*
G54D42*
Y150914D03*
G36*
X107416Y159070D02*
G01Y158266D01*
X107409D01*
Y159070D01*
G37*
G36*
X107413Y159067D02*
G01X106607D01*
Y159074D01*
X107413D01*
G37*
G54D34*
X104364Y149032D03*
G54D35*
D03*
G54D39*
X103559Y149660D03*
Y150915D03*
G54D66*
X40173Y57517D03*
G54D17*
X40978D03*
G54D18*
X41783D03*
Y59126D03*
G54D17*
X40978D03*
X43393D03*
X42588D03*
Y57517D03*
X43393D03*
G54D66*
X40173Y59126D03*
G54D17*
X42588Y61542D03*
Y62749D03*
G54D18*
X41783D03*
G54D19*
X40173Y61542D03*
G54D17*
X40978D03*
D03*
G54D18*
X41783D03*
G54D17*
X43393D03*
G54D309*
X87492Y130248D03*
Y130650D03*
Y131053D03*
G54D310*
Y131456D03*
G54D313*
Y131858D03*
G54D309*
Y132260D03*
Y132663D03*
Y133065D03*
G36*
X87452Y108018D02*
G01X87529D01*
Y107439D01*
X87452D01*
Y108018D01*
G37*
G36*
X87449Y117879D02*
G01X87526D01*
Y117300D01*
X87449D01*
Y117879D01*
G37*
G54D301*
X87665Y138233D03*
G54D408*
X90245Y93041D03*
G54D407*
Y94120D03*
G54D341*
X90084Y96382D03*
G54D319*
Y98346D03*
G54D263*
Y81481D03*
G54D248*
Y90706D03*
G54D18*
Y75227D03*
Y76031D03*
Y76836D03*
Y77641D03*
Y74421D03*
Y73616D03*
D03*
Y72811D03*
Y72007D03*
G54D425*
X90672Y79654D03*
G54D315*
X90487Y98346D03*
G54D340*
Y96382D03*
G54D247*
Y90706D03*
G54D260*
Y81481D03*
G54D409*
X91050Y94120D03*
G54D398*
Y93041D03*
G54D245*
X90889Y90706D03*
X91292D03*
X91694D03*
G54D261*
Y81481D03*
X91292D03*
X90889D03*
G54D17*
Y72007D03*
Y72811D03*
Y73616D03*
Y74421D03*
Y75227D03*
Y76031D03*
Y76836D03*
G54D77*
Y77641D03*
G54D164*
X96927Y154623D03*
G54D173*
X97732D03*
G54D170*
Y155702D03*
G54D166*
X96927D03*
G54D19*
Y156934D03*
G54D17*
X97732D03*
Y157740D03*
G54D19*
X96927D03*
Y153312D03*
G54D17*
X97732D03*
Y152506D03*
G54D19*
X96927D03*
G36*
X47016Y127246D02*
G01X46675D01*
X46644Y127277D01*
X47046D01*
G37*
G36*
X47184Y127415D02*
G01X46506D01*
X46491Y127430D01*
X47199D01*
G37*
G36*
X46949Y127143D02*
G01X46771D01*
X46711Y127204D01*
X46949D01*
G37*
G36*
X47048Y127278D02*
G01X46643D01*
X46613Y127309D01*
X47078D01*
G37*
G36*
X47216Y127447D02*
G01X46474D01*
X46459Y127462D01*
X47231D01*
G37*
G36*
X46982Y127175D02*
G01X46739D01*
X46678Y127236D01*
X46982D01*
G37*
G36*
X47184Y127415D02*
G01X46506D01*
X46491Y127430D01*
X47199D01*
G37*
G36*
X47016Y127246D02*
G01X46675D01*
X46644Y127277D01*
X47046D01*
G37*
G36*
X46982Y127175D02*
G01X46739D01*
X46678Y127236D01*
X46982D01*
G37*
G54D94*
X46637Y144697D03*
G54D393*
X46814Y139304D03*
G54D355*
X47112Y146871D03*
G54D354*
X46629Y141478D03*
G54D191*
X46814Y137050D03*
Y136647D03*
Y136245D03*
D03*
Y133025D03*
G54D193*
Y133428D03*
G54D191*
Y133830D03*
Y134233D03*
Y134635D03*
G54D192*
Y135038D03*
G54D191*
Y135440D03*
Y135842D03*
G54D419*
X51258Y141477D03*
G54D194*
X51604Y142565D03*
G54D195*
Y142967D03*
G54D194*
Y143369D03*
Y143772D03*
G54D70*
X51363Y139868D03*
G54D17*
X50557Y139866D03*
D03*
G54D191*
X62126Y143651D03*
G54D425*
X60838Y96398D03*
G36*
X60803Y98791D02*
G01X60881D01*
Y98211D01*
X60803D01*
Y98791D01*
G37*
G36*
X60602D02*
G01X60679D01*
Y98211D01*
X60602D01*
Y98791D01*
G37*
G54D200*
X62126Y88509D03*
Y88911D03*
G54D203*
Y89314D03*
D03*
G54D199*
Y89716D03*
G54D201*
Y90119D03*
G54D200*
Y90521D03*
G54D29*
X61506Y91729D03*
G54D164*
X69959Y133854D03*
Y134933D03*
X70120Y150759D03*
G54D166*
Y151838D03*
G54D378*
X69758Y148884D03*
G54D235*
X69556Y137026D03*
X69959D03*
G54D238*
X70361D03*
G54D242*
Y146252D03*
G54D240*
X69959D03*
X69556D03*
G54D17*
X70128Y156249D03*
G54D29*
X70506Y158262D03*
X69717Y155098D03*
G54D40*
Y157465D03*
G54D111*
X73460Y155565D03*
G54D394*
D03*
Y157174D03*
G54D41*
X71850Y157207D03*
G54D29*
X71295Y158262D03*
X72092Y155098D03*
X71295Y154309D03*
G54D17*
X71343Y151298D03*
G54D74*
X72921Y151299D03*
G54D377*
X71770Y148884D03*
G54D216*
X71351Y143651D03*
Y144054D03*
G54D215*
Y144456D03*
Y144858D03*
G54D216*
Y145261D03*
Y145663D03*
G54D29*
X71971Y146871D03*
Y91729D03*
G36*
X70886Y103698D02*
G01Y103982D01*
X70947D01*
Y103637D01*
G37*
G36*
X70894Y103675D02*
G01Y103974D01*
X70925Y104005D01*
Y103644D01*
G37*
G36*
X71063Y103506D02*
G01Y104143D01*
X71078Y104158D01*
Y103491D01*
G37*
G36*
X70886Y103698D02*
G01Y103982D01*
X70947D01*
Y103637D01*
G37*
G36*
X70894Y103675D02*
G01Y103974D01*
X70925Y104005D01*
Y103644D01*
G37*
G36*
X71063Y103506D02*
G01Y104143D01*
X71078Y104158D01*
Y103491D01*
G37*
G36*
X70854Y103730D02*
G01Y103950D01*
X70915D01*
Y103669D01*
G37*
G36*
X70926Y103643D02*
G01Y104006D01*
X70956Y104037D01*
Y103612D01*
G37*
G36*
X71095Y103474D02*
G01Y104175D01*
X71110Y104190D01*
Y103459D01*
G37*
G54D398*
X71408Y59263D03*
Y58185D03*
G54D210*
X71351Y82471D03*
Y82874D03*
G54D211*
Y83276D03*
Y83679D03*
Y84081D03*
G54D213*
Y84886D03*
G54D211*
Y85289D03*
G54D212*
Y85692D03*
G54D210*
Y86094D03*
Y86496D03*
G54D211*
Y86899D03*
Y87301D03*
D03*
G54D212*
Y84484D03*
Y87704D03*
G54D211*
Y88106D03*
Y90521D03*
G54D212*
Y90119D03*
G54D210*
Y89716D03*
G54D214*
Y89314D03*
G54D211*
Y88911D03*
Y88509D03*
G54D246*
X73984Y77022D03*
G54D32*
X72776Y77641D03*
G54D204*
X73396Y76434D03*
G54D206*
Y76031D03*
G54D209*
Y75629D03*
G54D204*
Y75227D03*
Y74824D03*
Y74421D03*
G54D255*
X80103Y98831D03*
X79700D03*
X79298D03*
G54D258*
X78895D03*
G54D255*
X78493D03*
G54D395*
X74829Y155565D03*
Y157174D03*
G54D218*
X75006Y149286D03*
Y149688D03*
Y150091D03*
Y150494D03*
Y150897D03*
Y151298D03*
Y151701D03*
Y152104D03*
G54D33*
X74386Y146066D03*
G54D218*
X75006Y148883D03*
Y148480D03*
Y148079D03*
Y147676D03*
Y147273D03*
G54D242*
X75594Y152690D03*
G54D238*
Y146686D03*
G54D192*
X76616Y137614D03*
G54D238*
X80668Y114853D03*
G36*
X85449Y118919D02*
G01X85836D01*
X85866Y118888D01*
X85449D01*
G37*
G36*
X85288Y118750D02*
G01X86005D01*
X86020Y118735D01*
X85288D01*
G37*
G36*
X85256Y118718D02*
G01X86037D01*
X86052Y118703D01*
X85256D01*
G37*
G36*
X85417Y118887D02*
G01X85868D01*
X85898Y118856D01*
X85417D01*
G37*
G36*
X85592Y119033D02*
G01X85708D01*
X85769Y118972D01*
X85531D01*
G37*
G36*
X85560Y119001D02*
G01X85741D01*
X85801Y118940D01*
X85499D01*
G37*
G36*
X85288Y118750D02*
G01X86005D01*
X86020Y118735D01*
X85288D01*
G37*
G36*
X85449Y118919D02*
G01X85836D01*
X85866Y118888D01*
X85449D01*
G37*
G36*
X85560Y119001D02*
G01X85741D01*
X85801Y118940D01*
X85499D01*
G37*
G54D430*
X85552Y79010D03*
G54D200*
X85472Y82069D03*
G54D199*
Y82471D03*
Y82874D03*
G54D200*
Y83276D03*
Y83679D03*
Y86899D03*
G54D199*
Y86496D03*
Y86094D03*
G54D201*
Y85692D03*
G54D200*
Y85289D03*
G54D202*
Y84886D03*
G54D201*
Y84484D03*
D03*
G54D200*
Y84081D03*
Y87301D03*
G54D201*
Y87704D03*
G54D200*
Y88106D03*
Y88509D03*
Y88911D03*
G54D203*
Y89314D03*
G54D199*
Y89716D03*
G54D201*
Y90119D03*
G54D200*
X82377Y63231D03*
G54D221*
Y63633D03*
G54D199*
Y64035D03*
G54D201*
Y64438D03*
G54D202*
Y64840D03*
G54D201*
X82622Y74019D03*
G54D200*
Y74421D03*
Y74824D03*
Y75227D03*
G54D199*
Y75629D03*
G54D221*
Y76031D03*
G54D200*
Y76434D03*
G54D29*
X83241Y77641D03*
G36*
X85771Y119195D02*
G01X85560D01*
X85499Y119256D01*
X85771D01*
G37*
G36*
X85836Y119277D02*
G01X85464D01*
X85434Y119308D01*
X85866D01*
G37*
G36*
X86005Y119446D02*
G01X85295D01*
X85280Y119461D01*
X86020D01*
G37*
G36*
X85771Y119195D02*
G01X85560D01*
X85499Y119256D01*
X85771D01*
G37*
G36*
X85738Y119163D02*
G01X85592D01*
X85531Y119224D01*
X85738D01*
G37*
G36*
X85868Y119309D02*
G01X85432D01*
X85402Y119340D01*
X85898D01*
G37*
G36*
X86037Y119478D02*
G01X85263D01*
X85248Y119493D01*
X86052D01*
G37*
G36*
X86005Y119446D02*
G01X85295D01*
X85280Y119461D01*
X86020D01*
G37*
G36*
X85836Y119277D02*
G01X85464D01*
X85434Y119308D01*
X85866D01*
G37*
G54D191*
X85842Y138418D03*
Y136406D03*
G54D193*
Y136004D03*
G54D191*
Y135601D03*
Y135198D03*
G54D193*
Y136809D03*
G54D191*
Y137211D03*
G54D192*
Y137614D03*
G54D191*
Y138016D03*
G54D192*
Y138821D03*
G54D191*
Y139223D03*
Y139626D03*
Y140029D03*
D03*
G54D193*
Y140432D03*
G54D192*
Y140834D03*
G54D191*
Y141236D03*
Y141638D03*
Y142041D03*
Y142444D03*
Y142845D03*
Y143248D03*
G54D20*
X85656Y152506D03*
Y153312D03*
Y156934D03*
Y157740D03*
G54D191*
X91513Y131978D03*
Y132381D03*
G54D193*
Y132784D03*
G54D192*
Y138821D03*
G54D191*
Y138418D03*
Y138016D03*
Y133991D03*
Y133589D03*
Y133186D03*
D03*
G36*
X90289Y117629D02*
G01X90868D01*
Y117551D01*
X90289D01*
Y117629D01*
G37*
G54D17*
X94995Y58322D03*
Y59126D03*
G54D200*
X94697Y82069D03*
G54D199*
Y82471D03*
Y82874D03*
G54D200*
Y83276D03*
G54D201*
Y84484D03*
G54D202*
Y84886D03*
G54D200*
Y85289D03*
G54D201*
Y85692D03*
G54D199*
Y86496D03*
Y86094D03*
G54D200*
Y84081D03*
Y83679D03*
Y86899D03*
G54D315*
X94512Y98346D03*
G54D340*
Y96382D03*
G36*
X94871Y108018D02*
G01X94948D01*
Y107439D01*
X94871D01*
Y108018D01*
G37*
G36*
X94665D02*
G01X94742D01*
Y107439D01*
X94665D01*
Y108018D01*
G37*
G36*
X94459D02*
G01X94536D01*
Y107439D01*
X94459D01*
Y108018D01*
G37*
G54D201*
X94697Y90119D03*
G54D199*
Y89716D03*
G54D203*
Y89314D03*
G54D200*
Y88911D03*
Y88509D03*
Y88106D03*
G54D201*
Y87704D03*
G54D200*
Y87301D03*
G36*
X96285Y107754D02*
G01Y108065D01*
X96315Y108096D01*
Y107723D01*
G37*
G36*
X96453Y107585D02*
G01Y108234D01*
X96468Y108249D01*
Y107570D01*
G37*
G36*
X96486Y107553D02*
G01Y108266D01*
X96501Y108281D01*
Y107538D01*
G37*
G36*
X96317Y107722D02*
G01Y108097D01*
X96347Y108128D01*
Y107691D01*
G37*
G36*
X96453Y107585D02*
G01Y108234D01*
X96468Y108249D01*
Y107570D01*
G37*
G36*
X96285Y107754D02*
G01Y108065D01*
X96315Y108096D01*
Y107723D01*
G37*
G54D216*
X96706Y138016D03*
Y133991D03*
Y133589D03*
Y133186D03*
G54D29*
X97329Y136809D03*
Y128759D03*
G54D216*
X96706Y129966D03*
Y130369D03*
Y130771D03*
G54D215*
Y131174D03*
G54D216*
Y131576D03*
Y131978D03*
Y132381D03*
G54D217*
Y132784D03*
G54D216*
Y133186D03*
Y142041D03*
Y141638D03*
Y141236D03*
G54D215*
Y140834D03*
G54D216*
Y138418D03*
G54D215*
Y138821D03*
G54D216*
Y139223D03*
Y139626D03*
Y140029D03*
G54D217*
Y140432D03*
G54D370*
X99020Y141252D03*
G54D303*
X100787Y141292D03*
D03*
X101278D03*
G54D275*
X101033Y141131D03*
G54D557*
X101032Y141414D03*
G36*
X101021Y141272D02*
G01Y141554D01*
X101028D01*
Y141272D01*
G37*
G54D479*
X101033Y141413D03*
G54D557*
X101032Y141414D03*
G54D559*
X101033Y141413D03*
G54D479*
D03*
G36*
X101029Y141297D02*
G01X101037D01*
Y141530D01*
X101029D01*
Y141297D01*
G37*
G54D559*
X101033Y141413D03*
G54D479*
D03*
G36*
X101029Y141297D02*
G01X101037D01*
Y141530D01*
X101029D01*
Y141297D01*
G37*
G54D74*
X99744Y139610D03*
G54D21*
X102240Y59126D03*
Y58322D03*
G36*
X102296Y56032D02*
G01X102032D01*
X102001Y56062D01*
X102327D01*
G37*
G36*
X102465Y56201D02*
G01X101862D01*
X101847Y56216D01*
X102480D01*
G37*
G36*
X102497Y56233D02*
G01X101830D01*
X101815Y56248D01*
X102512D01*
G37*
G36*
X102328Y56064D02*
G01X102000D01*
X101969Y56095D01*
X102359D01*
G37*
G36*
X102306Y56011D02*
G01X102053D01*
X101992Y56072D01*
X102306D01*
G37*
G36*
X102465Y56201D02*
G01X101862D01*
X101847Y56216D01*
X102480D01*
G37*
G36*
X102296Y56032D02*
G01X102032D01*
X102001Y56062D01*
X102327D01*
G37*
G54D228*
X102341Y69591D03*
G54D227*
Y69189D03*
D03*
G54D226*
Y68786D03*
G54D225*
Y68384D03*
Y67982D03*
Y67579D03*
Y67176D03*
G54D111*
X48488Y151782D03*
G54D126*
Y152586D03*
G54D111*
Y153392D03*
Y154197D03*
G54D390*
X48183Y139304D03*
G54D353*
X48368Y141478D03*
G54D356*
X48851Y146871D03*
G54D240*
X51443Y132422D03*
G54D241*
X51041D03*
G54D194*
X52047Y134635D03*
Y134233D03*
Y133830D03*
G54D198*
Y133428D03*
G54D194*
Y133025D03*
G54D241*
X50235Y132422D03*
X50638D03*
G54D197*
X52047Y135038D03*
G54D194*
Y136647D03*
Y136245D03*
Y135842D03*
Y135440D03*
Y137050D03*
G54D240*
X51443Y137654D03*
G54D241*
X51041D03*
X50638D03*
X50235D03*
G36*
X49090Y126111D02*
G01X49167D01*
Y125531D01*
X49090D01*
Y126111D01*
G37*
G36*
Y123373D02*
G01X49167D01*
Y122794D01*
X49090D01*
Y123373D01*
G37*
G54D235*
X48827Y113544D03*
X49229D03*
Y115798D03*
X48827D03*
G54D240*
X49028Y137654D03*
X48625D03*
Y132422D03*
X49028D03*
G54D235*
X49229Y119179D03*
X48827D03*
G54D109*
X49567Y151782D03*
G54D396*
Y152586D03*
G54D109*
Y153392D03*
Y154197D03*
G36*
X49291Y126111D02*
G01X49368D01*
Y125531D01*
X49291D01*
Y126111D01*
G37*
G36*
Y123373D02*
G01X49368D01*
Y122794D01*
X49291D01*
Y123373D01*
G37*
G54D111*
X47152Y130208D03*
Y131013D03*
G54D95*
X47716Y144697D03*
X47555Y151782D03*
G54D125*
Y152586D03*
G54D95*
Y153392D03*
Y154197D03*
G54D240*
X48223Y137654D03*
G54D242*
X47820D03*
G54D240*
X47418D03*
D03*
Y132422D03*
G54D242*
X47820D03*
G54D240*
X48223D03*
G54D417*
X47152Y120387D03*
G54D235*
X47217Y113544D03*
X47619D03*
X48022D03*
X48424D03*
Y119179D03*
X48022D03*
X47619D03*
X47217D03*
Y115798D03*
X47619D03*
X48022D03*
X48424D03*
G54D111*
X47152Y121353D03*
G54D417*
Y125539D03*
G54D111*
Y122158D03*
Y122963D03*
Y123768D03*
Y124573D03*
D03*
G36*
X47216Y126698D02*
G01Y127447D01*
X47231Y127462D01*
Y126683D01*
G37*
G36*
X47048Y126867D02*
G01Y127278D01*
X47078Y127309D01*
Y126836D01*
G37*
G36*
X46919Y127002D02*
G01Y127174D01*
X46980D01*
Y126941D01*
G37*
G36*
X47184Y126730D02*
G01Y127415D01*
X47199Y127430D01*
Y126715D01*
G37*
G36*
X47016Y126899D02*
G01Y127246D01*
X47046Y127277D01*
Y126868D01*
G37*
G36*
X46952Y126970D02*
G01Y127206D01*
X47012D01*
Y126909D01*
G37*
G36*
X47184Y126730D02*
G01Y127415D01*
X47199Y127430D01*
Y126715D01*
G37*
G36*
X47016Y126899D02*
G01Y127246D01*
X47046Y127277D01*
Y126868D01*
G37*
G36*
X46952Y126970D02*
G01Y127206D01*
X47012D01*
Y126909D01*
G37*
G36*
X55570Y123373D02*
G01X55648D01*
Y122794D01*
X55570D01*
Y123373D01*
G37*
G36*
Y126111D02*
G01X55648D01*
Y125531D01*
X55570D01*
Y126111D01*
G37*
G54D235*
X55669Y119179D03*
G54D238*
X56877Y113544D03*
X57279D03*
G54D235*
X54462D03*
G54D236*
X54864D03*
D03*
G54D243*
X55267D03*
G54D235*
X55669D03*
X56072D03*
X56474D03*
G54D239*
X57682D03*
G54D235*
X54462Y115798D03*
G54D236*
X54864D03*
G54D243*
X55267D03*
G54D235*
X55669D03*
X56072D03*
X56474D03*
G54D238*
X56877D03*
X57279D03*
G54D239*
X57682D03*
G54D131*
X59630Y120950D03*
G36*
X59797Y126111D02*
G01X59874D01*
Y125531D01*
X59797D01*
Y126111D01*
G37*
G36*
Y123373D02*
G01X59874D01*
Y122794D01*
X59797D01*
Y123373D01*
G37*
G36*
X59756Y107434D02*
G01X59834D01*
Y106855D01*
X59756D01*
Y107434D01*
G37*
G36*
D02*
G01X59834D01*
Y106855D01*
X59756D01*
Y107434D01*
G37*
G36*
Y104698D02*
G01X59834D01*
Y104118D01*
X59756D01*
Y104698D01*
G37*
G36*
X59797Y101528D02*
G01X59874D01*
Y100949D01*
X59797D01*
Y101528D01*
G37*
G36*
Y98791D02*
G01X59874D01*
Y98211D01*
X59797D01*
Y98791D01*
G37*
G54D367*
X63921Y99119D03*
G54D318*
X63720Y157477D03*
Y154780D03*
G54D319*
X63921Y152281D03*
G54D322*
Y150316D03*
G54D240*
X64323Y146252D03*
G36*
X64557Y114411D02*
G01Y114143D01*
X64526D01*
Y114442D01*
G37*
G36*
X64388Y114580D02*
G01Y113982D01*
X64373D01*
Y114595D01*
G37*
G36*
X64557Y114411D02*
G01Y114143D01*
X64526D01*
Y114442D01*
G37*
G36*
X64388Y114580D02*
G01Y113982D01*
X64373D01*
Y114595D01*
G37*
G36*
X64628Y114402D02*
G01Y114167D01*
X64568Y114106D01*
Y114463D01*
G37*
G36*
X64525Y114443D02*
G01Y114111D01*
X64494D01*
Y114474D01*
G37*
G36*
X64356Y114612D02*
G01Y113950D01*
X64341D01*
Y114627D01*
G37*
G54D237*
X63921Y137026D03*
G54D235*
X64323D03*
G54D244*
X63921Y146252D03*
G54D414*
X65507Y79090D03*
G54D85*
Y80056D03*
G54D107*
Y78124D03*
G54D119*
X65233Y74743D03*
G54D118*
Y73938D03*
G54D105*
Y73134D03*
Y72328D03*
G54D369*
X65370Y155259D03*
G54D362*
Y156998D03*
G36*
X65392Y57605D02*
G01X65469D01*
Y57025D01*
X65392D01*
Y57605D01*
G37*
G36*
Y60342D02*
G01X65469D01*
Y59762D01*
X65392D01*
Y60342D01*
G37*
G36*
Y66701D02*
G01X65469D01*
Y66122D01*
X65392D01*
Y66701D01*
G37*
G36*
Y69439D02*
G01X65469D01*
Y68859D01*
X65392D01*
Y69439D01*
G37*
G54D184*
X68485Y148884D03*
G54D417*
X67407D03*
G54D321*
X66739Y150316D03*
G54D320*
X67141D03*
G54D314*
Y152281D03*
G54D316*
X66739D03*
G54D39*
X67584Y157207D03*
G54D29*
X68139Y154309D03*
X67334Y155098D03*
X68928Y158262D03*
X68139D03*
G54D17*
X68639Y155460D03*
Y156249D03*
G54D246*
X66739Y81884D03*
G54D245*
X67141D03*
X67544D03*
D03*
G54D247*
X67946D03*
G54D249*
X68349D03*
G54D245*
X68751D03*
X69153D03*
G54D66*
X68107Y78849D03*
G54D17*
X68912D03*
G36*
X68070Y72931D02*
G01X67801D01*
X67771Y72962D01*
X68101D01*
G37*
G36*
X68239Y73100D02*
G01X67632D01*
X67617Y73115D01*
X68254D01*
G37*
G36*
X68070Y72931D02*
G01X67801D01*
X67771Y72962D01*
X68101D01*
G37*
G36*
X68239Y73100D02*
G01X67632D01*
X67617Y73115D01*
X68254D01*
G37*
G36*
X68102Y72964D02*
G01X67769D01*
X67738Y72994D01*
X68133D01*
G37*
G36*
X68271Y73132D02*
G01X67600D01*
X67585Y73147D01*
X68286D01*
G37*
G54D442*
X69878Y66154D03*
G54D444*
Y67233D03*
G54D245*
X69556Y81884D03*
X69959D03*
G54D246*
X70361D03*
Y91109D03*
G54D245*
X69959D03*
X69556D03*
G54D193*
X70222Y100424D03*
G54D201*
Y100021D03*
G54D200*
Y99618D03*
G54D199*
Y99216D03*
G54D193*
Y100424D03*
G54D191*
Y100826D03*
G54D251*
X69639Y98632D03*
G54D240*
Y101410D03*
G54D247*
X67946Y91109D03*
G54D244*
X68029Y101410D03*
G54D250*
Y98632D03*
G54D204*
X73396Y70799D03*
Y71201D03*
Y71604D03*
Y72007D03*
D03*
G54D205*
Y72409D03*
G54D206*
Y72811D03*
G54D207*
Y73214D03*
G54D204*
Y73616D03*
G54D208*
Y74019D03*
G54D428*
X74443Y65728D03*
G54D397*
X75328Y62669D03*
G54D324*
X74426Y59706D03*
G54D326*
X74829D03*
G54D324*
X75231D03*
G54D327*
Y57742D03*
G54D328*
X74829D03*
G54D327*
X74426D03*
G54D245*
X74386Y77022D03*
G54D254*
X74789D03*
G54D245*
X75191D03*
X74386Y67796D03*
G54D254*
X74789D03*
G54D245*
X75191D03*
G54D246*
X75594D03*
Y77022D03*
G54D243*
X77204Y143836D03*
G54D191*
X76616Y141236D03*
G54D192*
Y140834D03*
G54D193*
Y140432D03*
G54D191*
Y140029D03*
Y139626D03*
Y139223D03*
G54D192*
Y138821D03*
G54D191*
Y138418D03*
Y138016D03*
Y141638D03*
Y142041D03*
Y142444D03*
Y142845D03*
Y143248D03*
G54D235*
X75996Y146686D03*
X76399D03*
G54D243*
X76801D03*
X77204D03*
G54D241*
Y152690D03*
G54D240*
X75996D03*
X76399D03*
G54D241*
X76801D03*
G54D379*
X79055Y157336D03*
G54D314*
X79216Y125362D03*
Y127326D03*
Y129387D03*
Y131351D03*
D03*
G54D235*
Y134611D03*
Y143836D03*
Y146686D03*
G54D240*
Y152690D03*
G54D314*
X80424Y127326D03*
X80021D03*
X79619D03*
G54D450*
X78909Y155560D03*
G54D242*
X78814Y152690D03*
G54D259*
X78411D03*
G54D240*
X78009D03*
G54D238*
X78814Y146686D03*
G54D239*
X78411D03*
G54D235*
X78009D03*
Y143836D03*
G54D239*
X78411D03*
G54D238*
X78814D03*
Y134611D03*
G54D239*
X78411D03*
G54D235*
X78009D03*
G54D104*
X78226Y62669D03*
G54D246*
X78814Y67796D03*
G54D254*
X78411D03*
G54D245*
X78009D03*
Y77022D03*
G54D254*
X78411D03*
G36*
X77702Y60222D02*
G01Y60488D01*
X77763D01*
Y60162D01*
G37*
G36*
X77759Y60182D02*
G01Y60499D01*
X77790Y60530D01*
Y60151D01*
G37*
G36*
X77928Y60013D02*
G01Y60668D01*
X77943Y60683D01*
Y59998D01*
G37*
G36*
X77896Y60046D02*
G01Y60635D01*
X77911Y60651D01*
Y60030D01*
G37*
G36*
X77727Y60214D02*
G01Y60467D01*
X77758Y60498D01*
Y60184D01*
G37*
G36*
X77896Y60046D02*
G01Y60635D01*
X77911Y60651D01*
Y60030D01*
G37*
G36*
X77727Y60214D02*
G01Y60467D01*
X77758Y60498D01*
Y60184D01*
G37*
G54D246*
X78814Y77022D03*
G54D330*
X77445Y90827D03*
G54D319*
Y92791D03*
G54D191*
X76863Y103883D03*
Y103480D03*
G54D193*
Y103078D03*
G54D191*
Y102675D03*
Y102272D03*
G54D235*
X77446Y104466D03*
Y101689D03*
G54D400*
X77445Y87808D03*
G54D407*
Y88887D03*
G54D134*
X77711Y106943D03*
G54D117*
Y106139D03*
G54D359*
X77864Y85611D03*
G36*
X77727Y60467D02*
G01X77458D01*
X77428Y60498D01*
X77758D01*
G37*
G36*
X77896Y60635D02*
G01X77290D01*
X77274Y60651D01*
X77911D01*
G37*
G36*
X77928Y60668D02*
G01X77257D01*
X77242Y60683D01*
X77943D01*
G37*
G36*
X77759Y60499D02*
G01X77426D01*
X77395Y60530D01*
X77790D01*
G37*
G36*
X77733Y60458D02*
G01X77483D01*
X77422Y60519D01*
X77733D01*
G37*
G36*
X77896Y60635D02*
G01X77290D01*
X77274Y60651D01*
X77911D01*
G37*
G36*
X77727Y60467D02*
G01X77458D01*
X77428Y60498D01*
X77758D01*
G37*
G54D82*
X76882Y64922D03*
G54D245*
X77606Y77022D03*
D03*
Y67796D03*
G54D161*
X77445Y125804D03*
Y126883D03*
Y129829D03*
Y130908D03*
G54D82*
X76882Y111210D03*
Y156370D03*
G54D240*
X77606Y152690D03*
G54D235*
Y146686D03*
Y143836D03*
Y134611D03*
G54D216*
X81251Y112659D03*
Y113062D03*
Y113464D03*
Y113867D03*
G54D217*
Y114270D03*
G54D238*
X80668Y112076D03*
G54D314*
X80827Y131351D03*
Y129387D03*
Y127326D03*
Y125362D03*
G54D318*
X81028Y123668D03*
Y120971D03*
Y118837D03*
G54D337*
Y116140D03*
G54D235*
X83241Y134611D03*
G54D238*
X82839D03*
G54D235*
X82436D03*
G54D239*
X82034D03*
G54D236*
X81631D03*
G54D235*
X80827D03*
G54D237*
X81229D03*
G54D456*
X82845Y145758D03*
Y147158D03*
G54D235*
X80827Y143836D03*
G54D237*
X81229D03*
G54D236*
X81631D03*
G54D239*
X82034D03*
G54D235*
X82436D03*
G54D31*
X81631Y146066D03*
G54D216*
X81012Y147676D03*
Y147273D03*
G54D235*
X83241Y143836D03*
G54D238*
X82839D03*
G54D412*
X100147Y62886D03*
Y61807D03*
G54D298*
X100216Y64250D03*
G54D270*
X100147Y70175D03*
X100549D03*
G54D269*
Y66593D03*
X100147D03*
G54D17*
X99825Y58322D03*
Y59126D03*
G54D268*
X99342Y70175D03*
G54D255*
X99744D03*
G54D247*
X99342Y66593D03*
G54D245*
X99744D03*
G54D304*
X100538Y64950D03*
G54D297*
Y64951D03*
G54D22*
X100630Y59126D03*
Y58322D03*
G54D144*
X103633Y86979D03*
G54D136*
Y87784D03*
G54D84*
Y88589D03*
G54D136*
Y90199D03*
G54D142*
Y91004D03*
G54D136*
Y91809D03*
G54D345*
X103448Y76933D03*
G54D347*
Y74969D03*
G54D234*
Y83055D03*
Y79473D03*
G54D568*
X103633Y86979D03*
G54D344*
X103850Y76933D03*
X104253D03*
G54D346*
Y74969D03*
X103850D03*
G54D344*
X103568Y63328D03*
X103971D03*
X104373D03*
G54D348*
Y61364D03*
X103971D03*
X103568D03*
G54D269*
X103850Y79473D03*
X104253D03*
Y83055D03*
X103850D03*
G54D22*
X102119Y125539D03*
G54D18*
X102723Y125941D03*
G54D22*
X102119Y126344D03*
G54D18*
X102723Y126747D03*
G54D22*
X102119Y127149D03*
G54D62*
X101818Y128155D03*
G54D304*
X102156Y131149D03*
X102647D03*
G54D538*
X102401Y131270D03*
G36*
X102398Y131154D02*
G01X102406D01*
Y131387D01*
X102398D01*
Y131154D01*
G37*
G54D479*
X102401Y131271D03*
G54D539*
D03*
G36*
X102390Y131130D02*
G01Y131412D01*
X102397D01*
Y131130D01*
G37*
G54D479*
X102401Y131271D03*
G54D538*
Y131270D03*
G54D539*
Y131271D03*
G54D479*
D03*
G36*
X102398Y131154D02*
G01X102406D01*
Y131387D01*
X102398D01*
Y131154D01*
G37*
G54D276*
X102401Y130989D03*
G54D17*
X31639Y73053D03*
Y72248D03*
D03*
Y71443D03*
Y70638D03*
Y67418D03*
Y68223D03*
Y69028D03*
Y69833D03*
G54D281*
X32915Y59340D03*
X33559D03*
G54D285*
X33238Y60040D03*
G54D66*
X33652Y55504D03*
G54D72*
Y56309D03*
G54D66*
Y57114D03*
G54D72*
Y57919D03*
G54D280*
X33238Y61489D03*
G54D286*
X33559Y60789D03*
X32915D03*
G54D285*
X33238Y60040D03*
G54D527*
X89601Y139770D03*
G36*
X89597Y139654D02*
G01X89605D01*
Y139889D01*
X89597D01*
Y139654D01*
G37*
G54D475*
X89601Y139772D03*
G54D529*
Y139770D03*
G54D475*
Y139772D03*
G36*
X89589Y139630D02*
G01Y139913D01*
X89597D01*
Y139630D01*
G37*
G54D527*
X89601Y139770D03*
G54D529*
D03*
G54D475*
Y139772D03*
G36*
X89597Y139654D02*
G01X89605D01*
Y139889D01*
X89597D01*
Y139654D01*
G37*
G54D273*
X89601Y140053D03*
G54D301*
X89847Y139892D03*
X89356D03*
G54D193*
X91513Y140432D03*
G54D191*
Y140029D03*
Y139626D03*
Y139223D03*
G54D21*
X100912Y126344D03*
Y127149D03*
G54D23*
D03*
G36*
X100587Y131440D02*
G01X100665D01*
Y130860D01*
X100587D01*
Y131440D01*
G37*
G36*
X100868Y131154D02*
G01X100876D01*
Y131387D01*
X100868D01*
Y131154D01*
G37*
G54D479*
X100872Y131271D03*
G54D532*
D03*
G54D531*
Y131270D03*
G54D479*
Y131271D03*
G54D532*
D03*
G54D531*
Y131270D03*
G54D479*
Y131271D03*
G36*
X100860Y131130D02*
G01Y131412D01*
X100867D01*
Y131130D01*
G37*
G36*
X100868Y131154D02*
G01X100876D01*
Y131387D01*
X100868D01*
Y131154D01*
G37*
G54D275*
X100872Y130989D03*
G54D278*
D03*
G54D304*
X101118Y131149D03*
G54D303*
X100626D03*
G54D23*
X50316Y89233D03*
Y90038D03*
Y91648D03*
Y90843D03*
Y88428D03*
Y87623D03*
Y86818D03*
Y86013D03*
G54D45*
Y92453D03*
G54D46*
D03*
G54D314*
X48223Y104432D03*
Y106396D03*
X48625Y104432D03*
Y106396D03*
G36*
X48848Y101528D02*
G01X48926D01*
Y100949D01*
X48848D01*
Y101528D01*
G37*
G36*
X48648D02*
G01X48724D01*
Y100949D01*
X48648D01*
Y101528D01*
G37*
G36*
X48446D02*
G01X48523D01*
Y100949D01*
X48446D01*
Y101528D01*
G37*
G36*
X48245D02*
G01X48322D01*
Y100949D01*
X48245D01*
Y101528D01*
G37*
G36*
Y98791D02*
G01X48322D01*
Y98211D01*
X48245D01*
Y98791D01*
G37*
G54D235*
X48424Y110163D03*
X48827D03*
G36*
X48848Y98791D02*
G01X48926D01*
Y98211D01*
X48848D01*
Y98791D01*
G37*
G36*
D02*
G01X48926D01*
Y98211D01*
X48848D01*
Y98791D01*
G37*
G36*
X48648D02*
G01X48724D01*
Y98211D01*
X48648D01*
Y98791D01*
G37*
G36*
X48446D02*
G01X48523D01*
Y98211D01*
X48446D01*
Y98791D01*
G37*
G54D367*
X46854Y82294D03*
G54D368*
Y80555D03*
G54D17*
X46613Y61542D03*
Y59126D03*
G54D290*
X46371Y63232D03*
G54D289*
X46694Y63932D03*
G54D291*
X47015Y63232D03*
G54D235*
X47619Y110163D03*
G36*
X47548Y95228D02*
G01Y95526D01*
X47608D01*
Y95167D01*
G37*
G36*
X47556Y95219D02*
G01Y95504D01*
X47586Y95534D01*
Y95189D01*
G37*
G36*
X47724Y95051D02*
G01Y95673D01*
X47739Y95688D01*
Y95035D01*
G37*
G36*
X47548Y95228D02*
G01Y95526D01*
X47608D01*
Y95167D01*
G37*
G36*
X47556Y95219D02*
G01Y95504D01*
X47586Y95534D01*
Y95189D01*
G37*
G36*
X47724Y95051D02*
G01Y95673D01*
X47739Y95688D01*
Y95035D01*
G37*
G36*
X47516Y95260D02*
G01Y95494D01*
X47577D01*
Y95199D01*
G37*
G36*
X47588Y95187D02*
G01Y95537D01*
X47618Y95567D01*
Y95156D01*
G37*
G36*
X47757Y95018D02*
G01Y95705D01*
X47772Y95721D01*
Y95003D01*
G37*
G36*
X47641Y98791D02*
G01X47718D01*
Y98211D01*
X47641D01*
Y98791D01*
G37*
G36*
X47440D02*
G01X47517D01*
Y98211D01*
X47440D01*
Y98791D01*
G37*
G36*
Y101528D02*
G01X47517D01*
Y100949D01*
X47440D01*
Y101528D01*
G37*
G36*
X47641D02*
G01X47718D01*
Y100949D01*
X47641D01*
Y101528D01*
G37*
G54D316*
X47820Y104432D03*
Y106396D03*
G36*
X48044Y101528D02*
G01X48121D01*
Y100949D01*
X48044D01*
Y101528D01*
G37*
G36*
X47842D02*
G01X47919D01*
Y100949D01*
X47842D01*
Y101528D01*
G37*
G54D235*
X48022Y110163D03*
G36*
X48044Y98791D02*
G01X48121D01*
Y98211D01*
X48044D01*
Y98791D01*
G37*
G36*
X47842D02*
G01X47919D01*
Y98211D01*
X47842D01*
Y98791D01*
G37*
G54D24*
X49511Y89636D03*
Y92051D03*
Y91246D03*
Y90441D03*
Y88831D03*
D03*
Y88026D03*
Y87221D03*
Y86416D03*
G36*
X49653Y98791D02*
G01X49731D01*
Y98211D01*
X49653D01*
Y98791D01*
G37*
G36*
X49452D02*
G01X49530D01*
Y98211D01*
X49452D01*
Y98791D01*
G37*
G36*
X49251D02*
G01X49328D01*
Y98211D01*
X49251D01*
Y98791D01*
G37*
G36*
X49050D02*
G01X49127D01*
Y98211D01*
X49050D01*
Y98791D01*
G37*
G36*
X49653Y101528D02*
G01X49731D01*
Y100949D01*
X49653D01*
Y101528D01*
G37*
G36*
X49452D02*
G01X49530D01*
Y100949D01*
X49452D01*
Y101528D01*
G37*
G54D235*
X49229Y110163D03*
G54D239*
X49632D03*
G36*
X49050Y101528D02*
G01X49127D01*
Y100949D01*
X49050D01*
Y101528D01*
G37*
G36*
X49251D02*
G01X49328D01*
Y100949D01*
X49251D01*
Y101528D01*
G37*
G54D164*
X50075Y108851D03*
G54D166*
Y107772D03*
G54D315*
X50235Y104432D03*
Y106396D03*
G54D237*
X50437Y110163D03*
G54D238*
X50034D03*
G36*
X50458Y98791D02*
G01X50536D01*
Y98211D01*
X50458D01*
Y98791D01*
G37*
G36*
X50257D02*
G01X50335D01*
Y98211D01*
X50257D01*
Y98791D01*
G37*
G36*
X50056D02*
G01X50134D01*
Y98211D01*
X50056D01*
Y98791D01*
G37*
G36*
Y101528D02*
G01X50134D01*
Y100949D01*
X50056D01*
Y101528D01*
G37*
G36*
X50257D02*
G01X50335D01*
Y100949D01*
X50257D01*
Y101528D01*
G37*
G36*
D02*
G01X50335D01*
Y100949D01*
X50257D01*
Y101528D01*
G37*
G36*
X50458D02*
G01X50536D01*
Y100949D01*
X50458D01*
Y101528D01*
G37*
G54D315*
X50638Y104432D03*
Y106396D03*
G54D172*
X50879Y108851D03*
G54D171*
Y107772D03*
G54D315*
X51041Y104432D03*
G54D314*
X51443D03*
Y106396D03*
G54D315*
X51041D03*
G36*
X51264Y101528D02*
G01X51341D01*
Y100949D01*
X51264D01*
Y101528D01*
G37*
G36*
X51062D02*
G01X51139D01*
Y100949D01*
X51062D01*
Y101528D01*
G37*
G36*
X50861Y98791D02*
G01X50938D01*
Y98211D01*
X50861D01*
Y98791D01*
G37*
G36*
X51062D02*
G01X51139D01*
Y98211D01*
X51062D01*
Y98791D01*
G37*
G36*
X51264D02*
G01X51341D01*
Y98211D01*
X51264D01*
Y98791D01*
G37*
G54D235*
X51242Y110163D03*
G54D236*
X50839D03*
G36*
X50660Y98791D02*
G01X50737D01*
Y98211D01*
X50660D01*
Y98791D01*
G37*
G36*
Y101528D02*
G01X50737D01*
Y100949D01*
X50660D01*
Y101528D01*
G37*
G36*
X50861D02*
G01X50938D01*
Y100949D01*
X50861D01*
Y101528D01*
G37*
G54D235*
X51644Y115798D03*
X51242D03*
G54D236*
X50839D03*
G54D237*
X50437D03*
G54D235*
X51644Y113544D03*
X51242D03*
G54D236*
X50839D03*
G54D237*
X50437D03*
G36*
X49895Y126111D02*
G01X49972D01*
Y125531D01*
X49895D01*
Y126111D01*
G37*
G36*
X49694D02*
G01X49771D01*
Y125531D01*
X49694D01*
Y126111D01*
G37*
G36*
X49493D02*
G01X49570D01*
Y125531D01*
X49493D01*
Y126111D01*
G37*
G36*
D02*
G01X49570D01*
Y125531D01*
X49493D01*
Y126111D01*
G37*
G36*
Y123373D02*
G01X49570D01*
Y122794D01*
X49493D01*
Y123373D01*
G37*
G54D239*
X49632Y119179D03*
G54D238*
X50034D03*
G54D239*
X49632Y115798D03*
G54D238*
X50034D03*
Y113544D03*
G54D239*
X49632D03*
G36*
X49895Y123373D02*
G01X49972D01*
Y122794D01*
X49895D01*
Y123373D01*
G37*
G36*
X49694D02*
G01X49771D01*
Y122794D01*
X49694D01*
Y123373D01*
G37*
G54D240*
X49833Y132422D03*
X49431D03*
G54D17*
X49752Y139866D03*
G54D191*
X49833Y143772D03*
Y143369D03*
G54D196*
Y142967D03*
G54D191*
Y142565D03*
G54D240*
Y137654D03*
X49431D03*
G36*
X50901Y123373D02*
G01X50979D01*
Y122794D01*
X50901D01*
Y123373D01*
G37*
G54D236*
X50839Y119179D03*
G54D237*
X50437D03*
G36*
X50700Y123373D02*
G01X50778D01*
Y122794D01*
X50700D01*
Y123373D01*
G37*
G36*
X50499D02*
G01X50576D01*
Y122794D01*
X50499D01*
Y123373D01*
G37*
G36*
X50297D02*
G01X50375D01*
Y122794D01*
X50297D01*
Y123373D01*
G37*
G36*
Y126111D02*
G01X50375D01*
Y125531D01*
X50297D01*
Y126111D01*
G37*
G36*
X50499D02*
G01X50576D01*
Y125531D01*
X50499D01*
Y126111D01*
G37*
G36*
X50700D02*
G01X50778D01*
Y125531D01*
X50700D01*
Y126111D01*
G37*
G36*
X50901D02*
G01X50979D01*
Y125531D01*
X50901D01*
Y126111D01*
G37*
G36*
X51706D02*
G01X51783D01*
Y125531D01*
X51706D01*
Y126111D01*
G37*
G36*
X51505D02*
G01X51583D01*
Y125531D01*
X51505D01*
Y126111D01*
G37*
G36*
X51304D02*
G01X51381D01*
Y125531D01*
X51304D01*
Y126111D01*
G37*
G36*
X51102Y123373D02*
G01X51180D01*
Y122794D01*
X51102D01*
Y123373D01*
G37*
G36*
X51304D02*
G01X51381D01*
Y122794D01*
X51304D01*
Y123373D01*
G37*
G36*
X51505D02*
G01X51583D01*
Y122794D01*
X51505D01*
Y123373D01*
G37*
G36*
X51706D02*
G01X51783D01*
Y122794D01*
X51706D01*
Y123373D01*
G37*
G54D235*
X51644Y119179D03*
X51242D03*
G36*
X51102Y126111D02*
G01X51180D01*
Y125531D01*
X51102D01*
Y126111D01*
G37*
G36*
X51908Y123373D02*
G01X51985D01*
Y122794D01*
X51908D01*
Y123373D01*
G37*
G36*
X52109D02*
G01X52186D01*
Y122794D01*
X52109D01*
Y123373D01*
G37*
G36*
X52310D02*
G01X52387D01*
Y122794D01*
X52310D01*
Y123373D01*
G37*
G36*
X52511D02*
G01X52589D01*
Y122794D01*
X52511D01*
Y123373D01*
G37*
G36*
Y126111D02*
G01X52589D01*
Y125531D01*
X52511D01*
Y126111D01*
G37*
G36*
X52310D02*
G01X52387D01*
Y125531D01*
X52310D01*
Y126111D01*
G37*
G54D235*
X52449Y113544D03*
X52047D03*
Y115798D03*
X52449D03*
Y119179D03*
X52047D03*
G36*
X51908Y126111D02*
G01X51985D01*
Y125531D01*
X51908D01*
Y126111D01*
G37*
G36*
X52109D02*
G01X52186D01*
Y125531D01*
X52109D01*
Y126111D01*
G37*
G36*
X53518Y123373D02*
G01X53595D01*
Y122794D01*
X53518D01*
Y123373D01*
G37*
G36*
X53719D02*
G01X53796D01*
Y122794D01*
X53719D01*
Y123373D01*
G37*
G36*
X53558Y119801D02*
G01Y120067D01*
X53619D01*
Y119740D01*
G37*
G36*
X53598Y119761D02*
G01Y120076D01*
X53629Y120107D01*
Y119730D01*
G37*
G36*
X53767Y119591D02*
G01Y120245D01*
X53782Y120260D01*
Y119576D01*
G37*
G36*
X53558Y119801D02*
G01Y120067D01*
X53619D01*
Y119740D01*
G37*
G36*
X53598Y119761D02*
G01Y120076D01*
X53629Y120107D01*
Y119730D01*
G37*
G36*
X53767Y119591D02*
G01Y120245D01*
X53782Y120260D01*
Y119576D01*
G37*
G36*
X53799Y119559D02*
G01Y120277D01*
X53814Y120292D01*
Y119544D01*
G37*
G36*
X53631Y119729D02*
G01Y120109D01*
X53661Y120140D01*
Y119698D01*
G37*
G36*
X53526Y119833D02*
G01Y120035D01*
X53587D01*
Y119772D01*
G37*
G36*
X53518Y126111D02*
G01X53595D01*
Y125531D01*
X53518D01*
Y126111D01*
G37*
G36*
X53719D02*
G01X53796D01*
Y125531D01*
X53719D01*
Y126111D01*
G37*
G54D95*
X54558Y131496D03*
G54D235*
X54462Y119179D03*
G54D420*
X55332Y120950D03*
G54D172*
X54663Y128541D03*
G54D169*
X55468Y128622D03*
G54D172*
X54663Y129620D03*
G54D160*
X55468Y129701D03*
D03*
G54D161*
Y130634D03*
Y131713D03*
G54D236*
X54864Y119179D03*
G54D243*
X55267D03*
G54D236*
X54864D03*
G36*
X55369Y126111D02*
G01X55447D01*
Y125531D01*
X55369D01*
Y126111D01*
G37*
G36*
Y123373D02*
G01X55447D01*
Y122794D01*
X55369D01*
Y123373D01*
G37*
G36*
X52713Y126111D02*
G01X52790D01*
Y125531D01*
X52713D01*
Y126111D01*
G37*
G36*
X52914D02*
G01X52991D01*
Y125531D01*
X52914D01*
Y126111D01*
G37*
G36*
Y123373D02*
G01X52991D01*
Y122794D01*
X52914D01*
Y123373D01*
G37*
G36*
X52713D02*
G01X52790D01*
Y122794D01*
X52713D01*
Y123373D01*
G37*
G36*
X53322Y120036D02*
G01Y119801D01*
X53261Y119740D01*
Y120097D01*
G37*
G36*
X53282Y120076D02*
G01Y119746D01*
X53251D01*
Y120107D01*
G37*
G36*
X53113Y120245D02*
G01Y119584D01*
X53098D01*
Y120260D01*
G37*
G36*
X53322Y120036D02*
G01Y119801D01*
X53261Y119740D01*
Y120097D01*
G37*
G36*
X53282Y120076D02*
G01Y119746D01*
X53251D01*
Y120107D01*
G37*
G36*
X53113Y120245D02*
G01Y119584D01*
X53098D01*
Y120260D01*
G37*
G36*
X53081Y120277D02*
G01Y119552D01*
X53066D01*
Y120292D01*
G37*
G36*
X53249Y120109D02*
G01Y119714D01*
X53219D01*
Y120140D01*
G37*
G36*
X53354Y120004D02*
G01Y119833D01*
X53293Y119772D01*
Y120065D01*
G37*
G36*
X53115Y126111D02*
G01X53192D01*
Y125531D01*
X53115D01*
Y126111D01*
G37*
G36*
X53317D02*
G01X53394D01*
Y125531D01*
X53317D01*
Y126111D01*
G37*
G36*
Y123373D02*
G01X53394D01*
Y122794D01*
X53317D01*
Y123373D01*
G37*
G36*
X53115D02*
G01X53192D01*
Y122794D01*
X53115D01*
Y123373D01*
G37*
G54D26*
X56756Y86013D03*
Y86818D03*
Y87623D03*
Y88428D03*
Y89233D03*
Y90038D03*
Y90843D03*
Y91648D03*
G54D44*
Y92453D03*
G54D423*
X55283Y96881D03*
G54D26*
X55951Y87221D03*
Y86416D03*
Y85611D03*
Y88026D03*
Y88831D03*
Y89636D03*
Y90441D03*
Y91246D03*
Y92051D03*
G54D421*
X55042Y104448D03*
D03*
G36*
X56174Y98791D02*
G01X56252D01*
Y98211D01*
X56174D01*
Y98791D01*
G37*
G36*
X55973D02*
G01X56050D01*
Y98211D01*
X55973D01*
Y98791D01*
G37*
G36*
X55772D02*
G01X55849D01*
Y98211D01*
X55772D01*
Y98791D01*
G37*
G36*
X55570D02*
G01X55648D01*
Y98211D01*
X55570D01*
Y98791D01*
G37*
G36*
X55369D02*
G01X55447D01*
Y98211D01*
X55369D01*
Y98791D01*
G37*
G36*
Y101528D02*
G01X55447D01*
Y100949D01*
X55369D01*
Y101528D01*
G37*
G54D236*
X54864Y110163D03*
G54D243*
X55267D03*
G54D235*
X55669D03*
X56072D03*
G36*
X56174Y101528D02*
G01X56252D01*
Y100949D01*
X56174D01*
Y101528D01*
G37*
G36*
X55973D02*
G01X56050D01*
Y100949D01*
X55973D01*
Y101528D01*
G37*
G36*
X55772D02*
G01X55849D01*
Y100949D01*
X55772D01*
Y101528D01*
G37*
G36*
X55570D02*
G01X55648D01*
Y100949D01*
X55570D01*
Y101528D01*
G37*
G54D25*
X52731Y91246D03*
Y90441D03*
Y89636D03*
Y88831D03*
Y88026D03*
Y85611D03*
D03*
Y86416D03*
Y87221D03*
Y92051D03*
D03*
G54D184*
X57296Y108956D03*
G36*
X58549Y107434D02*
G01X58626D01*
Y106855D01*
X58549D01*
Y107434D01*
G37*
G36*
X58750D02*
G01X58828D01*
Y106855D01*
X58750D01*
Y107434D01*
G37*
G36*
X58951D02*
G01X59029D01*
Y106855D01*
X58951D01*
Y107434D01*
G37*
G36*
Y104698D02*
G01X59029D01*
Y104118D01*
X58951D01*
Y104698D01*
G37*
G36*
X58750D02*
G01X58828D01*
Y104118D01*
X58750D01*
Y104698D01*
G37*
G36*
X58549D02*
G01X58626D01*
Y104118D01*
X58549D01*
Y104698D01*
G37*
G36*
X58590Y101528D02*
G01X58666D01*
Y100949D01*
X58590D01*
Y101528D01*
G37*
G54D235*
X58890Y115798D03*
Y113544D03*
Y110163D03*
G36*
X58590Y98791D02*
G01X58666D01*
Y98211D01*
X58590D01*
Y98791D01*
G37*
G36*
X58791D02*
G01X58868D01*
Y98211D01*
X58791D01*
Y98791D01*
G37*
G36*
X58992D02*
G01X59069D01*
Y98211D01*
X58992D01*
Y98791D01*
G37*
G36*
Y101528D02*
G01X59069D01*
Y100949D01*
X58992D01*
Y101528D01*
G37*
G36*
X58791D02*
G01X58868D01*
Y100949D01*
X58791D01*
Y101528D01*
G37*
G36*
X58590Y126111D02*
G01X58666D01*
Y125531D01*
X58590D01*
Y126111D01*
G37*
G36*
X58791D02*
G01X58868D01*
Y125531D01*
X58791D01*
Y126111D01*
G37*
G36*
X58992D02*
G01X59069D01*
Y125531D01*
X58992D01*
Y126111D01*
G37*
G36*
Y123373D02*
G01X59069D01*
Y122794D01*
X58992D01*
Y123373D01*
G37*
G36*
X58791D02*
G01X58868D01*
Y122794D01*
X58791D01*
Y123373D01*
G37*
G36*
X58590D02*
G01X58666D01*
Y122794D01*
X58590D01*
Y123373D01*
G37*
G54D17*
X58930Y133266D03*
Y132462D03*
D03*
Y134072D03*
Y134877D03*
Y135682D03*
Y136486D03*
Y137292D03*
G54D235*
X58890Y119179D03*
G54D421*
X58229Y108956D03*
G36*
X57946Y107434D02*
G01X58023D01*
Y106855D01*
X57946D01*
Y107434D01*
G37*
G36*
X58147D02*
G01X58224D01*
Y106855D01*
X58147D01*
Y107434D01*
G37*
G36*
X58348D02*
G01X58425D01*
Y106855D01*
X58348D01*
Y107434D01*
G37*
G36*
Y104698D02*
G01X58425D01*
Y104118D01*
X58348D01*
Y104698D01*
G37*
G36*
X58147D02*
G01X58224D01*
Y104118D01*
X58147D01*
Y104698D01*
G37*
G36*
X57946D02*
G01X58023D01*
Y104118D01*
X57946D01*
Y104698D01*
G37*
G36*
X57986Y101528D02*
G01X58063D01*
Y100949D01*
X57986D01*
Y101528D01*
G37*
G54D235*
X58085Y115798D03*
Y113544D03*
Y110163D03*
G36*
X57986Y98791D02*
G01X58063D01*
Y98211D01*
X57986D01*
Y98791D01*
G37*
G36*
X58187D02*
G01X58264D01*
Y98211D01*
X58187D01*
Y98791D01*
G37*
G36*
X58388D02*
G01X58465D01*
Y98211D01*
X58388D01*
Y98791D01*
G37*
G36*
Y101528D02*
G01X58465D01*
Y100949D01*
X58388D01*
Y101528D01*
G37*
G36*
X58187D02*
G01X58264D01*
Y100949D01*
X58187D01*
Y101528D01*
G37*
G36*
X57986Y126111D02*
G01X58063D01*
Y125531D01*
X57986D01*
Y126111D01*
G37*
G36*
X58187D02*
G01X58264D01*
Y125531D01*
X58187D01*
Y126111D01*
G37*
G36*
X58388D02*
G01X58465D01*
Y125531D01*
X58388D01*
Y126111D01*
G37*
G36*
Y123373D02*
G01X58465D01*
Y122794D01*
X58388D01*
Y123373D01*
G37*
G36*
D02*
G01X58465D01*
Y122794D01*
X58388D01*
Y123373D01*
G37*
G36*
X58187D02*
G01X58264D01*
Y122794D01*
X58187D01*
Y123373D01*
G37*
G36*
X57986D02*
G01X58063D01*
Y122794D01*
X57986D01*
Y123373D01*
G37*
G54D17*
X58125Y133266D03*
Y132462D03*
Y134072D03*
Y134877D03*
Y135682D03*
Y136486D03*
Y137292D03*
Y138097D03*
G54D235*
X58085Y119179D03*
G36*
X60803Y101528D02*
G01X60881D01*
Y100949D01*
X60803D01*
Y101528D01*
G37*
G36*
X60602D02*
G01X60679D01*
Y100949D01*
X60602D01*
Y101528D01*
G37*
G36*
D02*
G01X60679D01*
Y100949D01*
X60602D01*
Y101528D01*
G37*
G36*
X60562Y104698D02*
G01X60639D01*
Y104118D01*
X60562D01*
Y104698D01*
G37*
G36*
X60763D02*
G01X60840D01*
Y104118D01*
X60763D01*
Y104698D01*
G37*
G36*
X60964D02*
G01X61041D01*
Y104118D01*
X60964D01*
Y104698D01*
G37*
G36*
X60562Y107434D02*
G01X60639D01*
Y106855D01*
X60562D01*
Y107434D01*
G37*
G36*
X60666Y108745D02*
G01Y109158D01*
X60696Y109189D01*
Y108714D01*
G37*
G36*
X60834Y108576D02*
G01Y109327D01*
X60849Y109342D01*
Y108561D01*
G37*
G36*
X60529Y108882D02*
G01Y109052D01*
X60590D01*
Y108821D01*
G37*
G36*
X60802Y108608D02*
G01Y109295D01*
X60817Y109310D01*
Y108593D01*
G37*
G36*
X60633Y108777D02*
G01Y109126D01*
X60664Y109157D01*
Y108746D01*
G37*
G36*
X60561Y108850D02*
G01Y109084D01*
X60622D01*
Y108789D01*
G37*
G36*
X60802Y108608D02*
G01Y109295D01*
X60817Y109310D01*
Y108593D01*
G37*
G36*
X60633Y108777D02*
G01Y109126D01*
X60664Y109157D01*
Y108746D01*
G37*
G36*
X60561Y108850D02*
G01Y109084D01*
X60622D01*
Y108789D01*
G37*
G36*
X60964Y107434D02*
G01X61041D01*
Y106855D01*
X60964D01*
Y107434D01*
G37*
G36*
X60763D02*
G01X60840D01*
Y106855D01*
X60763D01*
Y107434D01*
G37*
G54D314*
X60097Y154780D03*
Y157477D03*
G36*
X59998Y126111D02*
G01X60076D01*
Y125531D01*
X59998D01*
Y126111D01*
G37*
G36*
Y123373D02*
G01X60076D01*
Y122794D01*
X59998D01*
Y123373D01*
G37*
G36*
X59958Y107434D02*
G01X60035D01*
Y106855D01*
X59958D01*
Y107434D01*
G37*
G36*
X60084Y109327D02*
G01Y108569D01*
X60068D01*
Y109342D01*
G37*
G36*
X60116Y109295D02*
G01Y108600D01*
X60101D01*
Y109310D01*
G37*
G36*
X60116Y109295D02*
G01Y108600D01*
X60101D01*
Y109310D01*
G37*
G36*
X59998Y98791D02*
G01X60076D01*
Y98211D01*
X59998D01*
Y98791D01*
G37*
G36*
Y101528D02*
G01X60076D01*
Y100949D01*
X59998D01*
Y101528D01*
G37*
G36*
X59958Y104698D02*
G01X60035D01*
Y104118D01*
X59958D01*
Y104698D01*
G37*
G36*
X60159Y107434D02*
G01X60237D01*
Y106855D01*
X60159D01*
Y107434D01*
G37*
G36*
Y104698D02*
G01X60237D01*
Y104118D01*
X60159D01*
Y104698D01*
G37*
G36*
X60389Y109021D02*
G01Y108882D01*
X60328Y108821D01*
Y109082D01*
G37*
G36*
X60252Y109158D02*
G01Y108730D01*
X60222D01*
Y109189D01*
G37*
G36*
X60284Y109126D02*
G01Y108762D01*
X60254D01*
Y109157D01*
G37*
G36*
X60357Y109053D02*
G01Y108850D01*
X60296Y108789D01*
Y109114D01*
G37*
G36*
X60284Y109126D02*
G01Y108762D01*
X60254D01*
Y109157D01*
G37*
G36*
X60357Y109053D02*
G01Y108850D01*
X60296Y108789D01*
Y109114D01*
G37*
G36*
X60199Y98791D02*
G01X60277D01*
Y98211D01*
X60199D01*
Y98791D01*
G37*
G36*
Y101528D02*
G01X60277D01*
Y100949D01*
X60199D01*
Y101528D01*
G37*
G36*
X60360Y104698D02*
G01X60437D01*
Y104118D01*
X60360D01*
Y104698D01*
G37*
G36*
Y107434D02*
G01X60437D01*
Y106855D01*
X60360D01*
Y107434D01*
G37*
G36*
X59193Y126111D02*
G01X59270D01*
Y125531D01*
X59193D01*
Y126111D01*
G37*
G36*
X59394D02*
G01X59472D01*
Y125531D01*
X59394D01*
Y126111D01*
G37*
G36*
Y123373D02*
G01X59472D01*
Y122794D01*
X59394D01*
Y123373D01*
G37*
G36*
X59193D02*
G01X59270D01*
Y122794D01*
X59193D01*
Y123373D01*
G37*
G36*
X59354Y107434D02*
G01X59431D01*
Y106855D01*
X59354D01*
Y107434D01*
G37*
G54D243*
X59292Y110163D03*
Y113544D03*
Y115798D03*
Y119179D03*
G36*
X59193Y98791D02*
G01X59270D01*
Y98211D01*
X59193D01*
Y98791D01*
G37*
G36*
X59394D02*
G01X59472D01*
Y98211D01*
X59394D01*
Y98791D01*
G37*
G36*
Y101528D02*
G01X59472D01*
Y100949D01*
X59394D01*
Y101528D01*
G37*
G36*
X59193D02*
G01X59270D01*
Y100949D01*
X59193D01*
Y101528D01*
G37*
G36*
X59354Y104698D02*
G01X59431D01*
Y104118D01*
X59354D01*
Y104698D01*
G37*
G36*
X59595Y126111D02*
G01X59673D01*
Y125531D01*
X59595D01*
Y126111D01*
G37*
G36*
Y123373D02*
G01X59673D01*
Y122794D01*
X59595D01*
Y123373D01*
G37*
G54D236*
X59695Y110163D03*
Y113544D03*
Y115798D03*
Y119179D03*
G36*
X59595Y98791D02*
G01X59673D01*
Y98211D01*
X59595D01*
Y98791D01*
G37*
G36*
Y101528D02*
G01X59673D01*
Y100949D01*
X59595D01*
Y101528D01*
G37*
G36*
X59555Y104698D02*
G01X59633D01*
Y104118D01*
X59555D01*
Y104698D01*
G37*
G36*
Y107434D02*
G01X59633D01*
Y106855D01*
X59555D01*
Y107434D01*
G37*
G36*
X57140D02*
G01X57217D01*
Y106855D01*
X57140D01*
Y107434D01*
G37*
G36*
X57342D02*
G01X57419D01*
Y106855D01*
X57342D01*
Y107434D01*
G37*
G36*
X57382Y98791D02*
G01X57459D01*
Y98211D01*
X57382D01*
Y98791D01*
G37*
G36*
X57181D02*
G01X57258D01*
Y98211D01*
X57181D01*
Y98791D01*
G37*
G54D238*
X57279Y110163D03*
G36*
X57382Y101528D02*
G01X57459D01*
Y100949D01*
X57382D01*
Y101528D01*
G37*
G36*
X57181D02*
G01X57258D01*
Y100949D01*
X57181D01*
Y101528D01*
G37*
G36*
X57140Y104698D02*
G01X57217D01*
Y104118D01*
X57140D01*
Y104698D01*
G37*
G36*
X57342D02*
G01X57419D01*
Y104118D01*
X57342D01*
Y104698D01*
G37*
G36*
X57583Y98791D02*
G01X57660D01*
Y98211D01*
X57583D01*
Y98791D01*
G37*
G54D239*
X57682Y110163D03*
G36*
X57784Y98791D02*
G01X57861D01*
Y98211D01*
X57784D01*
Y98791D01*
G37*
G36*
Y101528D02*
G01X57861D01*
Y100949D01*
X57784D01*
Y101528D01*
G37*
G36*
X57583D02*
G01X57660D01*
Y100949D01*
X57583D01*
Y101528D01*
G37*
G36*
X57543Y104698D02*
G01X57620D01*
Y104118D01*
X57543D01*
Y104698D01*
G37*
G36*
D02*
G01X57620D01*
Y104118D01*
X57543D01*
Y104698D01*
G37*
G36*
X57744D02*
G01X57821D01*
Y104118D01*
X57744D01*
Y104698D01*
G37*
G36*
Y107434D02*
G01X57821D01*
Y106855D01*
X57744D01*
Y107434D01*
G37*
G36*
X57543D02*
G01X57620D01*
Y106855D01*
X57543D01*
Y107434D01*
G37*
G36*
X56577Y98791D02*
G01X56654D01*
Y98211D01*
X56577D01*
Y98791D01*
G37*
G36*
X56375D02*
G01X56453D01*
Y98211D01*
X56375D01*
Y98791D01*
G37*
G36*
D02*
G01X56453D01*
Y98211D01*
X56375D01*
Y98791D01*
G37*
G36*
Y101528D02*
G01X56453D01*
Y100949D01*
X56375D01*
Y101528D01*
G37*
G54D235*
X56474Y110163D03*
G36*
X56536Y107434D02*
G01X56614D01*
Y106855D01*
X56536D01*
Y107434D01*
G37*
G36*
Y104698D02*
G01X56614D01*
Y104118D01*
X56536D01*
Y104698D01*
G37*
G36*
D02*
G01X56614D01*
Y104118D01*
X56536D01*
Y104698D01*
G37*
G36*
X56577Y101528D02*
G01X56654D01*
Y100949D01*
X56577D01*
Y101528D01*
G37*
G36*
X56738Y107434D02*
G01X56815D01*
Y106855D01*
X56738D01*
Y107434D01*
G37*
G36*
X56979Y98791D02*
G01X57056D01*
Y98211D01*
X56979D01*
Y98791D01*
G37*
G36*
X56778D02*
G01X56856D01*
Y98211D01*
X56778D01*
Y98791D01*
G37*
G54D238*
X56877Y110163D03*
G36*
X56979Y101528D02*
G01X57056D01*
Y100949D01*
X56979D01*
Y101528D01*
G37*
G36*
X56778D02*
G01X56856D01*
Y100949D01*
X56778D01*
Y101528D01*
G37*
G36*
X56738Y104698D02*
G01X56815D01*
Y104118D01*
X56738D01*
Y104698D01*
G37*
G36*
X56939D02*
G01X57016D01*
Y104118D01*
X56939D01*
Y104698D01*
G37*
G36*
Y107434D02*
G01X57016D01*
Y106855D01*
X56939D01*
Y107434D01*
G37*
G54D420*
X56410Y120950D03*
G54D235*
X56072Y119179D03*
X56474D03*
G54D238*
X56877D03*
X57279D03*
G54D239*
X57682D03*
G36*
X56778Y123373D02*
G01X56856D01*
Y122794D01*
X56778D01*
Y123373D01*
G37*
G36*
X55772D02*
G01X55849D01*
Y122794D01*
X55772D01*
Y123373D01*
G37*
G36*
X55973D02*
G01X56050D01*
Y122794D01*
X55973D01*
Y123373D01*
G37*
G36*
X56174D02*
G01X56252D01*
Y122794D01*
X56174D01*
Y123373D01*
G37*
G36*
X56375D02*
G01X56453D01*
Y122794D01*
X56375D01*
Y123373D01*
G37*
G36*
X56577D02*
G01X56654D01*
Y122794D01*
X56577D01*
Y123373D01*
G37*
G36*
X56979D02*
G01X57056D01*
Y122794D01*
X56979D01*
Y123373D01*
G37*
G36*
X57181D02*
G01X57258D01*
Y122794D01*
X57181D01*
Y123373D01*
G37*
G36*
X57382D02*
G01X57459D01*
Y122794D01*
X57382D01*
Y123373D01*
G37*
G36*
X57583D02*
G01X57660D01*
Y122794D01*
X57583D01*
Y123373D01*
G37*
G36*
X57784D02*
G01X57861D01*
Y122794D01*
X57784D01*
Y123373D01*
G37*
G36*
X56778Y126111D02*
G01X56856D01*
Y125531D01*
X56778D01*
Y126111D01*
G37*
G36*
X56979D02*
G01X57056D01*
Y125531D01*
X56979D01*
Y126111D01*
G37*
G36*
D02*
G01X57056D01*
Y125531D01*
X56979D01*
Y126111D01*
G37*
G36*
X57181D02*
G01X57258D01*
Y125531D01*
X57181D01*
Y126111D01*
G37*
G36*
X57382D02*
G01X57459D01*
Y125531D01*
X57382D01*
Y126111D01*
G37*
G36*
X57583D02*
G01X57660D01*
Y125531D01*
X57583D01*
Y126111D01*
G37*
G36*
X57784D02*
G01X57861D01*
Y125531D01*
X57784D01*
Y126111D01*
G37*
G36*
X56577D02*
G01X56654D01*
Y125531D01*
X56577D01*
Y126111D01*
G37*
G36*
X56375D02*
G01X56453D01*
Y125531D01*
X56375D01*
Y126111D01*
G37*
G36*
X56174D02*
G01X56252D01*
Y125531D01*
X56174D01*
Y126111D01*
G37*
G36*
X55973D02*
G01X56050D01*
Y125531D01*
X55973D01*
Y126111D01*
G37*
G36*
X55772D02*
G01X55849D01*
Y125531D01*
X55772D01*
Y126111D01*
G37*
G36*
D02*
G01X55849D01*
Y125531D01*
X55772D01*
Y126111D01*
G37*
G54D314*
X65531Y152281D03*
X65934D03*
D03*
G54D320*
Y150316D03*
X65531D03*
G54D235*
X65934Y137026D03*
X65531D03*
G54D240*
Y146252D03*
X65934D03*
G36*
X65545Y114201D02*
G01X65623D01*
Y113622D01*
X65545D01*
Y114201D01*
G37*
G36*
X65751D02*
G01X65829D01*
Y113622D01*
X65751D01*
Y114201D01*
G37*
G36*
X65958D02*
G01X66035D01*
Y113622D01*
X65958D01*
Y114201D01*
G37*
G36*
X66164D02*
G01X66241D01*
Y113622D01*
X66164D01*
Y114201D01*
G37*
G54D414*
X64428Y79090D03*
G54D85*
Y80056D03*
G54D367*
X63921Y97380D03*
G54D245*
X62714Y91109D03*
G54D246*
X63116D03*
G54D247*
X63518D03*
G54D248*
X63921D03*
G54D245*
X64323D03*
Y81884D03*
G54D248*
X63921D03*
G54D247*
X63518D03*
G54D246*
X63116D03*
G54D245*
X62714D03*
G36*
X65191Y57605D02*
G01X65268D01*
Y57025D01*
X65191D01*
Y57605D01*
G37*
G36*
X64989D02*
G01X65066D01*
Y57025D01*
X64989D01*
Y57605D01*
G37*
G36*
X64788D02*
G01X64865D01*
Y57025D01*
X64788D01*
Y57605D01*
G37*
G36*
Y60342D02*
G01X64865D01*
Y59762D01*
X64788D01*
Y60342D01*
G37*
G36*
X64989D02*
G01X65066D01*
Y59762D01*
X64989D01*
Y60342D01*
G37*
G36*
X65191D02*
G01X65268D01*
Y59762D01*
X65191D01*
Y60342D01*
G37*
G54D245*
X65128Y91109D03*
Y81884D03*
G36*
X65191Y69439D02*
G01X65268D01*
Y68859D01*
X65191D01*
Y69439D01*
G37*
G36*
X64989D02*
G01X65066D01*
Y68859D01*
X64989D01*
Y69439D01*
G37*
G36*
X64788D02*
G01X64865D01*
Y68859D01*
X64788D01*
Y69439D01*
G37*
G36*
Y66701D02*
G01X64865D01*
Y66122D01*
X64788D01*
Y66701D01*
G37*
G36*
X64989D02*
G01X65066D01*
Y66122D01*
X64989D01*
Y66701D01*
G37*
G36*
X65191D02*
G01X65268D01*
Y66122D01*
X65191D01*
Y66701D01*
G37*
G54D314*
X65128Y152281D03*
G54D320*
Y150316D03*
G54D240*
Y146252D03*
G54D235*
Y137026D03*
G36*
X64873Y114158D02*
G01Y114411D01*
X64903Y114442D01*
Y114127D01*
G37*
G36*
X65041Y113989D02*
G01Y114580D01*
X65056Y114595D01*
Y113974D01*
G37*
G36*
X64873Y114158D02*
G01Y114411D01*
X64903Y114442D01*
Y114127D01*
G37*
G36*
X65041Y113989D02*
G01Y114580D01*
X65056Y114595D01*
Y113974D01*
G37*
G36*
X64801Y114167D02*
G01Y114433D01*
X64862D01*
Y114106D01*
G37*
G36*
X64905Y114126D02*
G01Y114443D01*
X64935Y114474D01*
Y114095D01*
G37*
G36*
X65073Y113957D02*
G01Y114612D01*
X65088Y114627D01*
Y113942D01*
G37*
G36*
X65549Y106892D02*
G01X65626D01*
Y106312D01*
X65549D01*
Y106892D01*
G37*
G36*
X65755D02*
G01X65832D01*
Y106312D01*
X65755D01*
Y106892D01*
G37*
G36*
X65961D02*
G01X66038D01*
Y106312D01*
X65961D01*
Y106892D01*
G37*
G36*
X66167D02*
G01X66244D01*
Y106312D01*
X66167D01*
Y106892D01*
G37*
G54D245*
X65934Y91109D03*
X65531D03*
G54D107*
X64428Y78124D03*
G36*
X64587Y57605D02*
G01X64664D01*
Y57025D01*
X64587D01*
Y57605D01*
G37*
G36*
X64385D02*
G01X64463D01*
Y57025D01*
X64385D01*
Y57605D01*
G37*
G36*
X64184D02*
G01X64262D01*
Y57025D01*
X64184D01*
Y57605D01*
G37*
G36*
Y69439D02*
G01X64262D01*
Y68859D01*
X64184D01*
Y69439D01*
G37*
G36*
X64385D02*
G01X64463D01*
Y68859D01*
X64385D01*
Y69439D01*
G37*
G36*
X64587D02*
G01X64664D01*
Y68859D01*
X64587D01*
Y69439D01*
G37*
G36*
X64184Y66701D02*
G01X64262D01*
Y66122D01*
X64184D01*
Y66701D01*
G37*
G36*
X64385D02*
G01X64463D01*
Y66122D01*
X64385D01*
Y66701D01*
G37*
G36*
X64587D02*
G01X64664D01*
Y66122D01*
X64587D01*
Y66701D01*
G37*
G36*
Y60342D02*
G01X64664D01*
Y59762D01*
X64587D01*
Y60342D01*
G37*
G36*
X64385D02*
G01X64463D01*
Y59762D01*
X64385D01*
Y60342D01*
G37*
G36*
X64184D02*
G01X64262D01*
Y59762D01*
X64184D01*
Y60342D01*
G37*
G36*
D02*
G01X64262D01*
Y59762D01*
X64184D01*
Y60342D01*
G37*
G36*
X66197Y57605D02*
G01X66274D01*
Y57025D01*
X66197D01*
Y57605D01*
G37*
G36*
Y60342D02*
G01X66274D01*
Y59762D01*
X66197D01*
Y60342D01*
G37*
G36*
Y66701D02*
G01X66274D01*
Y66122D01*
X66197D01*
Y66701D01*
G37*
G36*
X65996D02*
G01X66073D01*
Y66122D01*
X65996D01*
Y66701D01*
G37*
G36*
X65794D02*
G01X65871D01*
Y66122D01*
X65794D01*
Y66701D01*
G37*
G36*
X65593D02*
G01X65670D01*
Y66122D01*
X65593D01*
Y66701D01*
G37*
G36*
Y69439D02*
G01X65670D01*
Y68859D01*
X65593D01*
Y69439D01*
G37*
G36*
X65794D02*
G01X65871D01*
Y68859D01*
X65794D01*
Y69439D01*
G37*
G36*
X65996D02*
G01X66073D01*
Y68859D01*
X65996D01*
Y69439D01*
G37*
G36*
X66197D02*
G01X66274D01*
Y68859D01*
X66197D01*
Y69439D01*
G37*
G36*
X65996Y60342D02*
G01X66073D01*
Y59762D01*
X65996D01*
Y60342D01*
G37*
G36*
X65794D02*
G01X65871D01*
Y59762D01*
X65794D01*
Y60342D01*
G37*
G36*
X65593D02*
G01X65670D01*
Y59762D01*
X65593D01*
Y60342D01*
G37*
G36*
Y57605D02*
G01X65670D01*
Y57025D01*
X65593D01*
Y57605D01*
G37*
G36*
X65794D02*
G01X65871D01*
Y57025D01*
X65794D01*
Y57605D01*
G37*
G36*
X65996D02*
G01X66073D01*
Y57025D01*
X65996D01*
Y57605D01*
G37*
G54D245*
X65934Y81884D03*
X65531D03*
G36*
X66398Y60342D02*
G01X66475D01*
Y59762D01*
X66398D01*
Y60342D01*
G37*
G36*
X66600D02*
G01X66676D01*
Y59762D01*
X66600D01*
Y60342D01*
G37*
G36*
X66801D02*
G01X66878D01*
Y59762D01*
X66801D01*
Y60342D01*
G37*
G36*
X67002D02*
G01X67079D01*
Y59762D01*
X67002D01*
Y60342D01*
G37*
G36*
X67203Y57605D02*
G01X67280D01*
Y57025D01*
X67203D01*
Y57605D01*
G37*
G36*
X67002D02*
G01X67079D01*
Y57025D01*
X67002D01*
Y57605D01*
G37*
G36*
X66801D02*
G01X66878D01*
Y57025D01*
X66801D01*
Y57605D01*
G37*
G36*
X66600D02*
G01X66676D01*
Y57025D01*
X66600D01*
Y57605D01*
G37*
G36*
X66398D02*
G01X66475D01*
Y57025D01*
X66398D01*
Y57605D01*
G37*
G36*
X67203Y60342D02*
G01X67280D01*
Y59762D01*
X67203D01*
Y60342D01*
G37*
G36*
X68209Y57605D02*
G01X68287D01*
Y57025D01*
X68209D01*
Y57605D01*
G37*
G36*
X68008D02*
G01X68086D01*
Y57025D01*
X68008D01*
Y57605D01*
G37*
G36*
X67807D02*
G01X67884D01*
Y57025D01*
X67807D01*
Y57605D01*
G37*
G36*
X67605D02*
G01X67683D01*
Y57025D01*
X67605D01*
Y57605D01*
G37*
G36*
D02*
G01X67683D01*
Y57025D01*
X67605D01*
Y57605D01*
G37*
G36*
X67404D02*
G01X67482D01*
Y57025D01*
X67404D01*
Y57605D01*
G37*
G36*
X68209Y60342D02*
G01X68287D01*
Y59762D01*
X68209D01*
Y60342D01*
G37*
G36*
X68008D02*
G01X68086D01*
Y59762D01*
X68008D01*
Y60342D01*
G37*
G36*
X67807D02*
G01X67884D01*
Y59762D01*
X67807D01*
Y60342D01*
G37*
G36*
X67605D02*
G01X67683D01*
Y59762D01*
X67605D01*
Y60342D01*
G37*
G36*
X67404D02*
G01X67482D01*
Y59762D01*
X67404D01*
Y60342D01*
G37*
G36*
X66398Y66701D02*
G01X66475D01*
Y66122D01*
X66398D01*
Y66701D01*
G37*
G36*
X66600D02*
G01X66676D01*
Y66122D01*
X66600D01*
Y66701D01*
G37*
G36*
X66801D02*
G01X66878D01*
Y66122D01*
X66801D01*
Y66701D01*
G37*
G36*
X67002D02*
G01X67079D01*
Y66122D01*
X67002D01*
Y66701D01*
G37*
G36*
X67203D02*
G01X67280D01*
Y66122D01*
X67203D01*
Y66701D01*
G37*
G36*
X67404D02*
G01X67482D01*
Y66122D01*
X67404D01*
Y66701D01*
G37*
G36*
X67605D02*
G01X67683D01*
Y66122D01*
X67605D01*
Y66701D01*
G37*
G36*
X67807D02*
G01X67884D01*
Y66122D01*
X67807D01*
Y66701D01*
G37*
G36*
X68008D02*
G01X68086D01*
Y66122D01*
X68008D01*
Y66701D01*
G37*
G36*
X68209D02*
G01X68287D01*
Y66122D01*
X68209D01*
Y66701D01*
G37*
G36*
X66398Y69439D02*
G01X66475D01*
Y68859D01*
X66398D01*
Y69439D01*
G37*
G36*
X66600D02*
G01X66676D01*
Y68859D01*
X66600D01*
Y69439D01*
G37*
G36*
X66801D02*
G01X66878D01*
Y68859D01*
X66801D01*
Y69439D01*
G37*
G36*
X67002D02*
G01X67079D01*
Y68859D01*
X67002D01*
Y69439D01*
G37*
G36*
X67203D02*
G01X67280D01*
Y68859D01*
X67203D01*
Y69439D01*
G37*
G36*
X67404D02*
G01X67482D01*
Y68859D01*
X67404D01*
Y69439D01*
G37*
G36*
X67605D02*
G01X67683D01*
Y68859D01*
X67605D01*
Y69439D01*
G37*
G36*
X67807D02*
G01X67884D01*
Y68859D01*
X67807D01*
Y69439D01*
G37*
G36*
X68008D02*
G01X68086D01*
Y68859D01*
X68008D01*
Y69439D01*
G37*
G36*
X68209D02*
G01X68287D01*
Y68859D01*
X68209D01*
Y69439D01*
G37*
G36*
D02*
G01X68287D01*
Y68859D01*
X68209D01*
Y69439D01*
G37*
G36*
X67786Y72694D02*
G01X68070D01*
X68101Y72663D01*
X67786D01*
G37*
G36*
X67625Y72525D02*
G01X68239D01*
X68254Y72510D01*
X67625D01*
G37*
G36*
X67786Y72694D02*
G01X68070D01*
X68101Y72663D01*
X67786D01*
G37*
G36*
X67753Y72662D02*
G01X68102D01*
X68133Y72631D01*
X67753D01*
G37*
G36*
X67593Y72493D02*
G01X68271D01*
X68286Y72478D01*
X67593D01*
G37*
G36*
X67625Y72525D02*
G01X68239D01*
X68254Y72510D01*
X67625D01*
G37*
G54D414*
X68244Y93178D03*
G54D426*
X68292Y102516D03*
G36*
X68019Y114201D02*
G01X68096D01*
Y113622D01*
X68019D01*
Y114201D01*
G37*
G36*
X68224D02*
G01X68302D01*
Y113622D01*
X68224D01*
Y114201D01*
G37*
G36*
X68431D02*
G01X68508D01*
Y113622D01*
X68431D01*
Y114201D01*
G37*
G54D251*
Y98632D03*
G54D240*
Y101410D03*
G54D249*
X68349Y91109D03*
G36*
X68022Y106892D02*
G01X68099D01*
Y106312D01*
X68022D01*
Y106892D01*
G37*
G36*
X68228D02*
G01X68305D01*
Y106312D01*
X68228D01*
Y106892D01*
G37*
G36*
X68434D02*
G01X68511D01*
Y106312D01*
X68434D01*
Y106892D01*
G37*
G36*
X68637Y114201D02*
G01X68714D01*
Y113622D01*
X68637D01*
Y114201D01*
G37*
G54D245*
X68751Y91109D03*
G36*
X68640Y106892D02*
G01X68718D01*
Y106312D01*
X68640D01*
Y106892D01*
G37*
G36*
X68843Y114201D02*
G01X68920D01*
Y113622D01*
X68843D01*
Y114201D01*
G37*
G36*
X69049D02*
G01X69126D01*
Y113622D01*
X69049D01*
Y114201D01*
G37*
G36*
X69255D02*
G01X69332D01*
Y113622D01*
X69255D01*
Y114201D01*
G37*
G36*
X69258Y106892D02*
G01X69336D01*
Y106312D01*
X69258D01*
Y106892D01*
G37*
G54D252*
X68834Y98632D03*
G54D251*
X69236D03*
D03*
G54D242*
X68834Y101410D03*
G54D240*
X69236D03*
G54D245*
X69153Y91109D03*
G36*
X68846Y106892D02*
G01X68923D01*
Y106312D01*
X68846D01*
Y106892D01*
G37*
G36*
X69052D02*
G01X69129D01*
Y106312D01*
X69052D01*
Y106892D01*
G37*
G36*
X69258D02*
G01X69336D01*
Y106312D01*
X69258D01*
Y106892D01*
G37*
G54D414*
X67165Y93178D03*
G54D245*
X67544Y91109D03*
X67141D03*
G54D246*
X66739D03*
G54D200*
X67445Y99618D03*
G54D199*
Y99216D03*
G54D201*
Y100021D03*
G54D193*
Y100424D03*
G54D191*
Y100826D03*
G36*
X66370Y114201D02*
G01X66447D01*
Y113622D01*
X66370D01*
Y114201D01*
G37*
G36*
X66576D02*
G01X66653D01*
Y113622D01*
X66576D01*
Y114201D01*
G37*
G36*
X66782D02*
G01X66859D01*
Y113622D01*
X66782D01*
Y114201D01*
G37*
G36*
X66988D02*
G01X67066D01*
Y113622D01*
X66988D01*
Y114201D01*
G37*
G36*
X67194D02*
G01X67272D01*
Y113622D01*
X67194D01*
Y114201D01*
G37*
G36*
X67400D02*
G01X67477D01*
Y113622D01*
X67400D01*
Y114201D01*
G37*
G36*
X67606D02*
G01X67683D01*
Y113622D01*
X67606D01*
Y114201D01*
G37*
G36*
X66373Y106892D02*
G01X66450D01*
Y106312D01*
X66373D01*
Y106892D01*
G37*
G36*
X66579D02*
G01X66656D01*
Y106312D01*
X66579D01*
Y106892D01*
G37*
G36*
X66785D02*
G01X66863D01*
Y106312D01*
X66785D01*
Y106892D01*
G37*
G36*
X66991D02*
G01X67069D01*
Y106312D01*
X66991D01*
Y106892D01*
G37*
G36*
X67197D02*
G01X67275D01*
Y106312D01*
X67197D01*
Y106892D01*
G37*
G36*
X67404D02*
G01X67481D01*
Y106312D01*
X67404D01*
Y106892D01*
G37*
G36*
X67610D02*
G01X67687D01*
Y106312D01*
X67610D01*
Y106892D01*
G37*
G36*
X67816D02*
G01X67893D01*
Y106312D01*
X67816D01*
Y106892D01*
G37*
G36*
X67813Y114201D02*
G01X67890D01*
Y113622D01*
X67813D01*
Y114201D01*
G37*
G54D245*
X79216Y77022D03*
X79619D03*
X80021D03*
X80424D03*
G54D255*
X80183Y65424D03*
G54D245*
X80424Y67796D03*
X80021D03*
X79619D03*
X79216D03*
G54D199*
X79600Y64035D03*
G54D201*
Y64438D03*
G54D202*
Y64840D03*
G36*
X79520Y60342D02*
G01X79597D01*
Y59762D01*
X79520D01*
Y60342D01*
G37*
G36*
X79117D02*
G01X79194D01*
Y59762D01*
X79117D01*
Y60342D01*
G37*
G36*
X79319D02*
G01X79396D01*
Y59762D01*
X79319D01*
Y60342D01*
G37*
G36*
X79117Y57605D02*
G01X79194D01*
Y57025D01*
X79117D01*
Y57605D01*
G37*
G36*
X79319D02*
G01X79396D01*
Y57025D01*
X79319D01*
Y57605D01*
G37*
G36*
X79520D02*
G01X79597D01*
Y57025D01*
X79520D01*
Y57605D01*
G37*
G36*
X79721Y60342D02*
G01X79798D01*
Y59762D01*
X79721D01*
Y60342D01*
G37*
G54D221*
X79600Y63633D03*
G54D200*
Y63231D03*
G36*
X79721Y57605D02*
G01X79798D01*
Y57025D01*
X79721D01*
Y57605D01*
G37*
G36*
X80325D02*
G01X80402D01*
Y57025D01*
X80325D01*
Y57605D01*
G37*
G36*
X80124Y60342D02*
G01X80201D01*
Y59762D01*
X80124D01*
Y60342D01*
G37*
G36*
X79922D02*
G01X80000D01*
Y59762D01*
X79922D01*
Y60342D01*
G37*
G54D255*
X80183Y62647D03*
G36*
X80325Y60342D02*
G01X80402D01*
Y59762D01*
X80325D01*
Y60342D01*
G37*
G36*
D02*
G01X80402D01*
Y59762D01*
X80325D01*
Y60342D01*
G37*
G36*
X79922Y57605D02*
G01X80000D01*
Y57025D01*
X79922D01*
Y57605D01*
G37*
G36*
X80124D02*
G01X80201D01*
Y57025D01*
X80124D01*
Y57605D01*
G37*
G54D254*
X82034Y67796D03*
G54D249*
X81631D03*
G54D248*
X81229D03*
G54D245*
X80827D03*
G54D254*
X82034Y77022D03*
G54D249*
X81631D03*
G54D248*
X81229D03*
G54D245*
X80827D03*
G36*
X82337Y60342D02*
G01X82415D01*
Y59762D01*
X82337D01*
Y60342D01*
G37*
G36*
X82539D02*
G01X82616D01*
Y59762D01*
X82539D01*
Y60342D01*
G37*
G36*
X82740D02*
G01X82817D01*
Y59762D01*
X82740D01*
Y60342D01*
G37*
G36*
X82941D02*
G01X83019D01*
Y59762D01*
X82941D01*
Y60342D01*
G37*
G36*
X83142D02*
G01X83220D01*
Y59762D01*
X83142D01*
Y60342D01*
G37*
G36*
X83344D02*
G01X83421D01*
Y59762D01*
X83344D01*
Y60342D01*
G37*
G36*
X83545D02*
G01X83622D01*
Y59762D01*
X83545D01*
Y60342D01*
G37*
G36*
Y57605D02*
G01X83622D01*
Y57025D01*
X83545D01*
Y57605D01*
G37*
G36*
X83344D02*
G01X83421D01*
Y57025D01*
X83344D01*
Y57605D01*
G37*
G36*
X83142D02*
G01X83220D01*
Y57025D01*
X83142D01*
Y57605D01*
G37*
G36*
D02*
G01X83220D01*
Y57025D01*
X83142D01*
Y57605D01*
G37*
G36*
X82941D02*
G01X83019D01*
Y57025D01*
X82941D01*
Y57605D01*
G37*
G36*
X82740D02*
G01X82817D01*
Y57025D01*
X82740D01*
Y57605D01*
G37*
G36*
X82337D02*
G01X82415D01*
Y57025D01*
X82337D01*
Y57605D01*
G37*
G36*
X82539D02*
G01X82616D01*
Y57025D01*
X82539D01*
Y57605D01*
G37*
G54D201*
X82622Y70396D03*
G54D200*
Y70799D03*
Y71201D03*
Y71604D03*
Y72007D03*
Y73616D03*
G54D202*
Y73214D03*
G54D221*
Y72811D03*
G54D203*
Y72409D03*
G54D200*
Y69994D03*
D03*
G54D202*
Y69591D03*
G54D221*
Y69189D03*
G54D203*
Y68786D03*
G54D200*
Y68384D03*
G36*
X80929Y60342D02*
G01X81006D01*
Y59762D01*
X80929D01*
Y60342D01*
G37*
G36*
X81130D02*
G01X81207D01*
Y59762D01*
X81130D01*
Y60342D01*
G37*
G36*
X81331D02*
G01X81409D01*
Y59762D01*
X81331D01*
Y60342D01*
G37*
G36*
X81532D02*
G01X81610D01*
Y59762D01*
X81532D01*
Y60342D01*
G37*
G36*
X81733D02*
G01X81811D01*
Y59762D01*
X81733D01*
Y60342D01*
G37*
G36*
X81935D02*
G01X82012D01*
Y59762D01*
X81935D01*
Y60342D01*
G37*
G36*
X80728Y57605D02*
G01X80805D01*
Y57025D01*
X80728D01*
Y57605D01*
G37*
G36*
Y60342D02*
G01X80805D01*
Y59762D01*
X80728D01*
Y60342D01*
G37*
G36*
X80929Y57605D02*
G01X81006D01*
Y57025D01*
X80929D01*
Y57605D01*
G37*
G36*
X81130D02*
G01X81207D01*
Y57025D01*
X81130D01*
Y57605D01*
G37*
G36*
X81331D02*
G01X81409D01*
Y57025D01*
X81331D01*
Y57605D01*
G37*
G36*
X81532D02*
G01X81610D01*
Y57025D01*
X81532D01*
Y57605D01*
G37*
G36*
X81733D02*
G01X81811D01*
Y57025D01*
X81733D01*
Y57605D01*
G37*
G36*
X81935D02*
G01X82012D01*
Y57025D01*
X81935D01*
Y57605D01*
G37*
G36*
X82136D02*
G01X82214D01*
Y57025D01*
X82136D01*
Y57605D01*
G37*
G36*
Y60342D02*
G01X82214D01*
Y59762D01*
X82136D01*
Y60342D01*
G37*
G54D255*
X80988Y62647D03*
X81391D03*
X81793D03*
Y65424D03*
D03*
X81391D03*
X80988D03*
G36*
X87906Y138238D02*
G01X87914D01*
Y138470D01*
X87906D01*
Y138238D01*
G37*
G54D474*
X87911Y138354D03*
G54D524*
D03*
G54D523*
X87910D03*
D03*
G36*
X87899Y138213D02*
G01Y138496D01*
X87906D01*
Y138213D01*
G37*
G54D474*
X87911Y138354D03*
G54D524*
D03*
G54D474*
D03*
G36*
X87906Y138238D02*
G01X87914D01*
Y138470D01*
X87906D01*
Y138238D01*
G37*
G54D274*
X87911Y138072D03*
G54D301*
X88156Y138233D03*
G36*
X88894Y108018D02*
G01X88971D01*
Y107439D01*
X88894D01*
Y108018D01*
G37*
G36*
X89101D02*
G01X89178D01*
Y107439D01*
X89101D01*
Y108018D01*
G37*
G36*
X89307D02*
G01X89384D01*
Y107439D01*
X89307D01*
Y108018D01*
G37*
G36*
X89513D02*
G01X89590D01*
Y107439D01*
X89513D01*
Y108018D01*
G37*
G36*
X89719D02*
G01X89796D01*
Y107439D01*
X89719D01*
Y108018D01*
G37*
G36*
X89925D02*
G01X90002D01*
Y107439D01*
X89925D01*
Y108018D01*
G37*
G36*
X90131D02*
G01X90208D01*
Y107439D01*
X90131D01*
Y108018D01*
G37*
G36*
X90337D02*
G01X90414D01*
Y107439D01*
X90337D01*
Y108018D01*
G37*
G36*
X90543D02*
G01X90620D01*
Y107439D01*
X90543D01*
Y108018D01*
G37*
G36*
X90540Y117879D02*
G01X90617D01*
Y117300D01*
X90540D01*
Y117879D01*
G37*
G36*
X90334D02*
G01X90411D01*
Y117300D01*
X90334D01*
Y117879D01*
G37*
G36*
X90128D02*
G01X90205D01*
Y117300D01*
X90128D01*
Y117879D01*
G37*
G36*
X89921D02*
G01X89999D01*
Y117300D01*
X89921D01*
Y117879D01*
G37*
G36*
X89715D02*
G01X89793D01*
Y117300D01*
X89715D01*
Y117879D01*
G37*
G36*
X89510D02*
G01X89587D01*
Y117300D01*
X89510D01*
Y117879D01*
G37*
G36*
X89303D02*
G01X89381D01*
Y117300D01*
X89303D01*
Y117879D01*
G37*
G36*
X89097D02*
G01X89174D01*
Y117300D01*
X89097D01*
Y117879D01*
G37*
G36*
X88891D02*
G01X88968D01*
Y117300D01*
X88891D01*
Y117879D01*
G37*
G54D173*
X91694Y150872D03*
G54D175*
Y149793D03*
G54D409*
X91855Y94120D03*
G54D398*
Y93041D03*
G36*
X91776Y117879D02*
G01X91853D01*
Y117300D01*
X91776D01*
Y117879D01*
G37*
G36*
D02*
G01X91853D01*
Y117300D01*
X91776D01*
Y117879D01*
G37*
G36*
X91780Y108018D02*
G01X91857D01*
Y107439D01*
X91780D01*
Y108018D01*
G37*
G54D260*
X94109Y81481D03*
G54D261*
X93707D03*
X93304D03*
G54D17*
X94190Y58322D03*
X93385D03*
X94190Y59126D03*
D03*
X93385D03*
G54D316*
X93344Y123024D03*
D03*
G54D317*
X93747D03*
G54D314*
X94150D03*
Y120327D03*
G54D317*
X93747D03*
G54D316*
X93344D03*
G36*
X93219Y117879D02*
G01X93296D01*
Y117300D01*
X93219D01*
Y117879D01*
G37*
G54D17*
X93707Y127149D03*
Y124734D03*
G36*
X94249Y117879D02*
G01X94327D01*
Y117300D01*
X94249D01*
Y117879D01*
G37*
G36*
X94043D02*
G01X94121D01*
Y117300D01*
X94043D01*
Y117879D01*
G37*
G36*
X93837D02*
G01X93915D01*
Y117300D01*
X93837D01*
Y117879D01*
G37*
G36*
X93631D02*
G01X93708D01*
Y117300D01*
X93631D01*
Y117879D01*
G37*
G36*
X93425D02*
G01X93502D01*
Y117300D01*
X93425D01*
Y117879D01*
G37*
G54D243*
X94109Y137432D03*
G54D235*
X93707D03*
X93304D03*
Y134575D03*
D03*
X93707D03*
G54D243*
X94109D03*
Y129382D03*
G54D235*
X93707D03*
X93304D03*
G54D427*
X92201Y119018D03*
D03*
G54D314*
X92539Y123024D03*
G54D316*
X92942D03*
Y120327D03*
G54D314*
X92539D03*
G36*
X91982Y117879D02*
G01X92060D01*
Y117300D01*
X91982D01*
Y117879D01*
G37*
G36*
X92189D02*
G01X92266D01*
Y117300D01*
X92189D01*
Y117879D01*
G37*
G54D17*
X92097Y125418D03*
D03*
Y124613D03*
G54D71*
Y126223D03*
G36*
X93013Y117879D02*
G01X93090D01*
Y117300D01*
X93013D01*
Y117879D01*
G37*
G36*
X92807D02*
G01X92884D01*
Y117300D01*
X92807D01*
Y117879D01*
G37*
G36*
X92601D02*
G01X92678D01*
Y117300D01*
X92601D01*
Y117879D01*
G37*
G36*
X92395D02*
G01X92472D01*
Y117300D01*
X92395D01*
Y117879D01*
G37*
G54D235*
X92499Y134575D03*
G54D238*
X92902D03*
Y129382D03*
G54D235*
X92499D03*
X92097D03*
Y134575D03*
Y137432D03*
X92499D03*
G54D238*
X92902D03*
G36*
X90746Y117879D02*
G01X90823D01*
Y117300D01*
X90746D01*
Y117879D01*
G37*
G36*
X90952D02*
G01X91029D01*
Y117300D01*
X90952D01*
Y117879D01*
G37*
G36*
X90749Y108018D02*
G01X90826D01*
Y107439D01*
X90749D01*
Y108018D01*
G37*
G36*
X90955D02*
G01X91033D01*
Y107439D01*
X90955D01*
Y108018D01*
G37*
G36*
X91161D02*
G01X91239D01*
Y107439D01*
X91161D01*
Y108018D01*
G37*
G36*
X91367D02*
G01X91445D01*
Y107439D01*
X91367D01*
Y108018D01*
G37*
G36*
X91573D02*
G01X91651D01*
Y107439D01*
X91573D01*
Y108018D01*
G37*
G36*
X91570Y117879D02*
G01X91648D01*
Y117300D01*
X91570D01*
Y117879D01*
G37*
G36*
X91364D02*
G01X91442D01*
Y117300D01*
X91364D01*
Y117879D01*
G37*
G36*
X91158D02*
G01X91235D01*
Y117300D01*
X91158D01*
Y117879D01*
G37*
G54D191*
X91513Y129966D03*
Y130369D03*
Y130771D03*
G54D192*
Y131174D03*
G54D191*
Y131576D03*
G54D69*
X90889Y126223D03*
G54D29*
Y128759D03*
G54D17*
Y125418D03*
Y124613D03*
G54D358*
X64822Y63312D03*
G54D245*
X64726Y81884D03*
Y91109D03*
G36*
X64565Y112870D02*
G01X65144D01*
Y112792D01*
X64565D01*
Y112870D01*
G37*
G36*
Y113076D02*
G01X65144D01*
Y112998D01*
X64565D01*
Y113076D01*
G37*
G36*
Y113282D02*
G01X65144D01*
Y113204D01*
X64565D01*
Y113282D01*
G37*
G36*
X64542Y114158D02*
G01X64873D01*
X64903Y114127D01*
X64542D01*
G37*
G36*
X64381Y113989D02*
G01X65041D01*
X65056Y113974D01*
X64381D01*
G37*
G36*
X64348Y113957D02*
G01X65073D01*
X65088Y113942D01*
X64348D01*
G37*
G36*
X64510Y114126D02*
G01X64905D01*
X64935Y114095D01*
X64510D01*
G37*
G36*
X64628Y114167D02*
G01X64801D01*
X64862Y114106D01*
X64568D01*
G37*
G36*
X64381Y113989D02*
G01X65041D01*
X65056Y113974D01*
X64381D01*
G37*
G36*
X64542Y114158D02*
G01X64873D01*
X64903Y114127D01*
X64542D01*
G37*
G36*
X64565Y111015D02*
G01X65144D01*
Y110938D01*
X64565D01*
Y111015D01*
G37*
G36*
Y111427D02*
G01X65144D01*
Y111350D01*
X64565D01*
Y111427D01*
G37*
G36*
Y111634D02*
G01X65144D01*
Y111557D01*
X64565D01*
Y111634D01*
G37*
G36*
Y112664D02*
G01X65144D01*
Y112586D01*
X64565D01*
Y112664D01*
G37*
G36*
Y112458D02*
G01X65144D01*
Y112381D01*
X64565D01*
Y112458D01*
G37*
G36*
Y112252D02*
G01X65144D01*
Y112174D01*
X64565D01*
Y112252D01*
G37*
G36*
Y112046D02*
G01X65144D01*
Y111968D01*
X64565D01*
Y112046D01*
G37*
G36*
Y111840D02*
G01X65144D01*
Y111762D01*
X64565D01*
Y111840D01*
G37*
G36*
Y111221D02*
G01X65144D01*
Y111144D01*
X64565D01*
Y111221D01*
G37*
G36*
Y107306D02*
G01X65144D01*
Y107228D01*
X64565D01*
Y107306D01*
G37*
G36*
Y108955D02*
G01X65144D01*
Y108878D01*
X64565D01*
Y108955D01*
G37*
G36*
Y108748D02*
G01X65144D01*
Y108671D01*
X64565D01*
Y108748D01*
G37*
G36*
Y108542D02*
G01X65144D01*
Y108465D01*
X64565D01*
Y108542D01*
G37*
G36*
Y108336D02*
G01X65144D01*
Y108259D01*
X64565D01*
Y108336D01*
G37*
G36*
Y108130D02*
G01X65144D01*
Y108053D01*
X64565D01*
Y108130D01*
G37*
G36*
Y107924D02*
G01X65144D01*
Y107847D01*
X64565D01*
Y107924D01*
G37*
G36*
Y107718D02*
G01X65144D01*
Y107640D01*
X64565D01*
Y107718D01*
G37*
G36*
Y107512D02*
G01X65144D01*
Y107434D01*
X64565D01*
Y107512D01*
G37*
G36*
Y109161D02*
G01X65144D01*
Y109083D01*
X64565D01*
Y109161D01*
G37*
G36*
Y109367D02*
G01X65144D01*
Y109289D01*
X64565D01*
Y109367D01*
G37*
G36*
Y109573D02*
G01X65144D01*
Y109495D01*
X64565D01*
Y109573D01*
G37*
G36*
Y109779D02*
G01X65144D01*
Y109702D01*
X64565D01*
Y109779D01*
G37*
G36*
Y109985D02*
G01X65144D01*
Y109908D01*
X64565D01*
Y109985D01*
G37*
G36*
Y110191D02*
G01X65144D01*
Y110114D01*
X64565D01*
Y110191D01*
G37*
G36*
Y110397D02*
G01X65144D01*
Y110320D01*
X64565D01*
Y110397D01*
G37*
G36*
Y110603D02*
G01X65144D01*
Y110526D01*
X64565D01*
Y110603D01*
G37*
G36*
Y110809D02*
G01X65144D01*
Y110732D01*
X64565D01*
Y110809D01*
G37*
G36*
X70617Y103951D02*
G01Y103698D01*
X70557Y103637D01*
Y104012D01*
G37*
G36*
X70610Y103974D02*
G01Y103660D01*
X70579D01*
Y104005D01*
G37*
G36*
X70441Y104143D02*
G01Y103499D01*
X70426D01*
Y104158D01*
G37*
G36*
X70617Y103951D02*
G01Y103698D01*
X70557Y103637D01*
Y104012D01*
G37*
G36*
X70610Y103974D02*
G01Y103660D01*
X70579D01*
Y104005D01*
G37*
G36*
X70441Y104143D02*
G01Y103499D01*
X70426D01*
Y104158D01*
G37*
G36*
X70650Y103919D02*
G01Y103730D01*
X70589Y103669D01*
Y103980D01*
G37*
G36*
X70577Y104006D02*
G01Y103628D01*
X70547D01*
Y104037D01*
G37*
G36*
X70409Y104175D02*
G01Y103467D01*
X70394D01*
Y104190D01*
G37*
G36*
X69943Y108752D02*
G01X70522D01*
Y108675D01*
X69943D01*
Y108752D01*
G37*
G36*
Y108339D02*
G01X70522D01*
Y108262D01*
X69943D01*
Y108339D01*
G37*
G36*
Y108134D02*
G01X70522D01*
Y108056D01*
X69943D01*
Y108134D01*
G37*
G36*
Y107928D02*
G01X70522D01*
Y107850D01*
X69943D01*
Y107928D01*
G37*
G36*
Y107721D02*
G01X70522D01*
Y107644D01*
X69943D01*
Y107721D01*
G37*
G36*
Y107515D02*
G01X70522D01*
Y107438D01*
X69943D01*
Y107515D01*
G37*
G36*
Y107309D02*
G01X70522D01*
Y107232D01*
X69943D01*
Y107309D01*
G37*
G36*
X69465Y106892D02*
G01X69542D01*
Y106312D01*
X69465D01*
Y106892D01*
G37*
G36*
X69943Y108545D02*
G01X70522D01*
Y108468D01*
X69943D01*
Y108545D01*
G37*
G36*
Y108958D02*
G01X70522D01*
Y108880D01*
X69943D01*
Y108958D01*
G37*
G36*
Y109164D02*
G01X70522D01*
Y109086D01*
X69943D01*
Y109164D01*
G37*
G36*
Y109370D02*
G01X70522D01*
Y109293D01*
X69943D01*
Y109370D01*
G37*
G36*
Y109576D02*
G01X70522D01*
Y109499D01*
X69943D01*
Y109576D01*
G37*
G36*
D02*
G01X70522D01*
Y109499D01*
X69943D01*
Y109576D01*
G37*
G36*
Y109782D02*
G01X70522D01*
Y109705D01*
X69943D01*
Y109782D01*
G37*
G36*
Y109988D02*
G01X70522D01*
Y109911D01*
X69943D01*
Y109988D01*
G37*
G36*
Y110194D02*
G01X70522D01*
Y110117D01*
X69943D01*
Y110194D01*
G37*
G36*
Y110400D02*
G01X70522D01*
Y110323D01*
X69943D01*
Y110400D01*
G37*
G36*
Y110607D02*
G01X70522D01*
Y110529D01*
X69943D01*
Y110607D01*
G37*
G36*
Y110813D02*
G01X70522D01*
Y110734D01*
X69943D01*
Y110813D01*
G37*
G36*
Y111018D02*
G01X70522D01*
Y110940D01*
X69943D01*
Y111018D01*
G37*
G36*
Y111224D02*
G01X70522D01*
Y111148D01*
X69943D01*
Y111224D01*
G37*
G36*
Y111431D02*
G01X70522D01*
Y111354D01*
X69943D01*
Y111431D01*
G37*
G36*
Y113286D02*
G01X70522D01*
Y113208D01*
X69943D01*
Y113286D01*
G37*
G36*
Y113079D02*
G01X70522D01*
Y113002D01*
X69943D01*
Y113079D01*
G37*
G36*
Y112873D02*
G01X70522D01*
Y112796D01*
X69943D01*
Y112873D01*
G37*
G36*
Y112667D02*
G01X70522D01*
Y112590D01*
X69943D01*
Y112667D01*
G37*
G36*
Y112461D02*
G01X70522D01*
Y112384D01*
X69943D01*
Y112461D01*
G37*
G36*
Y112255D02*
G01X70522D01*
Y112178D01*
X69943D01*
Y112255D01*
G37*
G36*
Y112049D02*
G01X70522D01*
Y111972D01*
X69943D01*
Y112049D01*
G37*
G36*
X69461Y114201D02*
G01X69538D01*
Y113622D01*
X69461D01*
Y114201D01*
G37*
G36*
X69943Y111637D02*
G01X70522D01*
Y111559D01*
X69943D01*
Y111637D01*
G37*
G36*
Y111843D02*
G01X70522D01*
Y111765D01*
X69943D01*
Y111843D01*
G37*
G54D383*
X86099Y155162D03*
G54D382*
D03*
G54D294*
X85967Y146118D03*
G54D296*
X86288Y146819D03*
G36*
X85668Y114242D02*
G01X86248D01*
Y114164D01*
X85668D01*
Y114242D01*
G37*
G36*
Y114448D02*
G01X86248D01*
Y114370D01*
X85668D01*
Y114448D01*
G37*
G36*
Y114654D02*
G01X86248D01*
Y114577D01*
X85668D01*
Y114654D01*
G37*
G36*
Y114860D02*
G01X86248D01*
Y114783D01*
X85668D01*
Y114860D01*
G37*
G36*
Y115066D02*
G01X86248D01*
Y114989D01*
X85668D01*
Y115066D01*
G37*
G36*
Y115272D02*
G01X86248D01*
Y115195D01*
X85668D01*
Y115272D01*
G37*
G36*
Y115684D02*
G01X86248D01*
Y115607D01*
X85668D01*
Y115684D01*
G37*
G36*
Y115890D02*
G01X86248D01*
Y115813D01*
X85668D01*
Y115890D01*
G37*
G36*
Y116714D02*
G01X86248D01*
Y116637D01*
X85668D01*
Y116714D01*
G37*
G36*
Y116509D02*
G01X86248D01*
Y116431D01*
X85668D01*
Y116509D01*
G37*
G36*
Y116303D02*
G01X86248D01*
Y116225D01*
X85668D01*
Y116303D01*
G37*
G36*
Y116097D02*
G01X86248D01*
Y116019D01*
X85668D01*
Y116097D01*
G37*
G36*
Y115684D02*
G01X86248D01*
Y115607D01*
X85668D01*
Y115684D01*
G37*
G36*
Y115478D02*
G01X86248D01*
Y115401D01*
X85668D01*
Y115478D01*
G37*
G36*
X85868Y118887D02*
G01Y119309D01*
X85898Y119340D01*
Y118856D01*
G37*
G36*
X86037Y118718D02*
G01Y119478D01*
X86052Y119493D01*
Y118703D01*
G37*
G36*
X85708Y119033D02*
G01Y119194D01*
X85769D01*
Y118972D01*
G37*
G36*
X86005Y118750D02*
G01Y119446D01*
X86020Y119461D01*
Y118735D01*
G37*
G36*
X85836Y118919D02*
G01Y119277D01*
X85866Y119308D01*
Y118888D01*
G37*
G36*
X85741Y119001D02*
G01Y119226D01*
X85801D01*
Y118940D01*
G37*
G36*
X86005Y118750D02*
G01Y119446D01*
X86020Y119461D01*
Y118735D01*
G37*
G36*
X85836Y118919D02*
G01Y119277D01*
X85866Y119308D01*
Y118888D01*
G37*
G36*
X85741Y119001D02*
G01Y119226D01*
X85801D01*
Y118940D01*
G37*
G54D260*
X86059Y81481D03*
G54D247*
Y90706D03*
G36*
X85668Y112593D02*
G01X86248D01*
Y112516D01*
X85668D01*
Y112593D01*
G37*
G36*
Y112799D02*
G01X86248D01*
Y112722D01*
X85668D01*
Y112799D01*
G37*
G36*
Y113005D02*
G01X86248D01*
Y112928D01*
X85668D01*
Y113005D01*
G37*
G36*
Y113211D02*
G01X86248D01*
Y113134D01*
X85668D01*
Y113211D01*
G37*
G36*
Y113417D02*
G01X86248D01*
Y113340D01*
X85668D01*
Y113417D01*
G37*
G36*
Y113624D02*
G01X86248D01*
Y113546D01*
X85668D01*
Y113624D01*
G37*
G36*
Y113830D02*
G01X86248D01*
Y113752D01*
X85668D01*
Y113830D01*
G37*
G36*
Y114036D02*
G01X86248D01*
Y113958D01*
X85668D01*
Y114036D01*
G37*
G36*
Y108678D02*
G01X86248D01*
Y108600D01*
X85668D01*
Y108678D01*
G37*
G36*
Y108882D02*
G01X86248D01*
Y108806D01*
X85668D01*
Y108882D01*
G37*
G36*
Y109090D02*
G01X86248D01*
Y109013D01*
X85668D01*
Y109090D01*
G37*
G36*
Y110738D02*
G01X86248D01*
Y110661D01*
X85668D01*
Y110738D01*
G37*
G36*
Y110532D02*
G01X86248D01*
Y110455D01*
X85668D01*
Y110532D01*
G37*
G36*
Y110326D02*
G01X86248D01*
Y110249D01*
X85668D01*
Y110326D01*
G37*
G36*
Y110120D02*
G01X86248D01*
Y110043D01*
X85668D01*
Y110120D01*
G37*
G36*
Y109914D02*
G01X86248D01*
Y109837D01*
X85668D01*
Y109914D01*
G37*
G36*
Y109708D02*
G01X86248D01*
Y109631D01*
X85668D01*
Y109708D01*
G37*
G36*
Y109502D02*
G01X86248D01*
Y109425D01*
X85668D01*
Y109502D01*
G37*
G36*
Y109296D02*
G01X86248D01*
Y109219D01*
X85668D01*
Y109296D01*
G37*
G36*
Y110945D02*
G01X86248D01*
Y110867D01*
X85668D01*
Y110945D01*
G37*
G36*
D02*
G01X86248D01*
Y110867D01*
X85668D01*
Y110945D01*
G37*
G36*
Y112387D02*
G01X86248D01*
Y112310D01*
X85668D01*
Y112387D01*
G37*
G36*
Y112181D02*
G01X86248D01*
Y112103D01*
X85668D01*
Y112181D01*
G37*
G36*
Y111975D02*
G01X86248D01*
Y111898D01*
X85668D01*
Y111975D01*
G37*
G36*
Y111769D02*
G01X86248D01*
Y111692D01*
X85668D01*
Y111769D01*
G37*
G36*
Y111563D02*
G01X86248D01*
Y111485D01*
X85668D01*
Y111563D01*
G37*
G36*
Y111357D02*
G01X86248D01*
Y111279D01*
X85668D01*
Y111357D01*
G37*
G36*
Y111151D02*
G01X86248D01*
Y111073D01*
X85668D01*
Y111151D01*
G37*
G54D17*
X95800Y59126D03*
Y58322D03*
G36*
X95530Y109505D02*
G01X96110D01*
Y109428D01*
X95530D01*
Y109505D01*
G37*
G36*
Y109299D02*
G01X96110D01*
Y109222D01*
X95530D01*
Y109299D01*
G37*
G36*
Y109093D02*
G01X96110D01*
Y109016D01*
X95530D01*
Y109093D01*
G37*
G36*
Y108887D02*
G01X96110D01*
Y108810D01*
X95530D01*
Y108887D01*
G37*
G36*
Y108681D02*
G01X96110D01*
Y108603D01*
X95530D01*
Y108681D01*
G37*
G36*
X95926Y108097D02*
G01Y107707D01*
X95896D01*
Y108128D01*
G37*
G36*
X95530Y109711D02*
G01X96110D01*
Y109634D01*
X95530D01*
Y109711D01*
G37*
G36*
Y111360D02*
G01X96110D01*
Y111283D01*
X95530D01*
Y111360D01*
G37*
G36*
Y109918D02*
G01X96110D01*
Y109840D01*
X95530D01*
Y109918D01*
G37*
G36*
Y110123D02*
G01X96110D01*
Y110046D01*
X95530D01*
Y110123D01*
G37*
G36*
Y110329D02*
G01X96110D01*
Y110252D01*
X95530D01*
Y110329D01*
G37*
G36*
Y110535D02*
G01X96110D01*
Y110458D01*
X95530D01*
Y110535D01*
G37*
G36*
Y110742D02*
G01X96110D01*
Y110665D01*
X95530D01*
Y110742D01*
G37*
G36*
Y110948D02*
G01X96110D01*
Y110870D01*
X95530D01*
Y110948D01*
G37*
G36*
D02*
G01X96110D01*
Y110870D01*
X95530D01*
Y110948D01*
G37*
G36*
Y111154D02*
G01X96110D01*
Y111076D01*
X95530D01*
Y111154D01*
G37*
G36*
Y113008D02*
G01X96110D01*
Y112931D01*
X95530D01*
Y113008D01*
G37*
G36*
Y112802D02*
G01X96110D01*
Y112725D01*
X95530D01*
Y112802D01*
G37*
G36*
Y112597D02*
G01X96110D01*
Y112518D01*
X95530D01*
Y112597D01*
G37*
G36*
Y112390D02*
G01X96110D01*
Y112312D01*
X95530D01*
Y112390D01*
G37*
G36*
Y112184D02*
G01X96110D01*
Y112106D01*
X95530D01*
Y112184D01*
G37*
G36*
Y111978D02*
G01X96110D01*
Y111901D01*
X95530D01*
Y111978D01*
G37*
G36*
Y111772D02*
G01X96110D01*
Y111695D01*
X95530D01*
Y111772D01*
G37*
G36*
Y111566D02*
G01X96110D01*
Y111489D01*
X95530D01*
Y111566D01*
G37*
G36*
Y113215D02*
G01X96110D01*
Y113138D01*
X95530D01*
Y113215D01*
G37*
G36*
Y114863D02*
G01X96110D01*
Y114786D01*
X95530D01*
Y114863D01*
G37*
G36*
Y114657D02*
G01X96110D01*
Y114580D01*
X95530D01*
Y114657D01*
G37*
G36*
Y114451D02*
G01X96110D01*
Y114374D01*
X95530D01*
Y114451D01*
G37*
G36*
Y114245D02*
G01X96110D01*
Y114168D01*
X95530D01*
Y114245D01*
G37*
G36*
Y114039D02*
G01X96110D01*
Y113962D01*
X95530D01*
Y114039D01*
G37*
G36*
Y113833D02*
G01X96110D01*
Y113755D01*
X95530D01*
Y113833D01*
G37*
G36*
Y113627D02*
G01X96110D01*
Y113549D01*
X95530D01*
Y113627D01*
G37*
G36*
Y113421D02*
G01X96110D01*
Y113343D01*
X95530D01*
Y113421D01*
G37*
G54D307*
X95820Y116679D03*
G36*
X95530Y116718D02*
G01X96110D01*
Y116641D01*
X95530D01*
Y116718D01*
G37*
G36*
Y115069D02*
G01X96110D01*
Y114992D01*
X95530D01*
Y115069D01*
G37*
G36*
Y115276D02*
G01X96110D01*
Y115198D01*
X95530D01*
Y115276D01*
G37*
G36*
Y115481D02*
G01X96110D01*
Y115404D01*
X95530D01*
Y115481D01*
G37*
G36*
Y115687D02*
G01X96110D01*
Y115610D01*
X95530D01*
Y115687D01*
G37*
G36*
D02*
G01X96110D01*
Y115610D01*
X95530D01*
Y115687D01*
G37*
G36*
Y115894D02*
G01X96110D01*
Y115817D01*
X95530D01*
Y115894D01*
G37*
G36*
Y116100D02*
G01X96110D01*
Y116022D01*
X95530D01*
Y116100D01*
G37*
G36*
Y116306D02*
G01X96110D01*
Y116228D01*
X95530D01*
Y116306D01*
G37*
G36*
Y116512D02*
G01X96110D01*
Y116434D01*
X95530D01*
Y116512D01*
G37*
G54D312*
X89456Y131858D03*
G54D308*
Y133065D03*
Y132663D03*
Y132260D03*
G36*
X89597Y138238D02*
G01X89605D01*
Y138470D01*
X89597D01*
Y138238D01*
G37*
G54D478*
X89601Y138354D03*
G54D529*
D03*
G54D523*
D03*
G54D478*
D03*
G36*
X89589Y138213D02*
G01Y138496D01*
X89597D01*
Y138213D01*
G37*
G54D523*
X89601Y138354D03*
G54D529*
D03*
G54D478*
D03*
G36*
X89597Y138238D02*
G01X89605D01*
Y138470D01*
X89597D01*
Y138238D01*
G37*
G54D273*
X89601Y138072D03*
D03*
G54D301*
X89356Y138233D03*
X89847D03*
G36*
X47239Y98791D02*
G01X47316D01*
Y98211D01*
X47239D01*
Y98791D01*
G37*
G36*
X47311Y95464D02*
G01Y95260D01*
X47251Y95199D01*
Y95524D01*
G37*
G36*
X47239Y95537D02*
G01Y95171D01*
X47209D01*
Y95567D01*
G37*
G36*
X47070Y95705D02*
G01Y95011D01*
X47055D01*
Y95721D01*
G37*
G36*
X47103Y95673D02*
G01Y95043D01*
X47088D01*
Y95688D01*
G37*
G36*
X47271Y95504D02*
G01Y95204D01*
X47241D01*
Y95534D01*
G37*
G36*
X47279Y95496D02*
G01Y95228D01*
X47218Y95167D01*
Y95556D01*
G37*
G36*
X47103Y95673D02*
G01Y95043D01*
X47088D01*
Y95688D01*
G37*
G36*
X47271Y95504D02*
G01Y95204D01*
X47241D01*
Y95534D01*
G37*
G36*
X47279Y95496D02*
G01Y95228D01*
X47218Y95167D01*
Y95556D01*
G37*
G36*
X47239Y101528D02*
G01X47316D01*
Y100949D01*
X47239D01*
Y101528D01*
G37*
G54D314*
X47015Y104432D03*
D03*
G54D235*
X47217Y110163D03*
D03*
G54D315*
X46613Y104432D03*
D03*
Y106396D03*
G54D314*
X47015D03*
X51845D03*
Y104432D03*
G36*
X51666Y101528D02*
G01X51743D01*
Y100949D01*
X51666D01*
Y101528D01*
G37*
G36*
Y98791D02*
G01X51743D01*
Y98211D01*
X51666D01*
Y98791D01*
G37*
G54D235*
X52047Y110163D03*
X51644D03*
G36*
X52069Y101528D02*
G01X52146D01*
Y100949D01*
X52069D01*
Y101528D01*
G37*
G36*
X51867D02*
G01X51945D01*
Y100949D01*
X51867D01*
Y101528D01*
G37*
G36*
Y98791D02*
G01X51945D01*
Y98211D01*
X51867D01*
Y98791D01*
G37*
G36*
X52069D02*
G01X52146D01*
Y98211D01*
X52069D01*
Y98791D01*
G37*
G54D171*
X52490Y107772D03*
G54D172*
Y108851D03*
G54D314*
X52651Y106396D03*
G54D317*
X52248D03*
G36*
X52673Y101528D02*
G01X52750D01*
Y100949D01*
X52673D01*
Y101528D01*
G37*
G54D235*
X52449Y110163D03*
G36*
X52471Y101528D02*
G01X52548D01*
Y100949D01*
X52471D01*
Y101528D01*
G37*
G36*
X52270D02*
G01X52347D01*
Y100949D01*
X52270D01*
Y101528D01*
G37*
G36*
Y98791D02*
G01X52347D01*
Y98211D01*
X52270D01*
Y98791D01*
G37*
G36*
X52471D02*
G01X52548D01*
Y98211D01*
X52471D01*
Y98791D01*
G37*
G36*
X52673D02*
G01X52750D01*
Y98211D01*
X52673D01*
Y98791D01*
G37*
G54D314*
X52651Y104432D03*
G54D317*
X52248D03*
G54D191*
X62126Y144054D03*
G54D29*
X61506Y146871D03*
D03*
G54D191*
X62126Y145663D03*
Y145261D03*
D03*
G54D192*
Y144858D03*
Y144456D03*
G54D320*
X61506Y150316D03*
X61908D03*
X62311D03*
G54D314*
X61707Y157477D03*
X62110D03*
Y154780D03*
X61707D03*
X61506Y152281D03*
G54D316*
X60902Y157477D03*
G54D317*
X61305D03*
Y154780D03*
G54D316*
X60902D03*
G54D314*
X62311Y152281D03*
X61908D03*
G54D241*
X63518Y146252D03*
G54D242*
X63116D03*
G54D240*
X62714D03*
G54D243*
X63518Y137026D03*
D03*
G54D238*
X63116D03*
G54D235*
X62714D03*
G54D320*
Y150316D03*
G54D321*
X63116D03*
G54D323*
X63518D03*
G54D315*
Y152281D03*
G54D316*
X63116D03*
G54D314*
X62714D03*
X62915Y154780D03*
G54D318*
X63317D03*
Y157477D03*
G54D314*
X62915D03*
G54D327*
X72414Y57742D03*
X72817D03*
G54D329*
X73219D03*
X73621D03*
G54D327*
X74024D03*
G54D324*
Y59706D03*
G54D325*
X73621D03*
X73219D03*
G54D324*
X72817D03*
X72414D03*
G54D416*
X73364Y65728D03*
G54D246*
X73984Y67796D03*
G54D204*
X73396Y68384D03*
G54D205*
Y68786D03*
G54D206*
Y69189D03*
G54D207*
Y69591D03*
G54D204*
Y69994D03*
G54D208*
Y70396D03*
G54D314*
X79619Y129387D03*
X80021D03*
G54D235*
Y134611D03*
X80424D03*
X79619D03*
G54D314*
Y131351D03*
X80021D03*
X80424D03*
Y129387D03*
G54D450*
X80310Y155560D03*
G54D235*
X80424Y143836D03*
X80021D03*
D03*
X79619D03*
Y146686D03*
X80021D03*
X80424D03*
G54D240*
X79619Y152690D03*
X80021D03*
X80424D03*
G54D172*
X79700Y109624D03*
D03*
Y110703D03*
G54D218*
X79640Y103883D03*
Y103480D03*
G54D219*
Y103078D03*
G54D218*
Y102675D03*
Y102272D03*
G54D236*
X80265Y112076D03*
X79863D03*
G54D243*
X79460D03*
G54D314*
X79015Y118837D03*
X78210Y123668D03*
X78613D03*
D03*
X79015D03*
Y120971D03*
X78613D03*
X78210D03*
Y118837D03*
X78613D03*
G54D316*
X78814Y125362D03*
G54D317*
X78411D03*
G54D316*
X78814Y131351D03*
G54D317*
X78411D03*
G54D316*
X78814Y129387D03*
G54D317*
X78411D03*
Y127326D03*
G54D316*
X78814D03*
G54D335*
X79418Y116140D03*
G54D236*
X80265Y114853D03*
X79863D03*
G54D243*
X79460D03*
G54D316*
X79418Y118837D03*
X79820D03*
G54D317*
X80223D03*
G54D336*
Y116140D03*
G54D335*
X79820D03*
G54D317*
X80223Y123668D03*
G54D316*
X79820D03*
X79418D03*
G54D314*
X79619Y125362D03*
X80021D03*
X80424D03*
G54D317*
X80223Y120971D03*
G54D316*
X79820D03*
X79418D03*
G54D129*
X78790Y106943D03*
G54D110*
Y106139D03*
G54D235*
X79056Y101689D03*
G54D239*
X78654D03*
G54D235*
X78251D03*
X77849D03*
Y104466D03*
X78251D03*
G54D239*
X78654D03*
G54D235*
X79056D03*
G54D161*
X78894Y109624D03*
Y110703D03*
G54D334*
X78210Y116140D03*
X78613D03*
G54D235*
X79058Y112076D03*
Y114853D03*
G54D217*
X78474Y114270D03*
G54D216*
Y112659D03*
Y113062D03*
Y113464D03*
Y113867D03*
G54D334*
X79015Y116140D03*
D03*
G54D402*
X79055Y87808D03*
G54D405*
Y88887D03*
G54D257*
X78895Y96054D03*
G54D403*
X79860Y87808D03*
G54D404*
Y88887D03*
G54D142*
X79192Y94627D03*
G54D361*
X79603Y85611D03*
G54D360*
D03*
G54D333*
X79055Y90827D03*
G54D332*
X79458D03*
X79860D03*
G54D314*
Y92791D03*
X79458D03*
G54D256*
X80103Y96054D03*
X79700D03*
X79298D03*
G54D316*
X79055Y92791D03*
G36*
X89597Y142633D02*
G01X89605D01*
Y142866D01*
X89597D01*
Y142633D01*
G37*
G54D477*
X89601Y142750D03*
G54D529*
D03*
G36*
X89589Y142610D02*
G01Y142890D01*
X89597D01*
Y142610D01*
G37*
G54D477*
X89601Y142750D03*
G54D527*
D03*
G54D529*
D03*
G54D477*
D03*
G36*
X89597Y142633D02*
G01X89605D01*
Y142866D01*
X89597D01*
Y142633D01*
G37*
G54D527*
X89601Y142750D03*
G54D273*
Y143031D03*
G54D302*
X89847Y142870D03*
X89356D03*
G54D314*
X89118Y144681D03*
X89521D03*
X89923D03*
X90326D03*
G54D165*
X90889Y149793D03*
G54D174*
X89279D03*
G54D160*
X90084D03*
G54D334*
X89118Y146646D03*
X89521D03*
X89923D03*
X90326D03*
G54D158*
X87669Y149793D03*
G36*
X87826Y142633D02*
G01X87834D01*
Y142866D01*
X87826D01*
Y142633D01*
G37*
G54D477*
X87830Y142750D03*
G54D528*
D03*
G36*
X87818Y142610D02*
G01Y142890D01*
X87825D01*
Y142610D01*
G37*
G54D477*
X87830Y142750D03*
G54D525*
D03*
G54D528*
D03*
G54D477*
D03*
G36*
X87826Y142633D02*
G01X87834D01*
Y142866D01*
X87826D01*
Y142633D01*
G37*
G54D525*
X87830Y142750D03*
G54D273*
Y143031D03*
G54D302*
X87585Y142870D03*
G54D334*
X87910Y146646D03*
G54D314*
Y144681D03*
G54D159*
X88474Y149793D03*
G54D302*
X88076Y142870D03*
G54D336*
X88313Y146646D03*
G54D317*
Y144681D03*
G54D314*
X88877Y120532D03*
G54D17*
X89682Y124331D03*
Y125136D03*
G54D314*
X88877Y122496D03*
G54D316*
X89279D03*
Y120532D03*
D03*
G54D17*
X89682Y125941D03*
Y129161D03*
D03*
Y128356D03*
Y127551D03*
Y126747D03*
G54D311*
X89456Y131456D03*
G54D308*
Y131053D03*
Y130650D03*
Y130248D03*
G54D334*
D03*
G36*
X87658Y108018D02*
G01X87735D01*
Y107439D01*
X87658D01*
Y108018D01*
G37*
G36*
X87864D02*
G01X87941D01*
Y107439D01*
X87864D01*
Y108018D01*
G37*
G36*
X88070D02*
G01X88147D01*
Y107439D01*
X88070D01*
Y108018D01*
G37*
G36*
X88276D02*
G01X88353D01*
Y107439D01*
X88276D01*
Y108018D01*
G37*
G36*
X88482D02*
G01X88560D01*
Y107439D01*
X88482D01*
Y108018D01*
G37*
G36*
X88273Y117879D02*
G01X88350D01*
Y117300D01*
X88273D01*
Y117879D01*
G37*
G36*
X88067D02*
G01X88144D01*
Y117300D01*
X88067D01*
Y117879D01*
G37*
G36*
X87861D02*
G01X87938D01*
Y117300D01*
X87861D01*
Y117879D01*
G37*
G36*
X87655D02*
G01X87732D01*
Y117300D01*
X87655D01*
Y117879D01*
G37*
G36*
D02*
G01X87732D01*
Y117300D01*
X87655D01*
Y117879D01*
G37*
G36*
X88479D02*
G01X88556D01*
Y117300D01*
X88479D01*
Y117879D01*
G37*
G54D314*
X87669Y122496D03*
X88072D03*
X88474D03*
Y120532D03*
X88072D03*
X87669D03*
G36*
X86830Y117879D02*
G01X86908D01*
Y117300D01*
X86830D01*
Y117879D01*
G37*
G36*
X87036D02*
G01X87114D01*
Y117300D01*
X87036D01*
Y117879D01*
G37*
G36*
X87242D02*
G01X87320D01*
Y117300D01*
X87242D01*
Y117879D01*
G37*
G36*
X86833Y108018D02*
G01X86911D01*
Y107439D01*
X86833D01*
Y108018D01*
G37*
G36*
X87040D02*
G01X87117D01*
Y107439D01*
X87040D01*
Y108018D01*
G37*
G36*
X87246D02*
G01X87323D01*
Y107439D01*
X87246D01*
Y108018D01*
G37*
G54D76*
X87266Y129161D03*
G54D17*
X87267Y128356D03*
Y127551D03*
Y126747D03*
Y125941D03*
Y125136D03*
Y124331D03*
G54D314*
X86864Y122496D03*
X87266D03*
Y120532D03*
X86864D03*
G54D17*
X88554Y59126D03*
G54D18*
X87750D03*
G54D17*
X86945D03*
G54D18*
X87750Y58322D03*
G54D17*
X88554D03*
G54D66*
X86945D03*
G54D338*
X88474Y96382D03*
X88072D03*
G54D314*
X88474Y98346D03*
G54D245*
X86864Y90706D03*
X87266D03*
X87669D03*
X88072D03*
X88474D03*
G54D261*
X86864Y81481D03*
X87266D03*
X87669D03*
X88072D03*
X88474D03*
G54D314*
X88072Y98346D03*
G54D262*
X92902Y81481D03*
G54D261*
X92499D03*
X92097D03*
G54D17*
X92580Y58322D03*
Y59126D03*
G54D406*
X93465Y94120D03*
G54D410*
Y93041D03*
G54D314*
X93304Y98346D03*
G54D245*
Y90706D03*
G54D247*
X94109D03*
D03*
G54D245*
X93707D03*
G54D338*
X93304Y96382D03*
D03*
X93707D03*
G54D340*
X94109D03*
G54D315*
Y98346D03*
G54D314*
X93707D03*
G36*
X93841Y108018D02*
G01X93918D01*
Y107439D01*
X93841D01*
Y108018D01*
G37*
G36*
X93635D02*
G01X93712D01*
Y107439D01*
X93635D01*
Y108018D01*
G37*
G36*
X93428D02*
G01X93505D01*
Y107439D01*
X93428D01*
Y108018D01*
G37*
G36*
D02*
G01X93505D01*
Y107439D01*
X93428D01*
Y108018D01*
G37*
G36*
X93222D02*
G01X93299D01*
Y107439D01*
X93222D01*
Y108018D01*
G37*
G36*
X94046D02*
G01X94124D01*
Y107439D01*
X94046D01*
Y108018D01*
G37*
G36*
X94252D02*
G01X94330D01*
Y107439D01*
X94252D01*
Y108018D01*
G37*
G54D171*
X94512Y155702D03*
G54D172*
Y154623D03*
G54D314*
X94552Y123024D03*
G54D20*
X94512Y157740D03*
Y156934D03*
Y153312D03*
Y152506D03*
G54D243*
Y129382D03*
Y134575D03*
Y137432D03*
G54D266*
Y142625D03*
G36*
X94455Y117879D02*
G01X94533D01*
Y117300D01*
X94455D01*
Y117879D01*
G37*
G54D314*
X94552Y120327D03*
G54D335*
X94673Y146646D03*
G54D316*
Y144681D03*
G36*
X94661Y117879D02*
G01X94739D01*
Y117300D01*
X94661D01*
Y117879D01*
G37*
G54D161*
X94914Y150872D03*
G54D160*
Y149793D03*
G54D315*
X94954Y123024D03*
G54D236*
X94914Y129382D03*
Y134575D03*
Y137432D03*
G54D267*
Y142625D03*
G36*
X94868Y117879D02*
G01X94945D01*
Y117300D01*
X94868D01*
Y117879D01*
G37*
G54D315*
X94954Y120327D03*
G54D159*
X96524Y149793D03*
X97329D03*
G54D174*
X98134D03*
G54D162*
Y150872D03*
G54D163*
X97329D03*
X96524D03*
G54D334*
X98416Y146646D03*
D03*
X98014D03*
G54D342*
X96404D03*
G54D337*
X96806D03*
G54D334*
X97208D03*
X97611D03*
G54D160*
X98939Y149793D03*
G54D161*
Y150872D03*
G54D334*
X98819Y146646D03*
G54D374*
X100630Y149383D03*
G54D375*
Y151121D03*
G54D336*
X99221Y146646D03*
G36*
X101029Y146256D02*
G01X101037D01*
Y146489D01*
X101029D01*
Y146256D01*
G37*
G54D481*
X101033Y146372D03*
G54D532*
D03*
G36*
X101021Y146232D02*
G01Y146513D01*
X101028D01*
Y146232D01*
G37*
G54D481*
X101033Y146372D03*
G54D557*
X101032D03*
G54D532*
X101033D03*
G54D481*
D03*
G36*
X101029Y146256D02*
G01X101037D01*
Y146489D01*
X101029D01*
Y146256D01*
G37*
G54D557*
X101032Y146372D03*
G54D277*
X101033Y146654D03*
G54D306*
X100787Y146493D03*
X101278D03*
G54D315*
X96404Y144681D03*
G54D318*
X96806D03*
G54D314*
X97208D03*
X97611D03*
G54D317*
X99221D03*
G54D314*
X98819D03*
X98416D03*
X98014D03*
G36*
X101029Y144838D02*
G01X101037D01*
Y145072D01*
X101029D01*
Y144838D01*
G37*
G54D492*
X101033Y144955D03*
G54D558*
D03*
G54D557*
X101032Y144956D03*
G36*
X101029Y144838D02*
G01X101037D01*
Y145072D01*
X101029D01*
Y144838D01*
G37*
G54D492*
X101033Y144955D03*
G54D558*
D03*
G54D492*
D03*
G36*
X101021Y144814D02*
G01Y145097D01*
X101028D01*
Y144814D01*
G37*
G54D557*
X101032Y144956D03*
G54D275*
X101033Y144674D03*
G54D306*
X101278Y144834D03*
X100787D03*
G54D352*
X105179Y61364D03*
G54D348*
X105178D03*
X105581D03*
D03*
G54D344*
Y63328D03*
X105178D03*
X104776D03*
G54D348*
Y61364D03*
G36*
X107413Y54273D02*
G01X106607D01*
Y54280D01*
X107413D01*
G37*
G36*
X107409Y54276D02*
G01Y55081D01*
X107416D01*
Y54276D01*
G37*
G54D232*
X105219Y57355D03*
G54D348*
X104776Y61364D03*
G54D346*
X103045Y74969D03*
G54D47*
X102964Y70799D03*
Y65969D03*
G54D349*
X102764Y61364D03*
G54D348*
X103166D03*
G54D344*
Y63328D03*
G54D345*
X102764D03*
G54D344*
X103045Y76933D03*
G54D269*
Y79473D03*
G54D18*
X102723Y92131D03*
Y91326D03*
Y90521D03*
Y89716D03*
Y88911D03*
Y88106D03*
Y87301D03*
Y86496D03*
D03*
G54D269*
X103045Y83055D03*
G54D48*
X105863Y78849D03*
G54D346*
X104655Y74969D03*
G54D351*
X105058Y76933D03*
G54D344*
X104655D03*
G54D350*
X105058Y74969D03*
G54D269*
X104655Y79473D03*
G54D49*
X105863Y78849D03*
G54D269*
X104655Y83055D03*
G54D234*
X105239Y82471D03*
G54D231*
D03*
G54D232*
Y82069D03*
Y81666D03*
G54D233*
Y81264D03*
G54D232*
Y80861D03*
G54D233*
Y80459D03*
G54D232*
Y80056D03*
G54D48*
X105863Y83679D03*
G54D392*
X36671Y59609D03*
G54D16*
X36469Y73053D03*
Y72248D03*
Y71443D03*
Y70638D03*
Y69833D03*
Y69028D03*
Y68223D03*
Y67418D03*
G54D17*
X38080Y70638D03*
Y69833D03*
Y69028D03*
Y68223D03*
Y67418D03*
Y71443D03*
Y72248D03*
Y73053D03*
G54D391*
X38039Y59609D03*
G54D437*
X46210Y112393D03*
Y116949D03*
Y118028D03*
G54D184*
X46074Y125539D03*
Y120387D03*
G54D95*
Y121353D03*
Y122158D03*
Y122963D03*
Y123768D03*
Y124573D03*
D03*
G54D111*
X46476Y154197D03*
Y153392D03*
G54D126*
Y152586D03*
G54D111*
Y151782D03*
G36*
X46739Y127175D02*
G01Y126970D01*
X46678Y126909D01*
Y127236D01*
G37*
G36*
X46675Y127246D02*
G01Y126884D01*
X46644D01*
Y127277D01*
G37*
G36*
X46506Y127415D02*
G01Y126723D01*
X46491D01*
Y127430D01*
G37*
G36*
X46739Y127175D02*
G01Y126970D01*
X46678Y126909D01*
Y127236D01*
G37*
G36*
X46675Y127246D02*
G01Y126884D01*
X46644D01*
Y127277D01*
G37*
G36*
X46506Y127415D02*
G01Y126723D01*
X46491D01*
Y127430D01*
G37*
G36*
X46771Y127143D02*
G01Y127002D01*
X46711Y126941D01*
Y127204D01*
G37*
G36*
X46643Y127278D02*
G01Y126852D01*
X46613D01*
Y127309D01*
G37*
G36*
X46474Y127447D02*
G01Y126691D01*
X46459D01*
Y127462D01*
G37*
G54D95*
X46074Y130208D03*
Y131013D03*
G54D442*
X61667Y58619D03*
G54D443*
Y57541D03*
G54D108*
X62335Y74743D03*
D03*
G54D92*
Y73938D03*
G54D86*
Y72328D03*
Y73134D03*
G54D202*
X62126Y84886D03*
G54D200*
Y85289D03*
G54D201*
Y85692D03*
G54D199*
Y86094D03*
Y86496D03*
G54D200*
Y86899D03*
Y87301D03*
G54D201*
Y87704D03*
G54D200*
Y88106D03*
G54D201*
Y84484D03*
G54D200*
Y84081D03*
Y83679D03*
Y83276D03*
G54D199*
Y82874D03*
Y82471D03*
G36*
X63983Y60342D02*
G01X64060D01*
Y59762D01*
X63983D01*
Y60342D01*
G37*
G36*
X63781D02*
G01X63859D01*
Y59762D01*
X63781D01*
Y60342D01*
G37*
G36*
X63580D02*
G01X63658D01*
Y59762D01*
X63580D01*
Y60342D01*
G37*
G36*
Y57605D02*
G01X63658D01*
Y57025D01*
X63580D01*
Y57605D01*
G37*
G36*
X63781D02*
G01X63859D01*
Y57025D01*
X63781D01*
Y57605D01*
G37*
G36*
X63983D02*
G01X64060D01*
Y57025D01*
X63983D01*
Y57605D01*
G37*
G36*
Y66701D02*
G01X64060D01*
Y66122D01*
X63983D01*
Y66701D01*
G37*
G36*
X63781D02*
G01X63859D01*
Y66122D01*
X63781D01*
Y66701D01*
G37*
G36*
X63580D02*
G01X63658D01*
Y66122D01*
X63580D01*
Y66701D01*
G37*
G36*
X63983Y69439D02*
G01X64060D01*
Y68859D01*
X63983D01*
Y69439D01*
G37*
G36*
X63781D02*
G01X63859D01*
Y68859D01*
X63781D01*
Y69439D01*
G37*
G36*
X63580D02*
G01X63658D01*
Y68859D01*
X63580D01*
Y69439D01*
G37*
G36*
Y66701D02*
G01X63658D01*
Y66122D01*
X63580D01*
Y66701D01*
G37*
G54D87*
X63414Y72328D03*
Y73134D03*
G54D93*
Y73938D03*
G54D116*
Y74743D03*
G54D39*
X103559Y147148D03*
Y145892D03*
Y144636D03*
Y143380D03*
Y142125D03*
Y140869D03*
Y139613D03*
Y138357D03*
G54D34*
X104364Y141497D03*
G54D134*
X103633Y109519D03*
G54D117*
Y110325D03*
G54D130*
Y111129D03*
G54D117*
Y111935D03*
G54D134*
Y112739D03*
G54D117*
Y113545D03*
G54D130*
Y114349D03*
Y115154D03*
G54D117*
Y120790D03*
G54D134*
Y119984D03*
G54D117*
Y119180D03*
G54D130*
Y118374D03*
Y117569D03*
G54D134*
Y116764D03*
Y115959D03*
G54D130*
Y115154D03*
Y121594D03*
Y122399D03*
G54D134*
Y123204D03*
Y124009D03*
D03*
Y127229D03*
Y126424D03*
G54D130*
Y125619D03*
Y124814D03*
G54D156*
X104712Y109519D03*
G54D155*
Y110325D03*
G54D154*
Y111129D03*
G54D155*
Y111935D03*
G54D156*
Y112739D03*
G54D155*
Y113545D03*
G54D156*
Y119984D03*
G54D155*
Y119180D03*
G54D154*
Y118374D03*
Y117569D03*
G54D156*
Y116764D03*
Y115959D03*
G54D154*
Y115154D03*
Y114349D03*
G54D155*
Y120790D03*
G54D154*
Y121594D03*
Y122399D03*
G54D156*
Y123204D03*
Y124009D03*
Y127229D03*
Y126424D03*
G54D154*
Y125619D03*
Y124814D03*
G54D18*
X102723Y105011D03*
D03*
Y104206D03*
Y103401D03*
Y102597D03*
Y101792D03*
Y100986D03*
Y100181D03*
Y99376D03*
Y105817D03*
G54D152*
X103633Y99859D03*
G54D117*
Y105495D03*
G54D130*
Y104689D03*
Y103884D03*
G54D117*
Y103080D03*
G54D134*
Y102274D03*
G54D117*
Y101470D03*
G54D130*
Y100664D03*
G54D80*
X105219Y57355D03*
G54D372*
X104655Y72570D03*
G54D371*
Y70831D03*
G54D147*
X104712Y86979D03*
G54D148*
Y87784D03*
G54D146*
Y88589D03*
G54D148*
Y90199D03*
G54D143*
Y91004D03*
G54D148*
Y91809D03*
G54D146*
Y92614D03*
Y93419D03*
Y95834D03*
G54D149*
Y96639D03*
G54D148*
Y97444D03*
G54D143*
Y98249D03*
G54D150*
Y99054D03*
G54D148*
Y95029D03*
G54D147*
Y94224D03*
G54D146*
Y93419D03*
G54D153*
Y99859D03*
G54D154*
Y100664D03*
G54D155*
Y101470D03*
G54D156*
Y102274D03*
D03*
G54D155*
Y103080D03*
G54D154*
Y103884D03*
Y104689D03*
G54D155*
Y105495D03*
G54D162*
X61345Y127688D03*
Y126609D03*
Y125273D03*
Y124194D03*
Y122021D03*
Y123100D03*
G54D193*
X62126Y140432D03*
G54D192*
Y140834D03*
G54D191*
Y141236D03*
Y141638D03*
Y142041D03*
Y142444D03*
Y142845D03*
Y143248D03*
Y140029D03*
Y139626D03*
Y139223D03*
G54D192*
Y138821D03*
G54D191*
Y138418D03*
Y138016D03*
G54D192*
Y137614D03*
G54D161*
X67543Y133854D03*
Y134933D03*
G54D240*
X67544Y146252D03*
X67141D03*
G54D242*
X66739D03*
G54D235*
X67544Y137026D03*
X67141D03*
G54D238*
X66739D03*
G54D241*
X67946Y146252D03*
G54D243*
Y137026D03*
G54D354*
X67930Y117650D03*
G54D172*
X69154Y133854D03*
D03*
X68348D03*
Y134933D03*
G54D235*
X68751Y137026D03*
X69153D03*
G54D240*
Y146252D03*
D03*
X68751D03*
G54D253*
X68349D03*
G54D236*
Y137026D03*
G54D172*
X69154Y134933D03*
X71568D03*
X72374D03*
Y133854D03*
G54D216*
X71351Y138016D03*
G54D215*
Y137614D03*
G54D172*
X71568Y133854D03*
G54D216*
X71351Y138418D03*
Y140029D03*
G54D217*
Y140432D03*
G54D215*
Y140834D03*
G54D216*
Y141236D03*
Y141638D03*
Y142041D03*
Y143248D03*
D03*
Y142845D03*
Y142444D03*
Y139626D03*
Y139223D03*
G54D215*
Y138821D03*
G54D433*
X76962Y113005D03*
G54D445*
Y114084D03*
G54D172*
X75996Y113005D03*
G54D388*
X76801Y123003D03*
Y121634D03*
Y118173D03*
Y116804D03*
G54D165*
X75996Y114084D03*
G54D163*
X76640Y125804D03*
G54D191*
X76616Y137211D03*
G54D193*
Y136809D03*
G54D191*
Y136406D03*
G54D193*
Y136004D03*
G54D29*
X75996Y133991D03*
G54D191*
X76616Y135198D03*
Y135601D03*
G54D243*
X77204Y134611D03*
G54D163*
X76640Y130908D03*
Y129829D03*
Y126883D03*
G54D318*
X77848Y92791D03*
G54D223*
X77909Y97443D03*
G54D224*
Y97040D03*
Y96638D03*
G54D17*
X77928Y83760D03*
G54D222*
X77909Y97845D03*
G54D220*
Y98248D03*
D03*
G54D331*
X77848Y90827D03*
G54D401*
X78250Y87808D03*
G54D318*
Y92791D03*
G54D331*
Y90827D03*
G54D93*
X78114Y94627D03*
G54D406*
X78250Y88887D03*
G54D314*
X78653Y92791D03*
G54D256*
X78493Y96054D03*
G54D66*
X78734Y83760D03*
G54D332*
X78653Y90827D03*
G54D399*
X76238Y58185D03*
G54D245*
X76399Y77022D03*
X75996D03*
Y67796D03*
X76399D03*
G54D399*
X76238Y59263D03*
G54D247*
X76801Y77022D03*
X77204D03*
G36*
X77458Y60467D02*
G01Y60199D01*
X77428D01*
Y60498D01*
G37*
G36*
X77290Y60635D02*
G01Y60038D01*
X77274D01*
Y60651D01*
G37*
G36*
X77458Y60467D02*
G01Y60199D01*
X77428D01*
Y60498D01*
G37*
G36*
X77290Y60635D02*
G01Y60038D01*
X77274D01*
Y60651D01*
G37*
G36*
X77257Y60668D02*
G01Y60006D01*
X77242D01*
Y60683D01*
G37*
G36*
X77426Y60499D02*
G01Y60167D01*
X77395D01*
Y60530D01*
G37*
G36*
X77483Y60458D02*
G01Y60222D01*
X77422Y60162D01*
Y60519D01*
G37*
G54D247*
X76801Y67796D03*
X77204D03*
G54D89*
X77147Y62669D03*
G54D456*
X84926Y149642D03*
G54D161*
X83966Y147008D03*
G54D236*
X85254Y143836D03*
G54D239*
X84852D03*
G54D235*
X84449D03*
X84047D03*
G54D293*
X84759Y146118D03*
X85403D03*
G54D292*
X85081Y146819D03*
G54D160*
X83966Y145929D03*
G54D457*
X84926Y151042D03*
G54D17*
X84852Y157740D03*
X84047D03*
Y156934D03*
X84852D03*
Y153312D03*
X84047D03*
Y152506D03*
X84852D03*
G54D566*
X84087Y155162D03*
G54D339*
X92902Y96382D03*
G54D338*
X92499D03*
X92097D03*
G54D245*
Y90706D03*
X92499D03*
G54D246*
X92902D03*
G54D316*
Y98346D03*
G54D314*
X92499D03*
X92097D03*
G54D408*
X92660Y93041D03*
G54D407*
Y94120D03*
G36*
X93016Y108018D02*
G01X93094D01*
Y107439D01*
X93016D01*
Y108018D01*
G37*
G36*
X92810D02*
G01X92887D01*
Y107439D01*
X92810D01*
Y108018D01*
G37*
G36*
X92604D02*
G01X92681D01*
Y107439D01*
X92604D01*
Y108018D01*
G37*
G36*
X92398D02*
G01X92475D01*
Y107439D01*
X92398D01*
Y108018D01*
G37*
G36*
X92192D02*
G01X92269D01*
Y107439D01*
X92192D01*
Y108018D01*
G37*
G36*
X91986D02*
G01X92063D01*
Y107439D01*
X91986D01*
Y108018D01*
G37*
G54D265*
X92902Y142625D03*
G54D264*
X92499D03*
X92097D03*
D03*
G54D314*
X92258Y144681D03*
X92660D03*
G54D334*
X92258Y146646D03*
X92660D03*
G54D158*
X92499Y149793D03*
G54D167*
X92902Y155702D03*
G54D177*
X92097D03*
G54D163*
X92902Y154623D03*
G54D176*
X92097D03*
G54D164*
X92499Y150872D03*
G54D17*
X92902Y153312D03*
X92097D03*
Y152506D03*
X92902D03*
Y156934D03*
X92097D03*
Y157740D03*
X92902D03*
G54D266*
X94109Y142625D03*
G54D264*
X93707D03*
X93304D03*
G54D315*
X93465Y144681D03*
G54D319*
X93868D03*
G54D342*
X93465Y146646D03*
G54D343*
X93868D03*
G54D158*
X93304Y149793D03*
D03*
G54D165*
X94109D03*
G54D169*
X93707Y155702D03*
G54D17*
Y152506D03*
Y153312D03*
Y156934D03*
Y157740D03*
G54D172*
X94109Y150872D03*
G54D164*
X93304D03*
G54D161*
X93707Y154623D03*
G54D180*
X100952D03*
G54D173*
X100147D03*
G54D71*
X99342Y153310D03*
G54D17*
X98537Y152506D03*
D03*
X99342D03*
X98537Y153312D03*
G54D384*
X102401Y154518D03*
G54D567*
D03*
D03*
G54D172*
X99342Y154623D03*
X98537D03*
G54D184*
X100147Y155702D03*
G54D170*
D03*
G54D181*
X100952D03*
G54D73*
X99342Y157738D03*
G54D17*
X98537Y157740D03*
X99342Y156934D03*
X98537D03*
G54D383*
X102401Y157416D03*
G54D171*
X98537Y155702D03*
X99342D03*
G54D413*
X101757Y61807D03*
G36*
X102032Y56032D02*
G01Y55752D01*
X102001D01*
Y56062D01*
G37*
G36*
X101862Y56201D02*
G01Y55591D01*
X101847D01*
Y56216D01*
G37*
G36*
X102032Y56032D02*
G01Y55752D01*
X102001D01*
Y56062D01*
G37*
G36*
X101862Y56201D02*
G01Y55591D01*
X101847D01*
Y56216D01*
G37*
G36*
X102053Y56011D02*
G01Y55788D01*
X101992Y55727D01*
Y56072D01*
G37*
G36*
X102000Y56064D02*
G01Y55720D01*
X101969D01*
Y56095D01*
G37*
G36*
X101830Y56233D02*
G01Y55559D01*
X101815D01*
Y56248D01*
G37*
G54D22*
X101435Y58322D03*
Y59126D03*
G54D413*
X100952Y61807D03*
Y62886D03*
X101757D03*
G54D269*
X100952Y66593D03*
G54D234*
X101355D03*
G54D269*
X101757D03*
G54D270*
Y70175D03*
G54D271*
X101355D03*
G54D270*
X100952D03*
G54D299*
X100859Y64250D03*
G54D17*
X91694Y66371D03*
Y67176D03*
Y67982D03*
Y68786D03*
Y69591D03*
D03*
Y70396D03*
Y71202D03*
Y72007D03*
Y72811D03*
G54D75*
Y77641D03*
G54D17*
Y76836D03*
Y76031D03*
Y75227D03*
Y74421D03*
Y73616D03*
G54D424*
X91751Y79654D03*
G54D431*
X98513Y107829D03*
G54D432*
D03*
G36*
X98775Y134857D02*
G01X98783D01*
Y135090D01*
X98775D01*
Y134857D01*
G37*
G54D480*
X98778Y134973D03*
G54D524*
D03*
G54D480*
D03*
G36*
X98766Y134833D02*
G01Y135114D01*
X98774D01*
Y134833D01*
G37*
G54D527*
X98779Y134974D03*
G54D524*
X98778Y134973D03*
G54D480*
D03*
G36*
X98775Y134857D02*
G01X98783D01*
Y135090D01*
X98775D01*
Y134857D01*
G37*
G54D527*
X98779Y134974D03*
G54D17*
X98537Y124734D03*
G54D71*
Y127149D03*
G54D274*
X98778Y134691D03*
G54D301*
X98533Y134852D03*
X99024D03*
G54D17*
X31639Y151942D03*
Y151138D03*
Y150333D03*
Y149528D03*
Y148722D03*
Y147918D03*
G54D365*
X34055Y148819D03*
Y150558D03*
G54D387*
X34054Y155282D03*
G54D386*
Y156652D03*
G54D432*
X36631Y156184D03*
G54D16*
X36469Y147918D03*
G54D17*
X38080D03*
Y148722D03*
G54D73*
X36469D03*
G54D435*
X36631Y155106D03*
G54D434*
X35503D03*
G54D433*
Y156184D03*
G54D255*
X80586Y65424D03*
Y62647D03*
G36*
X80526Y60342D02*
G01X80603D01*
Y59762D01*
X80526D01*
Y60342D01*
G37*
G36*
Y57605D02*
G01X80603D01*
Y57025D01*
X80526D01*
Y57605D01*
G37*
G54D447*
X80826Y87808D03*
G54D446*
Y88887D03*
G54D201*
X80686Y96638D03*
Y97040D03*
G54D200*
Y97443D03*
G54D221*
Y97845D03*
G54D199*
Y98248D03*
G54D314*
X80625Y123668D03*
Y120971D03*
Y118837D03*
G54D334*
Y116140D03*
G54D164*
X80504Y110703D03*
Y109624D03*
G54D216*
X81012Y148079D03*
Y148480D03*
D03*
Y148883D03*
Y149286D03*
Y149688D03*
Y150091D03*
Y150494D03*
Y150897D03*
Y151298D03*
Y151701D03*
Y152104D03*
G54D389*
X83402Y149729D03*
Y151097D03*
G54D453*
X82663Y155571D03*
G54D452*
Y155570D03*
G54D381*
X81953Y157336D03*
G54D451*
X81263Y155570D03*
D03*
M02*