M48
INCH
VER,1
FMAT,2
;FILE_FORMAT=2:4
T01C0.08547
T02C0.1074
T03C0.08204
T04C0.0636
T05C0.05328
T06C0.0499
T07C0.04785
T08C0.03555
T09C0.0287
T10C0.02527
T11C0.01368
DETECT,ON
ATC,ON
%
G90
T01
X009952Y055874
X103367

X098698Y080056
X009952Y157473
T02
X015539Y064922
X013527Y057356
X039690Y064922
X054502Y057356
X076882Y064922
X105219Y057356
X076882Y080056
X015217Y107265
X054502
X105219
X076882Y111210
X039690
X098698Y132462
X076882
X105219Y156370
X076882
X054502
X039690
X015217
T03
X101813Y085490
Y128155
T04
X049913Y059650
X053133
X056354
X059574
X056354Y077360
X053133
X059574
X049913
X071850Y157206
X067584
X069717Y157465
T05
X049914Y095070
X059574
X056354
X053134
T06
X103553Y144633
Y147144
Y145889
Y143378
Y142121
Y140866
Y139610
Y138354
Y152168
Y150913
Y149656
Y148401
T07
X102965Y070799
Y065969
X105862Y083679
Y078849
X095317Y080861
X083241Y077641
X072776
X061506Y091729
X071971
X095317Y091326
X075996Y133991
X086462
X090889Y128759
X097329
X104357Y141493
X097329Y136809
Y143249
X061506Y146871
X071971
X074386Y146066
X081631
X104357Y149028
T08
X026109Y065832
X027695
X029281
X027695Y060197
Y059666
X044198Y064359
Y062749
X072092Y155098
X071295Y154310
X069717Y155098
X067334
X068139Y154310
X068928Y158262
X070506
X071295
X068139
T09
X059171Y067901
Y068706
Y070316
Y071121
Y071926
Y069511
X050316Y065888
X053536
X056756
X049511Y063876
X055951
X052731
X050316Y064278
X049511Y064681
X050316Y065084
X049511Y065486
X052731
X055951
X053536Y065084
X052731Y064681
X055951
X056756Y064278
Y065084
X053536Y064278
X055951Y070316
Y069511
Y067096
Y066291
X056756Y066693
Y067498
Y069913
Y069108
Y068304
X055951Y067901
Y068706
X056756Y071524
Y070718
X055951Y071121
Y071926
X052731Y068706
X053536Y068304
X052731Y067901
X053536Y067498
X052731Y066291
X053536Y066693
X052731Y067096
X053536Y069108
X052731Y069511
X053536Y069913
X052731Y070316
X059171Y062266
X049511Y068706
X050316Y069108
X049511Y069511
X050316Y069913
X049511Y070316
X050316Y068304
X049511Y067901
X050316Y067498
X049511Y067096
X050316Y066693
X049511Y066291
X053536Y063473
X056756
Y062669
X055951Y062266
X052731
X053536Y062669
X055951Y063071
X052731
X050316Y063473
Y062669
X053536Y070718
X052731Y071121
X053536Y071524
X050316
X049511Y071121
X050316Y070718
X052731Y071926
X049511
X059171Y063071
Y064681
Y063876
Y065486
Y066291
Y067096
X049511Y062266
Y063071
X059976Y063473
Y062669
Y064278
Y067498
Y068304
Y069108
Y069913
Y070718
Y065084
Y065888
Y066693
Y071524
Y081988
Y075549
Y076353
Y078769
Y079573
Y080378
Y081183
Y073938
Y074743
Y072328
Y073133
X059171Y081586
Y075146
Y074341
Y073536
Y072731
X055951Y075146
Y074341
Y073536
X056756Y074743
Y073938
Y073133
Y072328
X055951Y072731
X052731Y080781
X055951
X056756Y081183
Y081988
X055951Y081586
Y079171
X053536Y078769
X055951Y078366
X056756Y080378
Y079573
Y078769
X053536Y079573
X055951Y079976
X053536Y080378
Y072328
X052731Y072731
X050316Y072328
Y073938
X053536
X052731Y073536
X053536Y073133
X050316
Y074743
X052731Y075146
X053536Y074743
X052731Y074341
X053536Y076353
X052731Y075951
X055951
X056756Y076353
Y075549
X053536
X050316Y076353
Y075549
Y079573
Y080378
X052731Y079976
Y079171
Y078366
X050316Y078769
Y081183
Y081988
X053536
X052731Y081586
X053536Y081183
X059171Y075951
Y078366
Y079171
Y079976
Y080781
X049511
Y072731
Y073536
Y074341
Y075146
Y075951
Y079171
Y079976
Y078366
Y081586
X055951Y085611
Y084806
Y084001
X056756Y082793
Y083598
Y084403
Y086014
Y085208
X055951Y082391
Y083196
X050316Y090843
X053536
X056756
X055951Y090441
Y089636
Y087221
Y086416
X056756Y090038
Y089233
Y088428
Y087623
Y086818
X055951Y088026
Y088831
X052731
X053536Y088428
X052731Y088026
X053536Y087623
X052731Y086416
X053536Y086818
X052731Y087221
X053536Y089233
X052731Y089636
X053536Y090038
X052731Y090441
X050316Y083598
X053536
X059171Y088831
X049511
X050316Y089233
X049511Y089636
X050316Y090038
X049511Y090441
X050316Y088428
X049511Y088026
X050316Y087623
X049511Y087221
X050316Y086818
X049511Y086416
X053536Y085208
X052731Y085611
X053536Y086014
X050316
X049511Y085611
X050316Y085208
X049511Y084001
X050316Y084403
X049511Y084806
X052731Y084001
X053536Y084403
X052731Y084806
X049511Y082391
X050316Y082793
X049511Y083196
X052731
X053536Y082793
X052731Y082391
X059171Y084001
Y088026
Y087221
Y086416
Y085611
Y089636
Y090441
Y091246
Y082391
Y083196
Y084806
Y092051
X056756Y091648
X055951Y091246
Y092051
X052731Y091246
X053536Y091648
X052731Y092051
X050316Y091648
X049511Y092051
Y091246
X059976Y088428
Y087623
Y086818
Y085208
Y086014
Y089233
Y090038
Y090843
Y082793
Y083598
Y084403
Y091648
Y092453
X056756
X053536
X050316
X099744Y138032
Y139610
X072921Y151299
X071343
T10
X100630Y058321
Y059127
X101435Y058321
X102240
Y059127
X101435
X093385
X095800
X096605
X097410
X098215
X099020
X099825
X094995
X094190
X093385Y058321
X094190
X094995
X095800
X096605
X097410
X098215
X099020
X099825
X090165Y059127
X092580
X091775
X090970
X086944
X087750
X088554
X089360
X086944Y058321
X092580
X091775
X090970
X090165
X089360
X088554
X087750
X057682Y057517
X056877
X058487
X059292
X060097
X052490
Y056711
Y055906
X045003Y057517
X045808
X044198
X043393
X046613Y059127
X045808
X045003
X044198
X043393
X033652Y055504
X034457
Y056309
X033652
Y057114
X034457
Y057919
X033652
X042588Y057517
X041783
X040978
X040173
Y059127
X042588
X041783
X040978
X010226Y057798
Y058603
Y059408
Y067378
Y066573
Y065768
Y064963
X018759Y067418
Y068223
X017149
Y067418
X011997Y069833
Y069028
X018759
Y069833
X017149
X015217
X013607
Y069028
X015217
X017149
X010226Y060213
X030030Y067418
Y068223
X023589
X025199
Y067418
X023589
Y069028
X025199
Y069833
X023589
X030030Y069028
Y069833
X036470Y067418
Y068223
Y069028
Y069833
X038080
Y069028
Y068223
Y067418
X031640
Y068223
Y069028
Y069833
X041783Y065164
X042910Y067418
X044520
Y068223
X042910Y069833
X044520
Y069028
X042910
Y068223
X045808Y061541
X046613
X045003
X044198
X043393
X042588
X040173
X040978
X041783
X042588Y062749
X041783
X085254Y068786
X084449
X089279
X090084
X084449Y064762
X085254
Y063956
X084449
X089279Y064762
X090084
Y063956
X089279
Y066371
X090084
Y065566
X089279
X084449
X085254
Y066371
X084449
Y067982
X085254
Y067176
X084449
X089279Y067982
X090084
Y067176
X089279
Y069592
X090084
X085254
X084449
Y062347
X085254
Y063151
X084449
X089279Y062347
X090084
Y063151
X089279
X096524Y065566
Y069592
Y068786
Y067982
Y067176
Y066371
X095719
Y067176
Y067982
Y068786
Y069592
Y065566
X091694Y067982
Y067176
Y066371
Y065566
Y068786
Y069592
X090889Y068786
Y064762
X091694
Y063956
X090889
Y066371
Y065566
Y067176
Y067982
Y069592
X095719Y062347
Y064762
X096524
Y063956
X095719
Y063151
X096524
Y062347
X090889
X091694
Y063151
X090889
X098456Y072409
X096524Y070396
Y072006
Y071201
X095719
Y072006
Y070396
X096524Y074421
X095719
Y075227
X096524
Y073616
X095719
Y072811
X096524
X100871Y072409
X096524Y076836
X095719
Y076031
X096524
X100871Y077239
X095719Y077641
X096524
X098456Y077239
X091694Y072006
Y070396
Y071201
X089279Y070396
X090084
X090889
X084449
X085254
Y072006
X084449
Y071201
X085254
X090084
X089279
Y072006
X090084
X090889
Y071201
X085254Y075227
X084449
Y074421
X085254
X091694Y075227
X090889
Y074421
X091694
X090084Y075227
X089279
Y074421
X090084
X084449Y077641
X085254
Y076836
Y076031
X084449
Y076836
X089279Y077641
X090889
X091694
Y076836
X090889
Y076031
X091694
X090084Y077641
Y076836
X089279
Y076031
X090084
Y072811
X089279
X091694
X090889
X085254
X084449
X089279Y073616
X090084
X090889
X091694
X084449
X085254
X068912Y078849
X068107
X042910Y075468
X044520
X042910Y070638
X044520
Y077883
X042910
X044520Y073053
X042910
Y071443
X044520
Y072248
X042910
X044520Y073858
X042910
Y074663
X044520
X042910Y078688
X044520
Y079493
X042910
X044520Y076273
X042910
Y077078
X044520
X036470Y075468
X038080
X036470Y070638
X038080
X036470Y077883
X038080
X036470Y073053
X038080
X036470Y071443
X038080
X036470Y072248
X038080
X036470Y073858
X038080
X036470Y074663
X038080
Y078688
Y079493
Y076273
X036470
X038080Y077078
X036470
Y078688
Y079493
X023589Y075468
X025199
X030030
X031640
X025199Y077883
X023589
X031640
X030030
Y076273
X031640
X023589
X025199
X031640Y077078
X030030
X025199
X023589
X031640Y079493
X030030
Y078688
X031640
X023589
X025199
Y079493
X023589
Y070638
X025199
Y071443
X023589
X031640
X030030
Y070638
X031640
X023589Y072248
X025199
Y073053
X023589
X031640Y072248
X030030
Y073053
X031640
X023589Y073858
X025199
Y074663
X023589
X031640Y073858
X030030
Y074663
X031640
X017149Y075468
X015217
X013607
X018759
X017149Y077883
X018759
X013607Y076273
X015217
X017149
X018759
X017149Y077078
X018759
X017149Y078688
X015217
X018759
Y079493
X017149
X015217
X013607
Y078688
X018759Y070638
Y071443
X017149
X015217
X013607
Y070638
X015217
X017149
X018759Y072248
Y073053
X017149
X015217
X013607
Y072248
X015217
X017149
X018759Y073858
Y074663
X017149
X015217
X013607
Y073858
X015217
X017149
X011997Y075468
Y076273
Y071443
Y070638
Y073053
Y072248
Y074663
Y073858
X017149Y083518
X015217
X013607
X018759
X017149Y085128
X015217
X013607
X018759
X013607Y085933
X015217
X018759
X017149
X013607Y084323
X015217
X018759
X017149
X013607Y082713
X015217
X018759
X017149
X013607Y081103
X015217
X017149
Y081908
X018759Y081103
Y081908
X013607
X015217
X018759Y080298
X013607
X015217
X017149
X011997Y089958
Y089153
Y088348
X013607Y089958
X015217
Y089153
X013607
Y088348
X015217
X018759Y089958
Y089153
Y088348
Y087543
Y086738
X017149Y089958
Y089153
Y088348
Y087543
Y086738
X023589Y083518
X025199
X030030
X023589Y085128
X025199
X030030
Y088348
Y087543
Y086738
Y089153
Y089958
Y080298
X023589Y088348
X025199
Y089153
X023589
Y089958
X025199
X023589Y087543
X025199
Y086738
X023589
X030030Y085933
X023589
X025199
X030030Y084323
X023589
X025199
X030030Y082713
X023589
X025199
Y081908
X023589
Y081103
X025199
X030030
Y081908
X023589Y080298
X025199
X031640Y083518
X036470
X038080
X031640Y085128
X036470
X038080
Y080298
X036470Y089958
X038080
Y089153
Y088348
Y087543
Y086738
X036470Y089153
Y088348
Y087543
Y086738
X031640Y088348
Y087543
Y086738
Y089153
Y089958
X036470Y080298
X031640
Y085933
X038080
X036470
X031640Y084323
X038080
X036470
X031640Y082713
X038080
X036470
X031640Y081103
X036470
Y081908
X038080
Y081103
X031640Y081908
X042910Y083518
X044520
Y085128
X042910
X044520Y088348
Y089153
X042910
Y089958
X044520
X042910Y088348
Y087543
X044520
Y086738
X042910
Y080298
X044520
X042910Y081908
X044520
X042910Y081103
X044520
Y085933
X042910
Y084323
X044520
Y082713
X042910
X078734Y083759
X077928
X101516Y088911
X102723
X101516Y089716
X102723
X102119Y089314
X100912
X102119Y090119
X100912
X102119Y088509
X100912
Y087704
X102119
X102723Y088106
X101516
Y087301
X102723
X102119Y086899
X102723Y086496
X101516
X100912Y086899
X102723Y091326
Y098571
Y099376
Y094546
Y093741
Y092131
Y092936
Y095351
Y096156
Y096961
Y097766
Y090521
X101516Y091326
X100912Y098169
X102119Y097364
Y096559
Y095754
Y094949
Y093339
Y092534
Y091729
Y094144
Y098169
Y098974
Y099779
X101516Y097766
Y096961
Y096156
Y095351
Y092936
Y092131
Y093741
Y094546
Y098571
Y099376
X102119Y090924
X100912
X101516Y090521
X100912Y094144
Y091729
Y092534
Y093339
Y094949
Y095754
Y096559
Y097364
Y098974
Y099779
X044520Y090763
X042910
X044520Y091568
Y092373
Y093178
Y098813
Y098008
Y097203
Y096398
Y095593
Y094788
Y093983
Y099618
X042910
Y093983
Y094788
Y095593
Y096398
Y097203
Y098008
Y098813
Y093178
Y092373
Y091568
X036470Y090763
X038080
X036470Y099618
X038080
Y095593
Y094788
Y093983
Y093178
Y092373
Y091568
Y096398
Y097203
Y098008
Y098813
X036470Y094788
Y095593
Y096398
Y097203
Y098008
Y098813
Y093983
Y093178
Y092373
Y091568
X025199Y090763
X023589
X031640
X030030
X023589Y099618
X025199
X030030
X031640
Y098813
Y098008
Y093178
Y092373
Y091568
Y093983
Y094788
Y095593
Y096398
Y097203
X030030
Y096398
Y095593
Y094788
Y093983
Y091568
Y092373
Y093178
Y098008
Y098813
X025199Y091568
Y092373
Y097203
Y098008
Y098813
Y096398
Y095593
Y094788
Y093983
Y093178
X023589
Y093983
Y094788
Y095593
Y096398
Y098813
Y098008
Y097203
Y092373
Y091568
X013607Y090763
X015217
X017149
X018759
X017149Y099618
X018759
X013607Y095593
X018759
Y096398
Y097203
Y098008
Y098813
X017149
Y098008
Y097203
Y096398
Y095593
X015217
Y091568
X013607
Y092373
Y094788
X015217
Y093983
X013607
Y093178
X015217
Y092373
X017149Y091568
X018759
Y092373
Y093178
Y093983
Y094788
X017149
Y093983
Y093178
Y092373
X011997Y090763
Y099618
Y098813
Y098008
Y095593
Y094788
Y093983
Y093178
Y092373
Y091568
X017149Y106863
X018759
X011997Y100423
X018759
X017149
X011997Y101228
X018759
X017149
X011997Y102033
X018759
X017149
X011997Y102838
X018759
X017149
X011997Y103643
X018759
X017149
X011997Y104448
X018759
X017149
X011997Y105253
X018759
X017149
X018759Y106058
X017149
X014090Y110083
X025199Y106863
X023589
X030030
Y100423
X023589
X025199
X030030Y101228
X025199
X023589
X030030Y102033
X023589
X025199
X030030Y102838
X025199
X023589
X030030Y103643
X023589
X025199
X030030Y104448
X025199
X023589
X030030Y105253
X023589
X025199
X030030Y106058
X025199
X023589
X031640Y106863
Y100423
X038080
X036470
X031640Y101228
X038080
X036470
X031640Y102033
X038080
X036470
X031640Y102838
X038080
X036470
X031640Y103643
X038080
X036470
X031640Y104448
X038080
X036470
X031640Y105253
X038080
X036470
X031640Y106058
X038080
X036470
X038080Y106863
X036470
X042910
X044520
Y100423
Y106058
Y105253
Y104448
Y103643
Y102838
Y102033
Y101228
X042910
Y102033
Y102838
Y103643
Y104448
Y105253
Y106058
Y100423
X102119Y106219
Y105414
Y104609
Y100584
Y101389
Y102194
Y102999
Y103804
X101516Y105816
Y105011
Y100181
Y100986
Y101791
Y102596
Y103401
Y104206
Y108231
X102723
X102119Y107829
X100912
X101516Y107426
X102723
X102119Y108634
X100912
X102119Y109439
X101516Y109036
Y109841
X102723
Y109036
Y104206
Y103401
Y102596
Y101791
Y100986
Y100181
Y105011
Y105816
X100912Y109439
Y100584
Y101389
Y102194
Y106219
Y105414
Y104609
Y102999
Y103804
X102723Y117891
Y118696
Y119501
Y114671
Y113866
Y113061
Y112256
Y110646
Y111451
Y115476
Y116281
Y117086
X101516Y117891
X102119Y117489
Y116684
Y115879
Y111854
Y111049
Y110244
Y112659
Y113464
Y114268
Y115074
X101516Y117086
Y116281
Y115476
Y111451
Y110646
Y112256
Y113061
Y113866
Y114671
X102119Y118294
Y119098
Y119904
X100912
X101516Y119501
X100912Y115074
Y114268
Y113464
Y112659
Y110244
Y111049
Y111854
Y115879
Y116684
Y117489
Y118294
X101516Y118696
X100912Y119098
X042910Y110888
Y111692
Y117328
Y116523
Y115718
Y114913
Y114108
Y113303
Y112498
Y118133
Y119743
Y118938
X044520Y110888
Y111692
Y117328
Y116523
Y115718
Y114913
Y114108
Y113303
Y112498
Y118133
Y119743
Y118938
X036470Y114913
X038080
X041300
Y114108
Y113303
Y112498
Y111692
Y110888
Y115718
Y116523
Y117328
Y118133
X036470Y115718
Y116523
Y117328
Y118133
Y118938
Y119743
X038080
Y118938
Y118133
Y117328
Y116523
Y115718
Y110888
Y111692
Y112498
Y113303
Y114108
X036470
Y113303
Y112498
Y111692
Y110888
X025199Y114913
X023589
X030030
X031640Y110888
Y111692
Y112498
Y113303
Y114108
Y114913
Y119743
Y118938
Y118133
Y117328
Y116523
Y115718
X030030
Y116523
Y117328
Y118133
Y118938
Y119743
X023589Y115718
Y116523
Y119743
Y118938
Y118133
Y117328
X025199Y115718
Y116523
Y119743
Y118938
Y118133
Y117328
Y114108
X023589
Y113303
X025199
Y112498
X023589
Y111692
X025199
Y110888
X023589
X030030Y114108
Y113303
Y112498
Y111692
Y110888
X018759
Y111692
Y112498
Y113303
Y114108
X017149
Y113303
Y112498
Y111692
Y110888
X014090Y111692
Y112498
Y113303
Y114108
Y110888
Y117328
Y116523
Y115718
Y114913
X018759
Y115718
Y116523
Y117328
Y118133
X015217
X017149
Y117328
Y116523
Y115718
Y114913
X018759Y118938
Y119743
X015217
X017149
Y118938
X015217
X012319Y114108
X010709Y110888
X012319
Y111692
X010709
Y112498
X012319
Y113303
X010709
Y114108
Y118133
X012319
Y117328
X010709
Y116523
X012319
Y115718
X010709
Y114913
X012319
X010709Y119743
X012319
Y118938
X010709
X017149Y122963
Y123768
Y129403
Y128598
Y127793
Y124572
X018759Y122963
Y123768
Y124572
Y127793
Y128598
Y129403
X012319Y120548
X010709
X015217
X017149
X018759
X012319Y122158
X010709
Y121353
X012319
X017149
X015217
Y122158
X017149
X018759Y121353
Y122158
X014090Y129403
Y128598
Y127793
X015217Y125378
Y124572
Y123768
Y122963
X010709Y124572
Y123768
Y122963
Y127793
Y128598
Y129403
X012319Y124572
Y123768
Y122963
Y127793
Y128598
Y129403
X023589Y123768
X025199
Y124572
X023589
Y127793
X025199Y129403
X023589
Y128598
X025199
Y127793
X030030Y123768
Y124572
Y127793
Y128598
Y129403
Y122963
Y120548
Y121353
Y122158
X023589Y121353
Y122158
Y122963
Y120548
X025199Y121353
Y122158
Y122963
Y120548
X036470
Y121353
X038080
Y120548
X036470Y122158
X038080
X036470Y122963
Y123768
Y124572
Y125378
Y129403
Y128598
Y127793
Y126988
Y126183
X038080Y129403
Y128598
Y122963
Y123768
Y124572
Y125378
Y126183
Y126988
Y127793
X031640Y122158
Y121353
Y120548
Y122963
Y129403
Y128598
Y127793
Y124572
Y123768
X044520Y125378
X042910
Y126988
Y127793
Y128598
Y129403
Y126183
Y120548
Y121353
Y122158
Y122963
Y123768
Y124572
X044520Y120548
Y121353
Y122158
Y122963
Y123768
Y124572
X040495
Y123768
Y122963
Y122158
Y121353
Y120548
Y125378
Y126183
Y126988
Y127793
X044520Y126183
Y129403
Y128598
Y127793
Y126988
X087266Y125136
X089682
Y125941
X087266
Y126746
Y129161
Y128356
Y127551
X089682Y129161
Y128356
Y127551
Y126746
X087266Y124331
X089682
X092097Y126223
X090889
Y125418
X092097
X098537Y127148
X093707
Y124734
X092097Y124613
X090889
X098537Y124734
X101516Y123526
X102723
X102119Y126344
X100912
X101516Y125941
X102723
X102119Y125539
X100912
X101516Y125136
X102723
Y120306
X102119Y120709
X102723Y121111
X102119Y121514
X102723Y121916
X102119Y122319
X102723Y122721
X102119Y123124
X100912Y127148
X102119
X101516Y126746
X102723
X100912Y120709
X101516Y120306
X100912Y123124
X101516Y122721
X100912Y122319
X101516Y121916
X100912Y121514
X101516Y121111
X100912Y123929
X102119
X102723Y124331
X101516
X100912Y124734
X102119
X074306Y139868
Y139062
X058930Y138097
Y135682
Y136486
Y137292
Y138902
Y139706
Y132462
Y133266
Y134072
Y134877
X058125Y138097
Y132462
Y133266
Y134072
Y134877
Y135682
Y136486
Y137292
Y138902
Y139706
X054583Y138499
X053778
Y139304
Y140109
X054583Y139304
Y140109
X042910Y136648
Y137453
Y138258
Y139062
Y139868
Y135842
Y135038
X044520Y136648
Y137453
Y138258
Y139062
Y139868
Y135842
Y135038
X042910Y130208
Y131012
Y131818
X050557Y139868
X051363
X049752
X044520Y131818
Y131012
Y130208
X040495Y137453
Y136648
Y135842
Y135038
Y130208
Y131012
Y131818
Y132622
Y133428
Y134233
X036470Y131012
Y131818
Y135038
Y135842
Y136648
Y137453
Y138258
X038080Y137453
Y136648
Y135842
Y135038
Y131818
Y131012
Y138258
X036470Y139062
Y139868
X038080
Y139062
X036470Y130208
X038080
X031640
Y131012
X025199Y138258
X023589
X030030
X031640Y137453
Y136648
Y135842
Y135038
Y134233
Y133428
Y132622
Y131818
Y138258
Y139868
Y139062
X023589
X025199
Y139868
X023589
X030030Y139062
Y139868
X025199Y131818
X023589
Y132622
X025199
Y133428
X023589
Y134233
X025199
Y137453
X023589
Y136648
X025199
Y135842
X023589
Y135038
X025199
X030030Y131818
Y132622
Y133428
Y134233
Y135038
Y135842
Y136648
Y137453
X025199Y131012
X023589
Y130208
X025199
X030030Y131012
Y130208
X017149Y132622
Y133428
Y134233
Y135038
X018759Y132622
Y133428
Y134233
Y135038
Y135842
Y136648
Y137453
Y138258
X017149
Y137453
Y136648
Y135842
Y130208
Y131012
Y131818
X018759
Y131012
Y130208
X014090
Y131012
Y131818
X015217Y135842
Y136648
Y137453
Y138258
X014090Y135038
X015217
X014090Y134233
Y133428
Y132622
X018759Y139868
Y139062
X015217Y139868
X017149
Y139062
X015217
X010709Y131818
Y130208
Y131012
X012319Y131818
Y130208
Y131012
X010709Y138258
X012319
Y137453
X010709
Y136648
X012319
Y135842
X010709
Y135038
Y132622
X012319
Y133428
X010709
Y134233
X012319
Y135038
X010709Y139062
X012319
Y139868
X010709
Y141477
X012319
Y140673
X010709
X015217Y141477
X018759
Y140673
X017149Y141477
Y140673
X015217
X010709Y144697
X012319
Y143893
X014090
Y144697
X010709Y142283
X012319
Y143087
X010709
Y143893
X015217Y142283
X017149
Y143087
Y143893
Y144697
X018759Y143087
Y142283
Y143893
Y144697
X010709Y147918
X012319
Y147113
X010709
X014090Y147918
Y147113
Y146308
Y145502
X010709
X012319
Y146308
X010709
X018759Y145502
Y146308
Y147113
Y147918
X017149
Y147113
Y146308
Y145502
X014090Y148722
Y149527
X010709Y148722
X012319
Y149527
X010709
X017149Y148722
Y149527
X018759Y148722
Y149527
X023589Y145502
X025199
X027534
X030030
X023589Y140673
X025199
Y141477
X023589
Y142283
X025199
X023589Y144697
X025199
Y143893
X023589
Y143087
X025199
X030030Y144697
Y140673
Y141477
Y142283
Y143087
Y143893
X027534Y144697
Y143893
Y149527
Y148722
Y147918
Y147113
Y146308
X030030
Y147113
Y147918
Y148722
Y149527
X023589
Y148722
Y147918
Y147113
Y146308
X025199Y149527
Y148722
Y147918
Y147113
Y146308
X036470Y140673
Y141477
Y142283
Y143087
X038080
Y142283
Y141477
Y140673
X036470Y143893
X038080
X031640
Y143087
Y142283
Y141477
Y140673
Y144697
Y145502
Y146308
Y147113
Y147918
Y148722
Y149527
X036470Y147113
Y147918
Y148722
X038080
Y147918
Y147113
Y146308
Y144697
Y145502
X036470Y146308
Y145502
Y144697
X044520Y142283
X042910
Y143087
Y148722
Y147918
Y147113
Y146308
Y145502
Y144697
Y143893
Y140673
Y141477
X044520Y140673
Y141477
Y143893
Y144697
Y145502
Y146308
Y147113
Y147918
Y148722
Y143087
X053778Y147354
X054583
X058930Y149366
X058125
X058930Y148562
X058125
Y147757
X058930
X058125Y146951
X058930
X058125Y142122
X058930
Y142926
X058125
Y143732
X058930
Y144537
X058125
Y145341
X058930
Y146147
X058125
X058930Y140512
Y141316
X058125Y140512
Y141316
X053778Y140914
Y141719
Y146549
Y145744
Y144940
Y144134
Y143329
Y142525
X054583Y140914
Y146549
Y145744
Y144940
Y144134
Y143329
Y142525
Y141719
X053778Y148159
Y149769
Y148964
X054583Y148159
Y149769
Y148964
X074306Y140673
X095317Y153311
X096122
X096927
X094512
X093707
X092902
X096122Y156934
X095317
X096927
X092902
X093707
X094512
X095317Y157738
X096122
X096927
X094512
X093707
X092902
X099342Y153311
Y156934
Y157738
Y152506
X097732
Y157738
Y156934
Y153311
X098537Y152506
Y157738
Y156934
Y153311
X094512Y152506
X093707
X092902
X095317
X096122
X096927
X086462
Y153311
Y156934
Y157738
X089682Y153311
X088877
X088072
X087266
X090487
X091292
X092097
X087266Y156934
X088072
X088877
X089682
X090487
X091292
X092097
X087266Y157738
X088072
X088877
X089682
X090487
X091292
X092097
Y152506
X089682
X091292
X090487
X087266
X088072
X088877
X084047Y157738
X084852
Y156934
X084047
X085657Y157738
Y156934
X084852Y152506
X084047
X085657
X084852Y153311
X085657
X084047
X068638Y155461
X070796
X068638Y156250
X069306
X070128
X070796
X058125Y152586
X058930
X058125Y153391
X058930
Y154196
X058125
X058930Y150171
X058125
X058930Y151782
X058125
Y150977
X058930
X053778Y153794
Y152988
Y152184
Y151379
Y150574
X054583
Y151379
Y153794
Y152988
Y152184
X031640Y151942
Y150333
Y151138
X027534Y150333
Y151138
X030030Y151942
Y150333
Y151138
X023589Y150333
Y151138
Y151942
X025199Y150333
Y151138
Y151942
X018759
X017149
X014090Y151138
Y150333
X018759
Y151138
X017149
Y150333
X012319Y151942
X010709
Y151138
X012319
Y150333
X010709
T11
X026165Y058241
Y057677
Y057033
X028822Y057999
X025038Y056067
X025683
X025038Y059448
X033250Y063152
X036147Y060737
X034859Y060173
X033330Y058724
X038804Y059609
X035745Y062346
X036147Y061541
X038563Y062346
X035745Y063152
X038563Y063393
X032847Y062829
X032445Y062346
Y061541
Y060897
Y060253
X046693Y064520
X046372Y062588
X060942Y057355
X063760Y063312
X067705
X061667Y059932
X069556Y059770
X070683Y057033
X063438Y058080
X063921
X064404
X064887
X069475Y057195
X069878Y065405
X063438Y056711
X064219Y056679
X064823
X070280Y056872
X069878Y056711
X069475Y056551
X068349
X067036
X067544Y055987
X066255Y056389
X065426Y056663
X067761Y060897
X066497
X068510
X062955Y060253
X064082Y060817
X065370Y060897
X065531Y062024
X066014Y061944
X067117Y061461
X067946Y061541
X066658Y061864
X067141Y061944
X067624
X068268
X069556Y062185
X066497Y061381
X064645Y061300
X063599Y065486
X064887Y065566
X065853Y065164
X065209
X064565
X063921
X064243Y065486
X065531Y065566
X066175
X067785Y065164
X067141
X066497
X068510Y065405
X068107Y065566
X067463
X066819
X078975Y064922
X073501Y062668
X078894
X076479
X075996
X081269Y063353
X080746Y063393
X080263
X078975Y063626
X081149Y064761
X080665
X078975Y064440
X080344Y064359
X078733Y064029
X075272Y058724
X074467
X073662
X074064Y058965
X074869
X079216Y059288
X079700
X081068Y058965
X078814Y059448
X080762Y059288
X080344
X076214Y059947
X072696Y058483
X076238Y057516
X071408Y057355
X074869Y058483
X074064
X073259
X079957Y060737
X080561
X081164Y060817
X080263Y061059
X079538
X079055Y060817
X077365Y055584
X078975Y055907
X079619
X080344
X079780Y056389
X078975Y056631
X081068Y056389
X071408Y060093
X082372Y059288
X083483Y065405
X084047Y059288
X083580
X082976
X082919Y058160
X083402
X084288
X086944Y057597
X083241Y064922
X083161Y064440
Y063634
X086783Y064761
X083161Y063152
X082469Y061050
X083177Y061034
X083563Y060817
X084047Y060737
X082775
X088635Y062346
X088072
X081631Y064761
Y058772
X081366Y059288
X081953Y059127
X082171Y060737
X081567Y061059
X082195Y056470
X098295Y065566
X093143Y064037
X098376Y061139
X099342
Y063554
X098376
X100227Y063634
X100952Y061139
X100871Y063634
X103367Y064117
X104575
X105380Y062346
X101757Y061139
X102965Y062346
X101757Y063554
X103939Y064101
X099342Y067587
Y068384
Y068948
X099334Y070799
X098134Y067981
Y069189
X098537Y075226
X100066Y067579
X100139Y070799
X099736Y071113
X100871Y073214
X101355Y071201
X100726Y065961
X101346
X100147Y065969
X101838
X101757Y068384
X100952Y070799
X101749
X103206Y074180
X103689
X104253
X104655Y073617
X103045Y067096
X102965Y067579
X103045Y068062
X103770Y068770
Y069350
X104655Y069833
X094834Y072006
Y070396
X092982Y072329
Y071524
Y069592
X093143Y065969
X094834Y075226
Y074421
Y073617
Y072811
X086783Y066372
Y067176
Y067981
Y072006
X086139
X086783Y074421
Y075226
X092982
Y074743
X086139Y072811
X092982Y073133
X086783Y072811
X092982Y073938
X086783Y073617
X083161Y065728
X081712Y075549
X077204Y068786
X081712Y070880
Y070396
X081631Y069752
X081712Y074019
X082034Y073617
Y074421
X076801Y074663
X082034Y075226
X081712Y074824
X080424Y067176
X078814
X078009
X077204Y067152
X078412Y066935
X077606
X076793Y066927
X081712Y073214
X082034Y072811
X081712Y071362
X082034Y072006
X081712Y072409
X077606Y071524
X066255Y067257
X067866
X066175Y068304
X070039Y068223
X072776Y068384
X074789Y068464
X075191Y068625
X074386
X072519Y068786
X072776Y069189
X068831Y069430
X068429Y069994
X067463
X072752Y070799
X072519Y070396
X072768Y069994
X072543Y069592
X067302Y073536
X067141Y073938
X067866
X072454Y073617
X074386Y073777
X072696Y074019
X074386Y074261
X072454Y074421
X067866Y074743
X067141
X074386Y074824
X072696
X072454Y075226
X072696Y065728
X075111
X073984Y067016
X068510Y067096
X067036Y067233
X067141Y073133
Y072329
X072527Y071201
X074225
Y073214
X072696
X063398Y068424
X064001Y068304
X064485
X064968
X065531
X062472Y069108
X060701Y070638
X064243Y075549
X064565Y073938
X064082
Y074743
X064565
X063599Y067176
X062472Y066613
X065450Y067176
X064806
X064243
X064082Y073133
X064565
X064082Y072329
X047821Y069833
X014654Y085128
X041139Y083196
X046854Y079573
X041783Y084001
X041622Y083196
X042185Y083518
X046854Y083276
X043554Y082713
X062713Y085289
X070764
X071327Y081747
X062713Y082874
Y083679
X063116Y083276
X069958Y083115
X070683Y083598
X070119Y083920
X064243Y077158
Y076353
X066336Y078124
X069958Y080861
X070361Y081264
X062713
X063518
X063921Y080861
X063116
X063679Y080056
X064324Y081264
X065129
X065531Y080861
X064726
X066255Y080056
X066336Y078929
X066738Y080861
X066336Y081264
X067141
X067946
X068751
X069556
X069154Y080861
X067544
X063116Y084886
X062713Y084484
X063116Y084081
X070522Y084886
X070683Y084484
X080021Y076193
X080424Y076353
X081229
X080826Y076193
X077767Y082069
X077606Y082793
X076077Y082552
X077284Y082471
X076077Y082069
X076399Y082874
X072132Y083679
X080585Y083759
X077284
X076077
Y083196
X073742Y077802
X072696Y076997
Y076434
X074386Y075629
X072696
X072454Y076031
X075191Y076112
X075594Y076353
X074789
X075996Y076112
X079216Y075790
X077606Y076112
X076801
X079619Y076353
X078814
X078009
X077204
X076399
X080826Y079734
X080907Y080539
X077928Y081103
X078814Y080700
X080504Y080137
X075111Y078769
X076077Y084725
Y084242
X090084Y078607
X090728
X082034Y076353
X081631Y076193
X082034Y075870
X086944Y076031
Y076836
X086139Y085289
X086220Y082069
X089762Y083840
X089279
X086220Y083679
Y082874
X086462Y082471
X087669Y082230
X088876Y082149
X091292Y082391
X090889Y082069
X090406Y082391
X085093Y080459
X090084Y080861
X086462
X085657
X086059Y080620
X086864
X087669
X089682
X088876Y079573
X086300Y078929
X090889Y080781
X090487Y080620
X086542Y084886
X089682Y084645
X086220Y084484
X086462Y084081
X091694Y078366
X092982Y076031
X094834
X099825Y075709
X098537Y076031
X097813Y076836
X092338Y078366
X092982
X098134Y078205
X098939Y083840
X099744
X100871
X094029Y083679
Y082874
Y082310
X093304Y082149
X092499
X091694
X100227Y081103
X101032
X091775Y080781
X092902
X093707
X092499Y080539
X094029Y084886
X093868Y084484
X099342Y084081
X098537
X102401Y081666
X105058Y075951
X102643
X104977Y077883
X104253
X103447
X102643
X103367Y083920
X101677Y083840
X102803Y082310
X104172
X102884Y080217
X101435Y078769
X105943Y080459
X103367Y080217
X103850Y080620
X103126Y084725
X104816
X105460Y086174
Y091809
Y095029
Y094224
Y093419
Y092614
Y089394
Y091004
Y090199
Y087704
Y088187
Y088670
Y086979
X090889Y091407
X086623Y089153
X087267Y089314
X088474Y089636
X090084
X089279Y089797
X088072Y089877
X086462
X093787Y089716
X093707Y088992
X091292Y089314
X094029
X086864Y090038
X087669
X088876
X089682
X090487
X094190Y091326
X094109Y090119
X093626
X090245Y092292
X091855
X092660
X093465
X094270
X094190Y091809
X092660Y091648
X091936Y091568
X093465
X091050Y092292
X090245Y094788
X091050Y095271
X092660
X091050Y094788
X091855
X092660
X093465
X094270
Y095271
X093465
X090245
X087267Y087704
X089682
X086300Y088589
X094029Y088106
X093787Y087704
X091292
X089682Y088509
X087267
X086300Y088106
X087267Y086416
X089682
X086462Y086496
X093707Y086416
X092016Y087140
X093787Y087221
X086381Y087301
X090326Y086899
X086139
X094029Y086094
X086220
X089682Y085933
X086462Y085691
X088232Y094707
X087589Y094546
X089601Y094305
X087267Y094224
X087911
X088876Y093741
X089601
Y094788
X089199Y095190
X087267Y095432
X088313Y095190
X087267Y094868
X086059Y090038
X084851Y092614
X076801Y086416
X077445Y087140
X078250
X079055
X079860
X080826
X076801Y085611
X080585
X084530Y094707
X081068Y093983
X084932Y094868
X085576
X085737Y095432
X076157Y095110
X078886Y095432
X079780
X078412
X077848
X077043Y089636
X081068Y089716
X081149Y090360
X077043Y091326
X080344Y090843
X080424Y089636
X079700
X078975
X078492
X078009
X080344Y092614
X077043
X077445Y091809
X080344
X079860Y091801
X077767Y093983
X078412
X078894
X079377
X080102
X080585
X070764Y087704
X070522Y088106
X070764Y088509
X069958
X076077Y088267
Y088750
X070522Y086496
X070764Y086899
X070522Y087301
X070361Y085691
X070764Y086094
X076077Y085933
X069958Y089314
X067946Y089877
X068751Y089958
X069958Y090119
X068751Y090441
X067946
X070522Y088911
X070764Y089314
X076077Y089394
Y090199
X069958Y091729
X072132Y092453
X070844Y093017
X069958Y093057
X070683Y094063
X070200Y093741
X070402Y093097
X069556Y091970
X067141
X069073Y093017
X066336Y093097
X069717Y093419
X067544Y091729
X066738
X062713Y088509
Y087704
X063116Y087301
X062713Y086899
X063116Y086496
X062713Y086094
X063116Y085691
X062713Y090119
X063116Y089716
X062713Y089314
X063116Y088911
X061264Y095190
X063921Y093017
Y091970
X064324Y091729
X063518
X062713
X063116Y091970
X064485Y092131
X065129Y091729
X042105Y094305
X041139
X043393Y093178
X042185Y092695
X035826
X014412Y101067
X021255Y102596
X014412Y105414
X016344Y105253
X027695Y102596
X022945Y105253
X026648
X039287Y099618
X040575Y102596
X034135
X039126Y104448
Y105253
X049833Y096720
X045728Y103723
X045164Y101308
X041863Y099618
X042024Y103643
Y104448
X050155Y096398
X050799
X051121Y096720
X050477
X050582Y100447
X050235Y105575
X050960
X051081Y102355
X050638
X050195
X048867Y096398
X049511
X049189Y096720
X048545
X048626Y097444
X049028Y105172
X048384Y102596
X049302Y102130
X048424Y102113
X047418Y097364
X047901Y096961
X047418Y096881
X048223Y096398
X047096Y101952
X047418Y102275
X047660Y102677
X047821Y103401
X047015
X047418Y103643
X048223Y105164
X046693Y101631
X046854Y102757
X046613Y103643
X057682Y100060
X061023Y097283
X060540
X060057Y097444
X059574
X059091
X058608
X057923Y105454
X058487
X059131
X059654
X060137
X060942
X060661Y099255
X060218Y099296
X059775
X059332
X058849
X060781Y100503
X058970Y100463
X059775
X060177Y100221
X059332
X058608Y100181
X057964Y099296
X058407
X059775Y102073
X060218
X060661
X061103
X058849Y102113
X058366
X059332Y102073
X057843
X056595Y097686
X056112
X055629
X055146
X057561
X057078
X055629Y105454
X056193
X056072Y099296
X055549
X056233Y100020
X055790
X055227
X056595Y102073
X056957Y099296
X057481Y099376
X056676Y099940
X057159Y100181
X056796Y100463
X057360Y100584
X056796Y105454
X057360
X057400Y102073
X056515Y099296
X052651Y105172
X052731Y096398
X053375Y099698
X052892
X053053Y096720
X053375Y096398
X053455Y100423
X052973
X052852Y102355
X053295
X051443Y096398
X051765Y096720
X052490Y100503
X052087Y096398
X052409Y096720
X051966Y099658
X052409
X051564Y100503
X052409Y102355
X051966
X052409Y105575
X051765
X051523Y102355
X066819Y098813
X071086Y097927
X063921Y096398
X063438
X068831Y097927
X069637
X068027
X068429Y097766
X066658
X069234
X067544Y102516
X069637Y100664
X068429Y100825
X069234
X070119Y102516
X068831Y100664
X068349Y100343
X071086Y100020
X070844Y099618
X071086Y099215
X069637Y105494
X068993
X068349
X065209Y104126
X064565
X063921
Y102999
X067705Y105494
X065773Y104126
X061425Y105414
X063921Y100343
X066658Y099215
X066819Y099618
X066658Y100020
X066819Y100423
X066658Y100825
X065611Y100906
X064082Y100986
X064485Y101147
X063679Y101791
X081068Y096156
X080665Y098893
X079860Y099618
X078814
X078733Y103804
X080335Y103876
X080424Y104770
X079619Y105575
X080344Y103240
Y102677
Y102194
X075916Y095834
X076318Y095593
X080585Y096156
X077204Y096559
X078572Y096720
X079055
X080021
X077204Y097203
Y097686
Y098169
Y098652
X077848Y103796
X076962Y104770
X076157
X075755Y102918
Y103723
Y104206
Y105092
Y102435
Y101872
X075594Y100664
X075755Y100101
X075433Y099618
X075272Y099135
X078089Y099618
X077445Y100986
X076077Y100664
X076882Y100503
X083161Y102677
X084449Y104287
X085013Y104206
X085254Y103804
X084610
X084127
X083161Y103723
Y103240
X084127Y102918
X089480Y103441
X088434Y103603
X091131Y102838
X086783Y104448
X086381Y103804
X090245Y100101
X090406Y100745
X090326Y102033
X090889Y100745
X084771Y099215
X085335
Y098330
X084771
X088514Y099135
X088997Y100423
X089561
X089923Y099135
X088957
X088072Y100584
X083886Y102355
X083161Y102194
Y101550
Y101067
X088394Y102033
X087911
X086944
X088876
X089682
X090004Y101711
X086542Y101631
X089360Y101550
X088876
X086220Y101228
X089923Y100745
X084771Y096237
Y097686
Y097203
Y096720
X090487Y097364
X088072
X091050Y095754
X089601Y095593
X085978Y095834
X086139Y105333
X084771Y104931
X085576Y105011
X082678Y105333
X083161
X086220Y104689
X086783Y105253
X093868Y102677
X096041
X096927Y101872
Y101389
X094995Y102516
X095156Y102113
X093908Y102033
X094190Y101469
X093707Y101147
Y099135
X094512
X096162Y100383
X095639Y101389
X095317Y101711
X095961Y101952
X096364Y102194
X095639Y102275
X094592Y099779
X094753Y100262
X093707Y100495
X097007Y103723
X096766Y104126
X099905Y105494
X097490Y103562
X097893Y103160
X095639Y103079
Y103683
Y104126
X094834Y102918
X092741
X093304Y102999
X093425Y103482
X094310
X094914Y103804
X093304Y103965
X094431
X092016
X091936Y103321
X092338Y103079
X091775Y100664
X093385Y099698
X092902
X092097
Y099135
X093143Y100906
X092097Y101147
X092580Y101469
X091614Y101550
X091936Y102033
X093465Y102113
X092902Y102275
X094512Y097122
X092097Y097364
X094512Y097605
X105460Y099054
Y099859
Y105494
Y104689
Y103884
Y103079
Y102275
Y101469
Y100664
Y098249
Y097444
Y096639
Y095834
X106104Y109519
X105460
Y110324
Y111129
Y111934
Y112739
Y114349
Y115154
X105299Y114752
X098859Y108714
Y109438
Y109922
Y110485
X099664Y106058
Y106541
X097732Y108714
X097249
X096766
X097732Y109841
X097249
X096766
Y113061
X097249
X097732
Y114671
X097249
X096766
Y113866
X097249
X097732
Y115476
X097249
X096766
X097732Y110646
X097249
X096766Y112256
X097249
X097732
Y111451
X097249
X096766
Y110646
X089843Y106621
X089279
X088716
X088152
X087589
X086985
X092902Y112659
X090487
X087186Y110485
X094351Y110244
X094302Y109270
X094753Y108634
X094737Y109237
X092902Y110244
X094029Y108916
X093465
X092902
X092338
X092620Y109237
X093184
X093747
X093465Y109680
X086783Y112965
X087267Y112981
X086792Y113584
X087267Y114188
X086864Y114349
X087267Y114671
X086864Y114993
X089682Y115074
X087267Y115154
X092902Y115074
X090487
Y113464
X092902
X090487Y114269
X092902
X095019Y112763
X094995Y113866
Y114405
X086864Y110807
X090487Y111049
X086783Y112417
X087428
Y111854
X086864Y111612
X087589Y111451
X092902Y111049
X087589Y110324
X086864Y110163
X087267Y110002
X086623Y109197
X087106
X087589
X089520Y108916
X090084
X090487Y110244
Y109680
X092056Y109237
X091493
X090648Y108916
X091211
X091775
X090929Y109237
X090366
X089803
X086703Y106299
X087267
X087870
X088434
X088997
X089561
X090165
X076721Y106702
X079458
X080021
X081953
X080987
X080907Y105736
X078733Y111371
X084932Y106581
X082356Y106219
X081873Y106138
X084932
X082758Y105816
X085133Y105615
X082275Y105736
X084851Y113061
X085093Y110807
Y110324
Y109841
X085174Y109358
X080182Y111451
X080746
X080585Y113061
X080665Y113705
X080344Y114269
X081068Y115074
X081390Y114752
X081229Y111934
X079780Y112820
X079136Y112981
X080021Y113302
X079136Y113464
X080021Y113947
X079136
X079659Y114188
X078170Y109841
X077606Y113061
X078412Y114832
X077445Y115396
X078129
X077043Y114752
X076640Y115074
X076560Y105655
X076962Y105897
X076238Y106058
X075272Y106702
X071569Y113383
X075835Y112337
X075996Y114832
X073420Y114993
X072856
X072212
X071730
X066417Y112820
X068671Y114550
X066417Y114590
X067061Y114752
X067463Y114913
X066980Y115476
X066738Y113142
X067439
X068349Y113101
X068848Y112852
X069218Y112007
X070924Y112216
X069556Y112417
X069395Y112828
X070924Y113037
X069081Y115025
X071247Y114993
X071327Y112627
X069500Y114526
X069556Y113246
X069105Y113231
X070924Y107185
X071327Y107909
X069556Y108295
X068510Y108150
X070924Y108094
X069395Y107885
Y107426
X066618Y107305
X067648Y107265
X068469
X071327Y108505
X070924Y109736
X071327Y109326
X069395Y109535
X069556Y109125
X070924Y108916
X069395Y108706
X075272Y106219
X068671Y105816
X068027
X071891Y106541
X071408
X069315Y105816
X069958
X070603
X067544Y110888
X067463Y111371
X069556Y109946
X069395Y110357
X070924Y110566
X069556Y110767
X069234Y111186
X070924Y111387
X069556Y111596
X071327Y110155
Y110976
Y111798
X067383Y105816
X057682Y110807
X057642Y105776
X058487Y110807
X066014Y114993
X065579Y114615
X066094Y113142
X065676Y113037
X065595Y112618
X065684Y112208
X065716Y108086
X065531Y107668
X065708Y107265
X065579Y108497
X065724Y109736
X065579Y109326
X065724Y108916
X065595Y111798
Y110147
X065724Y110558
X065595Y110976
X065700Y111387
X064203Y108706
X063856Y108295
X064195Y107885
X063864Y107467
X063840Y109117
X064195Y109527
X063832Y109841
X064211Y110357
X063720Y110703
X064227Y111177
X063832Y111532
X064211Y112007
X063840Y112385
X064235Y112828
X063840Y113246
X059292Y110807
X058728Y107909
X059171
X058889Y111049
X057843Y107909
X058286
X058084Y111049
X057159Y112900
X057078Y114590
X057279Y107869
Y110968
X059614Y107909
X060057
X059574Y114590
X059654Y112900
X059695Y111049
X060500Y107909
X060942
X058849Y105816
X058245
X057803Y106460
X058245
X058688
X059171
X059614
X060379
X060862
X061345
X056475Y105776
X057078
X056877Y110807
X056998Y108191
X056676Y107909
X056354Y108191
X056475Y112699
X046774Y109519
X046613Y107426
X055911Y105776
X051765Y107104
X056032Y107909
X056072Y110807
Y112900
Y115074
X054864Y112659
Y111049
X054462Y110807
Y112900
X054864Y114832
X054462Y115074
X055669Y111049
X055267Y110807
X055669Y112659
X055267Y112900
X055669Y114832
X055267Y115074
X052449Y112900
X052047Y111049
X052449Y110807
X052490Y107104
X053295Y108392
X052409Y114832
X049430
X049632Y111049
Y112900
X049833Y115074
X050034Y110807
X050437Y111049
X048424Y109519
Y112659
Y114832
X048827Y109358
Y112900
Y115074
X049028Y107426
X049229Y112659
X051121Y107104
X050839Y110807
X051644
X051242Y111049
X048022Y109358
X047217
X048022Y115074
X047619Y114832
X048022Y112900
X047217
X047619Y112659
Y109519
X048706Y105655
X046935
X048223
X047418
X040575Y106621
X043312Y115315
X043473Y107668
X045969Y110163
X045566Y109600
X045325Y108634
X043956Y108150
X039690Y108634
X039126Y106058
X037516Y108150
X037033Y107668
X027695Y106621
X034135
X031076Y108150
X026165Y108634
X030593Y107668
X032445Y108634
X034940Y108150
X034135Y108634
X035343Y111451
X021255Y106621
X024636Y108150
X024153Y107668
X017713
X018276Y108150
X019886Y108634
X045325Y125378
X043232Y117730
X045164Y124975
X045325Y124573
Y123768
X045164Y123365
X045325Y122158
Y120548
X045728Y119582
X048384Y120548
X049632Y118535
X049728Y121932
X049753Y125136
X050034Y118374
X050115Y119944
X050397Y120306
X050074Y123848
X050332Y121932
X047821Y125217
X048424Y118374
X048545Y122882
Y122077
Y121352
X048827Y118535
X049109Y124492
X049269Y121916
X049229Y118374
X050960Y120306
X051242Y119944
X050678
X050960Y123929
X051089Y121957
X047217Y116426
X047821Y120387
Y121352
Y122158
Y122963
Y123768
Y124573
X047217Y118535
X048022
X047619Y118374
X057682Y118173
X057601Y121916
X058487Y118173
X058527Y123929
X059292Y118173
X059332Y123929
X056008
X055911Y121916
X058889Y118495
X059010Y119904
X058930Y123768
X058849Y121836
X058084Y118495
X057803Y124492
Y123929
X058044Y119984
X057320Y121594
X057561Y120789
X057279Y118462
X059413Y121836
X059976Y123929
X059654Y124734
X059976Y119904
X059695Y118535
X060298Y121352
Y121836
X060701Y122480
X060379Y123768
Y124492
X060701Y120387
Y119582
X051805Y119944
X056475Y121916
X056193Y121594
X056072Y118576
X056475Y118455
X056877Y118584
X056756Y121594
X057038Y121916
X056676Y123929
X054583Y119984
X054864Y118455
X054462Y118584
X055388Y124492
X055347Y121916
X055629Y121594
X055669Y118455
X055267Y118576
X052087Y120306
X052369Y119984
X052449Y118584
X052651Y121916
X053778Y121433
X052651
X051846Y121393
X052651Y120950
X053778
X051846Y120829
Y121916
X052811Y123848
X052007Y123929
X053939Y124492
X051846Y124734
X051523Y120306
X065773Y125217
X066819Y125055
X066497Y125378
X068751
X069475Y115959
X071247
X068993Y117650
X066819Y120467
X066417Y120628
X065209Y117650
X066014Y120789
X065611Y121031
X066175Y124170
X066658Y122480
X067061Y122640
X066577Y123204
X066497Y124492
X065209Y121192
Y121916
X065611Y122077
X066255Y122238
X065209Y123526
X066175
X078733Y116845
X078814Y118133
X080344Y116845
X080746Y117006
X080344Y117972
X081149Y116845
Y117972
X080987Y120145
X080504
X080746Y118133
X080987Y122319
Y122882
X080263Y124573
X080665Y124411
X080263Y121755
X079538Y116845
X079780Y121755
X079216
X079538Y120145
X079055
X079458Y118133
X079941
X079136Y117006
X079941
X079860Y124411
X079297Y124371
X077445Y125055
X078250Y122319
X078572Y120145
X078089Y117810
X078412Y117489
X077445Y116040
X075594
X076801Y123848
Y120870
X076318Y116040
X076801
X076640Y125055
X074145Y119179
Y117891
Y117408
X074789
X071730Y116120
X072212
X072696
X073259
X074145
X086864Y119662
X088876Y119823
X088072
X087267
Y123848
X089118Y124653
X089279Y121514
X090487Y123285
X088072Y123446
X087025Y123365
X089279Y123285
X088474Y123204
X087669
X086864Y121514
X089038Y118294
X088394
X087750
X091211
Y119099
X088474
X086623Y118294
X087186
X087267Y115637
X086864Y115798
X089682Y115879
X087267Y116120
X089279Y116845
X088796
X088313
X087830
X087267Y116603
X086864Y116442
X091050Y116362
X090487Y115879
X091050Y116845
X090245
X086059Y118294
X085174Y123285
Y123768
Y124411
Y124895
Y125378
X092097Y119984
X094190Y119501
X098698Y120467
Y119984
X097732Y119662
X096927
X095719Y119501
X096202
X098376
X094673Y116845
Y116362
X096766Y116281
X097249
X095317Y117408
X096766Y117086
X097249
X097732
Y116281
X094673Y115879
X097732Y122721
Y123285
Y121916
Y121111
X095317Y123848
X097732Y123768
X094592Y121916
Y121352
X092097Y121111
X095317
Y121675
Y122238
X092097Y121916
Y122721
Y123204
X092016Y118294
X093047
X094029Y119018
X096766Y118133
X097249
X097732
X096202
X094512Y118938
X092902Y116362
X092016
X092902Y115879
X093385Y116362
X092902Y116845
X092016
X105460Y118374
Y119179
Y119984
Y120789
Y123204
Y122399
Y121594
Y117569
Y116764
Y115959
Y124814
Y124009
Y126424
Y125619
X100871Y133589
X102401
X100227
X096524Y127149
X096122Y129966
X097490Y131174
X097329Y130771
X097732Y130368
X105460Y127229
X100871Y130449
X102401
X096122Y135199
X086623Y131818
X090165
X095478Y131576
X095719Y130207
X095317Y129966
X092499Y131576
X092097Y128759
X092902
X094109Y128356
X094914Y128437
X092499Y128598
X093304
X094512Y128678
X093707Y128759
X095317Y135199
X095719Y133186
Y132381
X095317Y131979
X086783Y132220
X086623Y132623
X088474Y132945
X086783Y133025
X092419Y133589
X093304
X090889Y132784
X090648Y132381
X090889Y131979
X092097
X092902
X092177Y133991
X090889Y134876
X093707Y135199
X092902
X092097
X088072Y126746
X088474Y129563
X086783Y131415
X086623Y131013
X086783Y130610
X088474Y130449
X090165Y130207
X090889Y130368
X090648Y130771
X090889Y131174
X090165Y131013
X078814Y132300
X085174Y127954
Y127229
Y126585
Y126102
X082437Y133991
X082839Y133750
X083644
X083241Y133991
X079216Y132059
X080021
X080424Y132300
X079619
X078975Y133830
X080826Y130207
Y132059
X077284Y129161
X080424Y126585
X080907
X080826Y128517
X079458Y126585
X079941
X079619Y128195
X080021Y128517
X079216
X078975Y126585
X077848Y131737
X078089Y133347
X077606Y133991
X078412Y130610
X077767Y129161
X078412Y128517
X077445Y127631
X078492Y126585
X076640Y127631
Y128517
Y129081
X076801Y133991
Y134635
X076318Y134796
X075352Y135360
X075513Y134635
X075674Y132059
X075996Y126907
Y127631
X074145Y135440
X068268Y130691
Y130127
X068187Y126183
X067866Y132462
X057642Y126585
Y127028
Y128034
X066014Y127068
X066094Y126505
Y125861
X065692Y133508
X060057Y128115
X059896Y128517
X059735Y128919
X059574Y129322
X059413Y129725
X060218Y127712
X060379Y127310
Y126827
X058769Y127068
X058825Y126641
X058608Y128638
Y129202
Y129644
X058930Y130811
X058608Y130530
X059252Y130127
X058608Y130087
Y128115
X057964Y130288
X057159Y128195
Y130047
Y127149
X056273Y128115
X056354Y127390
X056152Y126947
X056716Y126666
Y127149
X056676Y127793
X046130Y133830
X055911Y127390
X055549Y128034
Y127149
X055871Y126585
X053939Y126505
X051846
X052811Y134635
X052007Y127631
X051846Y127229
X052651Y126987
X052490Y127631
X051926Y129805
X052570Y130047
X052811Y133428
Y133910
X052892Y135440
Y127390
X053134Y134313
X053939Y126987
X053295Y127631
X053778
X053214Y130207
X053778Y133428
X053295
X053778Y133910
X054985Y135521
X054824Y130288
X054422Y132945
X054824Y133347
X054985Y133991
X054502
X048384Y135440
X050477Y127229
X047740Y134232
X047498Y134635
X047740Y135038
X047498Y135440
X051363Y133589
X050799Y135440
X049591Y133589
X049833Y129322
X049511Y127631
X049833Y127229
X050397Y130368
X050074Y130691
Y133589
X050235Y129966
X050155Y127631
X050235Y126746
X047821Y126987
Y127793
Y128598
Y129403
Y130207
X047982Y130610
X047821Y131013
Y126183
Y125700
X048626Y130691
X048948Y131013
X049028Y133589
X049189Y129403
X049109Y127229
X049068Y126666
X051041Y126746
X051121Y127229
X051282Y127631
X050719
X050638Y129725
X051443
X051041Y129966
X050719Y130771
X051121Y130610
X042346Y135038
X042910Y132703
X040495Y129081
X045244Y126102
X045164Y126585
X045325Y126987
X043956Y129000
X045325Y129805
X044520Y133589
X045325Y131013
X044520Y132945
X045808Y133428
X045164Y141074
X045244Y140592
X045969Y139787
Y139304
X045084Y137855
X046210Y137130
Y136648
X049430Y141478
Y136970
X047740Y135843
X047498Y136245
X047418Y138258
X047821Y137050
X048223Y136889
X050638Y136808
X051282Y136728
X050235Y136970
X049269Y145502
X049149Y142564
X049109Y139304
X045405Y143088
Y143893
Y144698
X057400Y145342
X056112Y136648
X052892
Y136004
X055307Y138096
X055710Y136970
X053134Y137292
X053778Y137774
X052731Y138016
Y138821
X052007Y141478
X052329Y144698
X053134Y143732
Y142926
X052167Y142202
X055307Y140110
Y142524
Y143410
Y144054
Y144698
Y145342
X051443Y136245
X065129Y137855
X065531Y141638
Y140834
Y140028
Y139224
X067946
X070522Y139867
X067946Y140028
Y140834
Y141638
X065933Y137855
X065531Y137694
X069154Y136165
X070119
X070844
X067544Y136406
X070764Y137614
X069154Y137694
X068349
X067544
X070361Y137936
X070603Y138740
X067544Y138418
X068349Y136165
X063921
X063116
X063518Y136366
X062713
X062955Y137614
X064726Y137694
X062794Y138016
X064726Y138258
X062955Y138418
Y141638
X064806
X062794Y141236
X062955Y140834
X062794Y138821
X062955Y139224
X064806Y139304
X062794Y139626
X062955Y140028
X062794Y140430
X064806Y140834
X062955Y144054
X062794Y143650
X062955Y143249
X062794Y142042
X062955Y142443
X062794Y142846
X064806Y144054
X065531
Y143249
X067946Y144054
Y143249
X070442
Y142443
X067946
X065531
X064806
X062794Y144456
X062955Y144858
X062794Y145262
X070361Y144376
Y144858
X067946
X065531
X064806
X071569Y137050
X078814Y144456
X075191
Y135843
X079055Y137050
X080826Y140028
Y139224
X081229Y140430
X077204Y140834
X080826Y142443
Y141638
X080987Y141236
X080826Y140834
X079619Y144456
X079216Y144698
X080102Y144537
X078412Y141638
Y142443
X078009Y144456
X077445Y144537
X078412Y144698
Y140834
X077928Y140028
X077365Y139224
X078412
X075513Y143732
X075916Y143329
X075513Y142926
Y142122
Y141317
X076962Y144456
X076157Y144294
X075996Y142443
Y139626
X078009Y136245
X078250Y137050
X075835Y139224
X075916Y136245
X072052Y144858
X071971Y144054
Y143249
Y142443
X072052Y140028
X072132Y139062
X071649Y136567
X071971Y140834
Y141638
X072454Y144456
Y137452
X072374Y141236
X073179Y145262
Y143732
X072615Y143650
X073179Y142926
X072615Y142846
X072856Y139224
X072535Y140430
X073179Y141558
X072696
X072615Y142042
X073179Y142122
X074467Y136245
X074950
X074306Y135843
X073420Y144778
X090084Y140592
X089601
X088796
X088313
X090487Y141638
X086703Y144537
X087025Y144858
X086623Y145582
X087347
X088313Y143490
X088957
X089601
X090245
X087911Y143974
X088635
X089118
X090004
X087508Y136728
X087991
X088434
X088876
X089360
X090889Y135682
Y138258
Y138902
Y139385
X089843Y136728
X083563Y138418
X082437Y138660
X082517Y139142
X085254Y144537
Y142846
X085335Y145582
X085978
X086381Y144938
X085657Y144858
X085978Y144456
X085174Y139626
X084851Y139224
X085174Y138821
X084691Y138418
X084127Y137372
X084771Y137050
X085174Y136808
X084207Y136406
X083805Y143006
X084851Y142443
X085174Y142042
X084851Y141638
X085174Y141236
X084851Y140028
X085174Y140430
X084771Y140834
X084207Y143168
X084851Y143249
X084449Y144537
X084047Y144858
X084851
X081390Y139626
X081551Y139142
X081631Y138660
X082034Y138499
X091855Y144456
X095558Y144376
X100871Y137372
X101032Y140592
X099664Y135601
Y137130
X098537Y140270
X098859Y143974
X098376
X097893
X092177Y139626
X095317
X094109Y138418
Y135601
X094914Y138418
X094512Y138016
Y136648
X094914Y135601
X095719
Y136808
X095317Y138016
X092902Y141799
X093707
X094512Y141638
X096122Y141236
X095719Y141638
X092902Y140028
X092419
X092177Y140430
X092419Y140834
X092097Y141638
X094914Y142042
X094109
X093304
X096122
X092660Y145494
X094592Y145502
X094109
X091855
X092338Y143974
X091855
X095719Y143249
X096364Y143329
X095317Y143490
X096122Y143974
X096927
X097410
X094351
X093626
X093063
X093304Y136648
X092499Y135601
X093304
X092499Y136728
X093707Y138016
X093304Y138418
X093707Y138660
X102160Y145342
X097329Y148642
Y149125
Y151540
X096122Y153874
X101032Y147434
X100871Y148481
X101677Y148562
X101999Y149045
X100630Y152184
X101113Y153472
X101757
X099100Y145664
X100066Y146952
X099261Y147514
X100066
X099744Y148642
X100389Y148481
X097893Y147514
X098134Y151540
Y149125
Y148642
X098939Y151540
Y149125
Y148642
X096524Y145664
X096444Y147514
X097168
X096524Y149125
X096927Y151862
X096524Y151540
X086462Y148964
Y151701
Y153954
X087267
X095156Y153874
X095558Y146952
X092258Y145906
X093063
X093626
X092499Y148642
X093304
X095558Y147514
X094592Y147434
X093385
X092821
X092177
X094109Y148642
X092499Y149125
X093304
X094109
Y151540
X094914
X095719Y149125
Y151540
X094914Y149125
X090326Y145664
X090084Y148158
Y148642
X090889Y148158
X091694Y148642
X090889Y149125
X091694
X090084
X087669
X087267Y151701
X087106Y148642
X087669
Y148158
X087911Y145664
X088474Y149125
X089279
X088474Y148642
X089279
Y148158
X088474
X078733Y146066
X083644Y148884
X083161
X085254Y148964
X085335Y147918
X085978Y147998
X084771Y148964
X084755Y145592
X083966Y147757
X084127Y148884
X079216Y154680
X079941
X080585
X081149
X081793
X082437
X080344Y151701
X081631Y152104
X083402Y151862
X085246Y151693
X079619Y153312
X080424
X079216Y153472
X080021
X085657Y153954
X081793Y152909
X081229Y153553
X081712
X084851Y153954
X084047
X083241
X080021Y147354
X080344Y147676
X079216Y146066
X079700
X080102Y145906
Y148078
X080344Y148481
X080102Y148884
X080344Y149286
X080102Y149689
X080344Y150090
X080102Y150494
Y151298
X080344Y150896
X077687Y150090
Y150896
X078250Y151701
X077687
X078653Y152022
X078170Y155404
X077606Y153392
X078653
X078250Y146066
X077687
X077043
X076479
X076399Y153553
X071528Y152586
X070361Y152562
X070804Y152586
X069878
X069395
X068912
X075272Y153553
X075916Y149206
X075433Y146066
X075916
X073340Y154518
X073259Y152586
X071971
X072856Y153794
X072696Y152586
X074386Y154518
X073903
X073420Y153794
X074386Y152104
X074225Y147032
Y150090
X073742Y150494
X074386
X074225Y150896
X074386Y151298
X074225Y151701
X067946Y145664
X067544Y147032
X066738
Y148884
X067946Y146870
X067141
X066336
X069556
X070361
X070764Y147032
X069958
X069154
X068349
X071408Y146790
X068751Y146870
X066175Y153150
X066738
X067302
X070361Y150010
X069878
X069234
X068268
X067785
X064324Y147514
X063518Y147072
X062713
X063116Y146912
X063921Y146870
X064726Y147757
X062955Y145664
X065531
X065129Y147032
X065531Y146870
X065933Y147032
X061425Y153069
X060902Y154036
X060057
X063840
X063317
X062512
X061707
X062633Y153069
X063116
X063599
X064082
X064726Y153150
X065209
X065692
X060298Y149446
X064324Y150252
X064726Y151137
X063921
X061506
X057400Y146146
X057279Y147072
X057320Y148562
Y147757
X056434Y155404
X055468Y147354
Y146388
X049913Y148158
X050719Y148964
X049511Y154841
X052731Y154518
X053053Y147434
X052811Y151460
Y151942
X053053Y152425
X052731Y152909
X053053Y153392
X052811Y153794
X053053Y154196
X055790Y147757
Y148562
Y149930
Y150413
Y150977
Y153392
X049913Y146870
X043715Y148722
X046049Y146870
X045728Y151782
Y152586
Y153392
Y154196
X037436Y153874
X035504Y154438
X034054
X035504Y148158
X034054Y151942
X034940Y153230
X030673
X029385Y153874
X016505
X017793Y153230
X022945Y153874
X024153Y153230
X024716Y153874
X011353Y153230
X034054Y157497
X035504Y156934
X036631
X049913Y157336
X045003Y158142
X059574Y156692
X060137
X060902
X063679Y156128
X061707Y156692
X062512
X063317
X065933Y157980
X065370
X078170Y157336
X075755Y157497
X095317Y156370
X096122
X096927
X100630
X101113
X100147
X099342
X097732
X098537
X101757
M30
